<svg width="1081" height="58" viewBox="0 0 1081 58" fill="none" xmlns="http://www.w3.org/2000/svg">
<path fill-rule="evenodd" clip-rule="evenodd" d="M284.603 35.3285H289.998L292.095 26.3744C292.429 25.1608 292.762 24.2621 293.223 23.8283C294.321 22.7958 297.27 22.9575 297.27 22.9575L298.464 17.8954C296.591 17.9054 293.693 17.8698 291.893 18.3726C290.853 18.6637 289.755 19.4798 289.131 20.1438C287.992 21.3564 287.311 23.8657 287.311 23.8657L284.603 35.3285ZM237.945 22.4758H257.665C258.816 22.5054 259.737 22.957 260.162 23.5624C260.68 24.3005 261.233 25.4011 260.381 27.4777C259.472 29.6949 257.848 30.3583 256.152 30.4102H252.621L254.077 24.1723H248.647L243.791 45H249.192L251.456 35.3235C251.456 35.3235 253.026 35.3301 255.059 35.3313C256.63 35.2973 258.473 35.1083 260.212 34.1822C262.092 33.1815 263.376 31.5113 264.18 30.016C264.922 28.6362 265.4 26.3767 265.512 25.1329C265.61 24.0447 265.746 22.2172 264.442 20.4359C263.849 19.6253 262.549 18.6324 261.232 18.3147C259.793 17.9684 257.789 17.9495 257.789 17.9495H237.261C234.102 17.9796 232.42 19.0963 231.481 20.0786C230.466 21.1406 229.947 22.6018 229.952 23.8746C229.957 25.0805 230.271 26.3622 230.956 27.1354C231.58 27.8379 232.624 28.6167 234.698 28.7583H238.301C238.301 28.7583 238.799 28.7745 239.073 28.8994C239.339 29.0215 239.535 29.3554 239.488 29.681C239.432 30.0774 239.305 30.5791 237.989 30.6338H227.74L226 35.353H238.295C239.933 35.3313 242.959 35.0196 244.344 32.5839C244.86 31.6768 245.32 29.9804 245.337 28.721C245.354 27.4465 244.925 26.5908 244.672 26.1531C244.34 25.5756 243.709 24.9104 242.445 24.4784C241.787 24.2532 240.349 24.2108 240.349 24.2108H236.964C236.309 24.2108 235.805 24.009 235.872 23.34C235.91 22.9598 236.203 22.6459 236.571 22.5361C236.842 22.4541 237.945 22.4758 237.945 22.4758ZM276.948 21.5498C275.608 21.5643 274.445 22.0839 273.313 23.1995C272.237 24.2604 271.661 25.9106 271.548 27.3668C271.478 28.2672 271.726 29.521 272.313 30.2864C272.889 31.0379 274.055 31.6083 275.153 31.5798C276.82 31.5375 277.974 31.0168 278.895 29.9848C279.977 28.7739 280.688 26.9576 280.646 25.2366C280.622 24.3312 280.433 23.4085 279.646 22.603C278.858 21.7974 277.782 21.5409 276.948 21.5498L277.648 17.445C279.883 17.4154 282.344 18.0409 283.915 19.5902C285.488 21.1395 285.814 23.1906 285.787 24.8731C285.753 26.9743 285.039 29.8622 282.519 32.6424C280.297 35.0915 276.432 36.0432 273.754 35.9189C271.075 35.7945 269.094 34.9282 267.639 33.3939C266.365 32.0504 265.907 30.481 265.907 28.4985C265.907 26.748 266.454 24.4762 268.098 22.24C270.027 19.617 273.718 17.4974 277.648 17.4455L276.948 21.5498ZM301.102 13H306.541L305.361 17.9802H309.488L308.353 22.9079H304.226L303.002 28.3865C302.807 29.5026 302.996 30.0712 303.615 30.4481C303.869 30.6036 304.729 30.6711 304.729 30.6711H316.477C317.788 30.6494 318.728 30.5284 318.77 29.6369C318.814 28.721 317.701 28.7438 317.701 28.7438H314.358C312.611 28.6546 311.148 28.1629 310.449 27.4042C309.846 26.7485 309.292 25.774 309.335 23.8757C309.385 21.7327 310.493 20.2135 310.973 19.7446C311.454 19.2758 313.23 17.9356 315.807 17.9802H328L326.304 22.4686H316.302C315.647 22.4909 315.349 22.5907 315.166 22.826C314.977 23.0713 314.885 23.457 315.013 23.7642C315.133 24.0497 315.429 24.1662 316.258 24.2108H319.381C320.976 24.3 322.301 24.5553 323.094 25.2377C323.817 25.8599 324.513 26.6666 324.513 28.7438C324.513 31.0898 323.382 32.6095 322.614 33.4112C321.663 34.4041 320.343 35.1306 316.39 35.3318H301.89C300.317 35.309 299.028 35.3764 297.827 33.9698C296.626 32.5633 297.034 30.8055 297.15 29.8231L301.102 13Z" fill="black"/>
<path fill-rule="evenodd" clip-rule="evenodd" d="M58.6034 34.3285H63.9982L66.0951 25.3744C66.4293 24.1608 66.7618 23.2621 67.2225 22.8283C68.3206 21.7958 71.2701 21.9575 71.2701 21.9575L72.4636 16.8954C70.5914 16.9054 67.693 16.8698 65.8933 17.3726C64.8531 17.6637 63.755 18.4798 63.1313 19.1438C61.9919 20.3564 61.3114 22.8657 61.3114 22.8657L58.6034 34.3285ZM11.9454 21.4758H31.6654C32.8158 21.5054 33.7372 21.957 34.1625 22.5624C34.6804 23.3005 35.2327 24.4011 34.3811 26.4777C33.4717 28.6949 31.8475 29.3583 30.152 29.4102H26.6212L28.0769 23.1723H22.6467L17.7911 44H23.1924L25.4561 34.3235C25.4561 34.3235 27.0258 34.3301 29.0594 34.3313C30.6301 34.2973 32.4729 34.1083 34.2121 33.1822C36.0925 32.1815 37.3759 30.5113 38.1801 29.016C38.9221 27.6362 39.4002 25.3767 39.512 24.1329C39.6101 23.0447 39.7464 21.2172 38.4423 19.4359C37.8491 18.6253 36.5488 17.6324 35.2316 17.3147C33.7934 16.9684 31.7887 16.9495 31.7887 16.9495H11.2612C8.10173 16.9796 6.42032 18.0963 5.48093 19.0786C4.46631 20.1406 3.94728 21.6018 3.95218 22.8746C3.95709 24.0805 4.27058 25.3622 4.95645 26.1354C5.58016 26.8379 6.62368 27.6167 8.69818 27.7583H12.3014C12.3014 27.7583 12.7992 27.7745 13.0734 27.8994C13.339 28.0215 13.5347 28.3554 13.4883 28.681C13.4316 29.0774 13.3046 29.5791 11.989 29.6338H1.73975L0 34.353H12.2954C13.9332 34.3313 16.9591 34.0196 18.3445 31.5839C18.8602 30.6768 19.3198 28.9804 19.3367 27.721C19.3542 26.4465 18.9246 25.5908 18.6721 25.1531C18.3396 24.5756 17.7093 23.9104 16.445 23.4784C15.7869 23.2532 14.3487 23.2108 14.3487 23.2108H10.9635C10.3087 23.2108 9.80494 23.009 9.872 22.34C9.91017 21.9598 10.2035 21.6459 10.571 21.5361C10.8419 21.4541 11.9454 21.4758 11.9454 21.4758ZM50.9482 20.5498C49.6075 20.5643 48.4446 21.0839 47.3128 22.1995C46.2366 23.2604 45.6614 24.9106 45.548 26.3668C45.4776 27.2672 45.7262 28.521 46.3129 29.2864C46.8886 30.0379 48.0548 30.6083 49.1534 30.5798C50.8201 30.5375 51.9737 30.0168 52.8951 28.9848C53.9768 27.7739 54.6883 25.9576 54.6458 24.2366C54.6223 23.3312 54.4326 22.4085 53.6459 21.603C52.8575 20.7974 51.7818 20.5409 50.9482 20.5498L51.6477 16.445C53.883 16.4154 56.3435 17.0409 57.9154 18.5902C59.4883 20.1395 59.8138 22.1906 59.7865 23.8731C59.7527 25.9743 59.039 28.8622 56.5186 31.6424C54.2974 34.0915 50.4324 35.0432 47.7539 34.9189C45.0753 34.7945 43.094 33.9282 41.6394 32.3939C40.3653 31.0504 39.9067 29.481 39.9067 27.4985C39.9067 25.748 40.4536 23.4762 42.0979 21.24C44.0268 18.617 47.7179 16.4974 51.6482 16.4455L50.9482 20.5498ZM75.1024 12H80.5408L79.361 16.9802H83.4881L82.353 21.9079H78.2258L77.0024 27.3865C76.8067 28.5026 76.9959 29.0712 77.6147 29.4481C77.8693 29.6036 78.7285 29.6711 78.7285 29.6711H90.4771C91.7878 29.6494 92.7283 29.5284 92.7697 28.6369C92.8144 27.721 91.7005 27.7438 91.7005 27.7438H88.3584C86.6111 27.6546 85.1477 27.1629 84.4493 26.4042C83.8458 25.7485 83.2919 24.774 83.3355 22.8757C83.3846 20.7327 84.493 19.2135 84.9733 18.7446C85.4536 18.2758 87.2299 16.9356 89.8065 16.9802H102L100.304 21.4686H90.3016C89.6468 21.4909 89.3485 21.5907 89.1664 21.826C88.9767 22.0713 88.8851 22.457 89.0132 22.7642C89.1326 23.0497 89.4287 23.1662 90.2579 23.2108H93.3814C94.9756 23.3 96.301 23.5553 97.0937 24.2377C97.8166 24.8599 98.5134 25.6666 98.5134 27.7438C98.5134 30.0898 97.3816 31.6095 96.6139 32.4112C95.6631 33.4041 94.3426 34.1306 90.3899 34.3318H75.8896C74.3167 34.309 73.0284 34.3764 71.8273 32.9698C70.6262 31.5633 71.0341 29.8055 71.1502 28.8231L75.1024 12Z" fill="black"/>
<path d="M109.76 39L113.756 16.392H106.556L107.132 13.224H124.844L124.268 16.392H117.068L113.072 39H109.76ZM126.141 13.224H129.741L133.089 34.14H133.233L144.285 13.224H148.029L134.097 39H130.641L126.141 13.224Z" fill="black"/>
<path fill-rule="evenodd" clip-rule="evenodd" d="M429.982 13.7554C428.879 12.9882 428.351 12.7242 427.175 12.7242C426.168 12.7242 425.256 13.2039 424.585 13.8752C423.913 14.5466 423.529 15.4579 423.529 16.4891C423.529 17.4963 423.913 18.4076 424.585 19.079C425.256 19.7503 426.168 20.2543 427.175 20.2543H439.65L429.982 13.7554Z" fill="#CECECE"/>
<path fill-rule="evenodd" clip-rule="evenodd" d="M434.205 7.85601C433.701 6.60917 433.413 6.08161 432.453 5.43386C431.614 4.85837 430.582 4.73855 429.647 4.93026C428.711 5.098 427.895 5.6499 427.319 6.48898C426.744 7.32807 426.552 8.31131 426.72 9.24662C426.911 10.1819 427.367 11.0689 428.231 11.6444L439.098 19.0547L434.205 7.85601Z" fill="#4E5353"/>
<path fill-rule="evenodd" clip-rule="evenodd" d="M440.945 5.09835C441.161 3.80359 441.209 3.20414 440.73 2.12504C440.322 1.18973 439.506 0.566315 438.618 0.230459C437.731 -0.105398 436.747 -0.0814341 435.788 0.350276C434.852 0.758023 434.18 1.47729 433.844 2.36431C433.509 3.25169 433.437 4.28286 433.868 5.21817L439.194 17.4484L440.945 5.09835Z" fill="#333939"/>
<path fill-rule="evenodd" clip-rule="evenodd" d="M452.844 13.7554C453.948 12.9882 454.476 12.7242 455.651 12.7242C456.683 12.7242 457.57 13.2039 458.241 13.8752C458.913 14.5466 459.297 15.4579 459.297 16.4891C459.297 17.4963 458.937 18.4076 458.266 19.079C457.57 19.7503 456.682 20.2543 455.65 20.2543H443.2L452.844 13.7554Z" fill="#ADACAC"/>
<path fill-rule="evenodd" clip-rule="evenodd" d="M448.647 7.85601C449.127 6.60917 449.415 6.08161 450.374 5.43386C451.238 4.85837 452.245 4.73855 453.18 4.93026C454.116 5.098 454.956 5.6499 455.532 6.48898C456.107 7.32807 456.3 8.31131 456.107 9.24662C455.94 10.1819 455.46 11.0689 454.62 11.6444L443.753 19.0547L448.647 7.85601Z" fill="#8E8F8F"/>
<path fill-rule="evenodd" clip-rule="evenodd" d="M448.982 2.36431C448.647 1.47729 447.975 0.758023 447.04 0.350276C446.104 -0.0814341 445.12 -0.105398 444.232 0.230459C443.345 0.566315 442.529 1.18973 442.097 2.12504C441.762 2.89261 441.69 3.41981 441.762 4.13908V4.187L442.769 4.21097C443.345 4.23493 443.632 4.37908 442.913 4.69061C442.649 4.88268 441.905 5.0025 442.074 6.32159L443.657 17.4484L448.982 5.21817C449.39 4.28286 449.318 3.25206 448.982 2.36431Z" fill="#4E5353"/>
<path fill-rule="evenodd" clip-rule="evenodd" d="M449.918 34.4749C449.918 38.2637 446.823 38.5273 445.672 38.5273C444.88 38.5273 437.371 38.6232 437.371 38.6232V22.5802H444.688C446.991 22.5802 448.766 24.4025 448.766 26.609C448.766 28.8155 447.615 30.1342 446.727 30.1342C446.727 30.1342 449.918 30.6614 449.918 34.4749Z" fill="black"/>
<path fill-rule="evenodd" clip-rule="evenodd" d="M441.593 25.506V28.4793H443.728C445.24 28.4793 445.311 25.506 443.728 25.506H441.593ZM441.593 31.8611V35.2901H444.64C446.391 35.2901 446.487 31.8611 444.64 31.8611H441.593Z" fill="white"/>
<path fill-rule="evenodd" clip-rule="evenodd" d="M423.985 36.7529C422.953 35.9371 421.73 35.5057 419.57 35.8176V38.6228H423.937C423.673 38.4551 423.577 38.2154 423.529 38.0473C423.409 37.5916 423.673 37.1839 423.889 36.872C423.912 36.8252 423.937 36.7769 423.985 36.7529ZM421.082 32.5556C422.353 32.5556 423.337 32.7717 424.08 33.1072V28.7672L431.781 38.6475L431.805 38.6232H436.315V22.5323H431.781V32.4126L424.08 22.5323H419.57V32.6279C420.073 32.5812 420.577 32.5571 421.082 32.5556ZM462.681 38.3356V37.4722H462.656C462.417 37.856 462.153 38.2873 461.888 38.7194C462.157 38.6008 462.421 38.4728 462.681 38.3356ZM457.978 39.3185C458.194 38.983 458.434 38.6228 458.65 38.2637C457.786 38.4554 457.259 38.5756 457.019 38.6475C456.395 38.8392 456.011 38.5273 455.891 38.4079C455.603 38.1199 455.531 37.7122 455.675 37.2801C455.843 36.8005 456.323 36.2489 457.162 36.1048C458.097 35.9614 459.153 35.7453 460.449 35.4338C460.544 35.2897 460.641 35.1459 460.737 34.9781C460.257 35.1702 459.753 35.2417 459.225 35.2417C458.633 35.2425 458.046 35.1264 457.498 34.9C456.951 34.6737 456.453 34.3417 456.034 33.9229C455.615 33.5041 455.283 33.0068 455.057 32.4595C454.83 31.9122 454.714 31.3256 454.715 30.7333C454.715 28.2876 456.73 26.2732 459.225 26.2732C460.616 26.2732 461.84 26.8966 462.68 27.8798V23.3474C461.48 22.7 460.113 22.3402 458.649 22.3402C453.947 22.3402 450.133 26.1533 450.133 30.8288C450.134 35.3136 453.588 38.983 457.978 39.3185Z" fill="black"/>
<path fill-rule="evenodd" clip-rule="evenodd" d="M475.779 34.0189C475.515 33.7553 475.251 33.2278 473.74 33.491C472.469 33.707 465.871 34.9543 463.016 35.5533C463.161 35.2661 463.304 35.0018 463.376 34.8101C464.096 33.2274 463.04 32.7717 462.225 33.9231C462.009 34.2586 461.481 35.0501 460.857 36.033C459.298 36.3932 458.219 36.6088 457.283 36.753C456.132 36.9447 455.939 38.2638 456.827 37.9994C457.259 37.88 458.507 37.6157 460.042 37.3045C458.675 39.4627 457.091 41.9807 456.563 42.8677C455.676 44.3785 453.373 45.8889 452.125 46.5127C450.902 47.1126 450.542 46.6805 451.334 45.3621C452.125 44.0191 452.845 42.7 453.373 41.9807C453.901 41.285 453.373 41.0214 452.845 41.1895C452.845 41.1895 453.469 38.9834 452.125 38.9834C450.806 38.9834 450.278 39.9427 449.751 40.5661C449.247 41.1659 447.544 43.0122 445.793 43.2036C446.177 41.5014 445.048 41.1895 445.048 41.1895C445.048 41.1895 445.936 39.3425 443.274 39.4148C442.386 39.4391 440.539 40.0382 439.291 41.4771C438.931 41.5254 438.332 41.6931 437.636 42.2447C436.388 43.2283 434.445 44.6432 433.39 45.1704C433.39 45.1704 434.637 43.4919 434.637 41.9814C434.637 40.4946 433.821 40.4463 432.598 40.4463C431.566 40.4463 429.791 41.6459 428.087 43.42C428.183 43.0126 428.663 40.4942 427.368 40.5665C426.624 40.6148 426.288 41.2622 426.144 42.005C425.425 42.1009 423.17 42.4847 419.883 44.0434C418.755 43.2039 416.716 42.9164 414.341 42.7003C410.719 42.3401 409.207 42.1724 409.207 40.9256C409.207 39.6791 412.662 37.0409 416.38 35.8903C420.602 34.5712 422.761 34.8108 424.609 36.4175C425.137 36.8496 423.649 37.7366 424.345 38.0968C425.065 38.4562 425.952 38.0968 425.857 36.6818C425.761 35.2669 424.969 33.2285 421.083 33.2285C417.172 33.2285 410.983 35.0025 407.792 40.3029C407 41.6212 408.68 43.3964 411.774 43.6596C413.837 43.8517 416.524 44.2351 417.916 45.0746C417.844 45.0981 417.771 45.1464 417.724 45.1704C412.398 48.1924 407 50.5666 407 53.2276C407 54.4749 407.696 54.8347 409.735 54.8347C411.774 54.8347 420.819 50.6621 420.819 45.9616C420.819 45.4583 420.698 45.0263 420.459 44.6668C422.354 43.8273 424.249 43.156 425.952 42.8681L426.024 42.7003C425.976 43.18 425.976 43.6121 425.952 43.9228C425.904 44.331 425.665 45.458 425.353 46.7527C423.314 49.3909 420.843 52.8682 420.627 54.7388C420.363 57.2085 420.723 58.0001 421.779 58.0001C422.738 58.0001 423.745 57.6646 426.793 47.7839C427.008 48.4073 427.656 48.9353 428.688 48.7911C430.103 48.6234 432.766 47.8318 435.237 45.6257C437.228 43.8517 437.78 43.3956 438.308 43.3956C438.234 43.6623 438.186 43.9352 438.164 44.2108C437.9 47.6641 439.315 47.9996 440.299 48.0954C441.234 48.192 444.281 47.2567 445.529 44.043C446.105 44.1632 447.472 44.2108 449.295 42.4367C451.791 40.0382 451.526 41.0218 451.167 41.6209C450.806 42.2443 448.767 44.8106 449.487 46.585C450.183 48.3598 451.334 48.6234 453.637 46.9452C455.94 45.2659 456.827 44.4747 456.827 44.4747C456.827 44.4747 456.66 46.9452 459.131 46.9452C460.642 46.9452 462.321 45.6261 464.193 43.7555C466.04 41.9092 467.288 40.1344 468.079 40.1344C468.079 40.1344 469.23 42.6048 467.815 44.1157C466.64 45.3382 466.256 45.6747 465.608 45.3629C464.529 44.8113 462.945 45.6265 463.905 46.3221C464.888 47.0414 465.512 47.9284 467.455 46.5857C469.399 45.2666 471.702 43.3245 473.644 41.5497C475.42 39.9434 474.005 39.7757 472.949 41.0225C472.158 41.9335 469.758 43.4922 469.758 43.4922C469.758 43.4922 470.478 40.5665 468.871 38.624C468.871 38.624 468.175 36.7541 467.192 38.7206C467.192 38.7206 464.193 42.2454 463.041 43.3967C460.546 45.8904 456.444 46.658 457.979 43.7562C458.555 42.6531 460.786 39.2478 462.226 36.8739C463.353 36.6579 464.505 36.4182 465.512 36.2265C468.703 35.6031 474.461 34.8116 475.348 34.8116C476.235 34.8116 476.043 34.2825 475.779 34.0189Z" fill="#333939"/>
<path fill-rule="evenodd" clip-rule="evenodd" d="M418.779 46.6804C417.987 49.4144 412.662 53.2272 410.623 53.4915C408.583 53.7551 408.152 52.6038 410.815 50.4939C412.326 49.2706 415.301 47.2566 418.563 45.6017C418.803 45.9136 418.899 46.2726 418.779 46.6804ZM423.745 52.0766C422.857 54.2827 422.138 55.6976 421.514 55.5299C420.914 55.3614 421.754 52.2919 424.537 49.6541C424.273 50.5894 423.985 51.4528 423.745 52.0766ZM432.861 43.2278C432.405 44.9063 430.558 46.777 429.503 46.5126C428.711 46.2973 427.704 46.2973 427.152 46.6328C427.152 46.6092 427.152 46.5845 427.175 46.5609C428.255 44.9299 428.975 43.4674 430.366 42.6999C432.597 41.4527 433.293 41.5485 432.861 43.2278ZM442.481 46.4168C441.257 46.9447 439.77 47.3761 439.77 46.2251C439.77 45.0737 439.77 43.2274 441.593 41.9802L441.953 41.3568C441.953 41.3568 443.201 41.8125 444.088 41.6204C444.088 41.6204 444.256 42.6999 444.616 43.1312C444.616 43.1312 443.729 45.8888 442.481 46.4168Z" fill="white"/>
<path fill-rule="evenodd" clip-rule="evenodd" d="M594.415 27.7788C597.192 27.7788 598.118 25.9197 598.118 23.3633C598.118 18.4252 594.472 18.832 594.184 18.832H592.853V27.7788H594.415ZM594.589 26.2101V20.4585C596.035 20.4585 596.383 22.2598 596.383 23.3633C596.383 24.4667 595.977 26.268 594.589 26.2101ZM603.325 18.832V27.7788H606.912V26.1523H605.118V24.1184H606.68V22.4334H605.118V20.5164H606.912V18.832H603.325ZM615.879 19.1803C615.417 18.8898 614.896 18.7151 614.375 18.7151C612.813 18.7151 612.004 19.9354 612.004 21.3294C612.004 22.666 612.64 23.3048 613.682 24.0021C614.144 24.3504 614.723 24.583 614.723 25.2803C614.723 25.8612 614.26 26.268 613.682 26.268C613.16 26.268 612.756 26.0938 612.351 25.8034V27.4883C612.756 27.7788 613.392 27.8945 613.855 27.8945C615.533 27.8945 616.401 26.7326 616.401 25.164C616.401 22.7239 613.739 22.666 613.739 21.1552C613.739 20.6321 614.087 20.2838 614.608 20.2838C615.128 20.2838 615.533 20.5742 615.88 20.8647V19.1803H615.879ZM621.723 27.7788H623.46V18.832H621.723V27.7788ZM631.848 22.8402V24.4667H632.947C632.947 25.1061 632.832 26.268 631.906 26.268C630.633 26.268 630.575 24.2347 630.575 23.3048C630.575 22.4918 630.69 20.2838 631.906 20.3422C632.542 20.3422 632.716 21.0395 632.773 21.5041L634.51 20.8069C634.104 19.5871 633.236 18.7151 631.848 18.7151C629.361 18.7151 628.724 21.3294 628.724 23.3633C628.724 25.3387 629.476 27.8945 631.848 27.8945C634.278 27.8945 634.741 25.3966 634.741 23.5374V22.8402H631.848ZM639.948 18.832V27.7788H641.683V23.3048L641.568 22.4334L641.626 22.3755L643.767 27.7788H645.445V18.832H643.71V22.8986C643.71 23.3054 643.71 23.7706 643.824 24.2353L641.627 18.8326H639.948V18.832ZM650.941 18.832V27.7788H654.527V26.1523H652.676V24.1184H654.297V22.4334H652.676V20.5164H654.47V18.832H650.941ZM661.586 27.7788V23.6537H661.644L663.148 27.7788H665L663.496 23.7116C664.363 23.247 664.71 22.3755 664.71 21.3872C664.71 19.0056 662.743 18.8314 661.586 18.8314H659.851V27.7782H661.586V27.7788ZM661.586 20.3422H661.818C662.744 20.2838 663.033 20.8069 663.033 21.4462C663.033 22.1429 662.685 22.7245 661.933 22.7245L661.586 22.6666V20.3422ZM592.968 33.3563V34.0535H593.952V39.5725H594.762V34.0535H595.688V33.3563H592.968ZM600.316 33.3563V39.5725H602.573V38.8747H601.127V36.7256H602.399V36.029H601.127V34.0535H602.573V33.3563H600.316ZM609.747 33.4726C609.515 33.2984 609.342 33.2984 609.053 33.2984C607.375 33.2984 607.201 35.3311 607.201 36.5515C607.201 37.8881 607.433 39.6888 609.111 39.6888C609.343 39.6888 609.574 39.6298 609.748 39.5147V38.7596C609.632 38.8747 609.458 38.8747 609.285 38.8747C608.128 38.8747 608.07 37.3066 608.07 36.4936C608.07 35.7385 608.07 34.0535 609.227 34.0535C609.4 34.0535 609.574 34.1114 609.748 34.2277V33.4726H609.747ZM614.549 33.3563V39.5725H615.417V36.4936H616.631V39.5725H617.442V33.3563H616.631V35.7964H615.417V33.3563H614.549ZM623.285 34.8092L624.732 39.5725H625.484V33.3563H624.674V35.5643L624.905 38.0617H624.848L623.401 33.3563H622.649V39.5725H623.46V37.3066L623.343 35.2148L623.285 34.8092ZM632.137 33.2984C630.517 33.2984 630.517 35.3311 630.517 36.4936C630.517 37.5971 630.517 39.6888 632.137 39.6888C633.758 39.6888 633.758 37.5971 633.758 36.4936C633.758 35.3311 633.758 33.2984 632.137 33.2984ZM632.137 34.0535C632.773 34.0535 632.889 35.157 632.889 36.4936C632.889 37.7712 632.773 38.8747 632.137 38.8747C631.501 38.8747 631.385 37.7712 631.385 36.4936C631.385 35.1576 631.501 34.0535 632.137 34.0535ZM638.733 33.3563V39.5725H640.99V38.8747H639.602V33.3563H638.733ZM647.122 33.2984C645.503 33.2984 645.503 35.3311 645.503 36.4936C645.503 37.5971 645.503 39.6888 647.122 39.6888C648.685 39.6888 648.742 37.5971 648.742 36.4936C648.742 35.3311 648.685 33.2984 647.122 33.2984ZM647.122 34.0535C647.759 34.0535 647.874 35.157 647.874 36.4936C647.874 37.7712 647.759 38.8747 647.122 38.8747C646.486 38.8747 646.37 37.7712 646.37 36.4936C646.37 35.1576 646.486 34.0535 647.122 34.0535ZM655.222 36.3195V37.0161H655.858V37.3645C655.858 38.8174 655.511 38.8753 655.165 38.8753C654.816 38.8753 654.47 38.6432 654.47 36.4942C654.47 34.9834 654.527 34.0541 655.165 34.0541C655.685 34.0541 655.801 34.4603 655.858 34.8671L656.669 34.5187C656.437 33.7046 656.032 33.299 655.165 33.299C653.718 33.299 653.602 34.7508 653.602 36.4942C653.602 38.2365 653.775 39.6894 655.222 39.6894C656.9 39.6894 656.727 37.5977 656.727 36.3779V36.32H655.222V36.3195ZM661.181 33.3563L662.454 36.8998V39.5725H663.264V36.8998L664.422 33.3563H663.553L662.975 35.448L662.86 36.261L662.108 33.3563H661.181Z" fill="#333333"/>
<path fill-rule="evenodd" clip-rule="evenodd" d="M562.536 38.8747C562.304 38.7006 560.626 36.3195 560.279 34.3429C573.586 46.8344 589.265 35.97 584.695 26.6164C584.637 26.4422 584.521 26.2681 584.347 26.0354C584.347 25.6871 584.232 24.6415 584.174 24.2926L584.579 24.6988C590.827 32.1354 585.504 40.5591 577.521 42.7672C570.694 44.3359 565.949 41.8964 562.536 38.8747Z" fill="#828282"/>
<path fill-rule="evenodd" clip-rule="evenodd" d="M561.783 24.8157C560.453 26.3265 560.105 28.1856 560.105 28.1856C561.263 34.112 566.412 35.3896 566.412 35.3896C560.916 31.2067 561.783 24.8157 561.783 24.8157Z" fill="#828282"/>
<path fill-rule="evenodd" clip-rule="evenodd" d="M560.627 18.4832C557.676 20.2844 556.634 23.3049 557.097 25.2804C556.288 26.7912 556.114 27.198 555.477 29.4054C553.568 22.5498 558.486 18.8321 560.627 18.4832Z" fill="#828282"/>
<path fill-rule="evenodd" clip-rule="evenodd" d="M582.034 35.389C580.992 36.3195 580.356 36.842 579.025 37.7713C587.935 20.4586 569.999 9.7683 563.114 19.3545C562.883 19.4708 560.973 20.4001 560.453 20.8069C565.255 7.56023 582.901 12.7309 584.579 24.6994C584.926 28.0693 584.753 31.0904 582.034 35.389Z" fill="#C4C4C4"/>
<path fill-rule="evenodd" clip-rule="evenodd" d="M574.628 18.309C575.496 18.6573 576.19 19.2967 576.884 19.9939C564.272 17.1471 558.833 24.6415 558.775 30.7421C558.717 37.7713 564.908 45.3242 573.413 43.1752C573.47 43.1752 573.875 43.0589 574.107 42.942C575.032 42.8257 575.785 42.7678 576.421 42.6515C576.305 42.7105 576.189 42.8257 576.189 42.8257C565.197 49.3324 554.551 40.0951 555.015 30.1611C556.056 21.7368 564.387 15.0553 574.628 18.309Z" fill="#C4C4C4"/>
<path fill-rule="evenodd" clip-rule="evenodd" d="M562.536 38.8746C562.304 38.7005 560.626 36.3194 560.279 34.3428C566.123 39.8039 572.429 40.7922 577.231 39.3977C577.579 40.6175 577.926 41.4304 577.521 42.7671C570.694 44.3358 565.949 41.8963 562.536 38.8746Z" fill="#828282"/>
<mask id="mask0" mask-type="alpha" maskUnits="userSpaceOnUse" x="744" y="5" width="48" height="48">
<path d="M768 53C781.255 53 792 42.2548 792 29C792 15.7452 781.255 5 768 5C754.745 5 744 15.7452 744 29C744 42.2548 754.745 53 768 53Z" fill="white"/>
</mask>
<g mask="url(#mask0)">
<path d="M768 53C781.255 53 792 42.2548 792 29C792 15.7452 781.255 5 768 5C754.745 5 744 15.7452 744 29C744 42.2548 754.745 53 768 53Z" fill="#C4C4C4"/>
<path d="M751.259 38.1363L771.385 53.107L820.886 56.2203L782.954 21.1107V29.1147L779.415 26.5803L772.829 21.1107L768.909 27.5013L763.398 22.9L753.707 22.2856L751.259 38.1365L751.259 38.1363Z" fill="#828282"/>
<path d="M766.282 29.5924C766.282 24.5053 763.155 21.0559 757.199 21.0559H751.318V38.1784H757.324C763.106 38.1784 766.282 34.6796 766.282 29.5924ZM762.014 29.6171C762.014 33.2899 760.128 34.878 757.1 34.878H755.562V24.3564H757.1C760.004 24.3564 762.014 26.019 762.014 29.6171ZM783.181 38.1784V21.0559H779.235V30.6347L772.932 21.0557H768.813V38.1782H772.759V27.9294L779.508 38.1782H783.181V38.1784Z" fill="white"/>
</g>
<path d="M933.347 12.001H874.107C872.398 12.001 871 13.3903 871 15.0889V42.9133C871 44.6116 872.398 46 874.107 46L933.347 45.9962V12.001Z" fill="#828282"/>
<path opacity="0.8" d="M933.347 12.7157H873.444C873.444 12.7157 874.753 19.7297 883.014 25.6107C883.014 25.6107 887.243 28.7752 889.997 28.7467H933.346V12.7157H933.347Z" fill="#DADADA"/>
<path d="M933.348 45.994L1077.89 45.9914C1079.6 45.9914 1081 44.603 1081 42.9051V15.088C1081 13.3893 1079.6 12 1077.89 12H933.348V45.994Z" fill="#A4A1A1"/>
<path opacity="0.8" d="M933.348 12.7157H1078.54C1078.54 12.7157 1077.23 19.7297 1068.97 25.6107C1068.97 25.6107 1064.74 28.7752 1062.96 28.7467H933.348L933.348 12.7157Z" fill="#E3E8ED"/>
<path d="M912.176 43.5749C912.583 43.7828 913.409 44.0293 914.444 44.0577C916.227 44.0951 917.197 43.4173 917.917 41.8299L927.472 20.6468C927.078 20.4382 926.2 20.204 925.492 20.1904C924.26 20.1645 922.609 20.4122 921.561 22.9141L918.474 30.1687L912.405 20.3468C912.011 20.2295 911.055 20.0599 910.359 20.0599C908.211 20.0599 907.018 20.8411 905.773 22.1836L899.876 28.5937L904.62 36.0178C905.498 37.3727 906.652 38.0633 908.526 38.0633C909.758 38.0633 910.78 37.7781 911.251 37.5563L905.537 28.997L909.587 24.7237L916.232 35.093L912.183 43.5749H912.176ZM899.642 35.5618C899.642 37.1249 899.026 38.0254 895.959 38.0254C895.553 38.0254 895.2 37.9978 894.858 37.9456V17.2333C894.858 15.657 895.395 14.0149 898.488 14.0149C898.882 14.0149 899.275 14.0548 899.642 14.1322V35.5618ZM893.316 32.436C893.316 35.3535 891.403 37.4768 887.51 37.8946C884.692 38.195 880.617 37.8423 878.677 37.6209C878.611 37.3076 878.559 36.9179 878.559 36.6043C878.559 34.0633 879.935 33.4785 881.232 33.4785C882.582 33.4785 884.706 33.7122 886.279 33.7122C888.021 33.7122 888.545 33.1253 888.545 32.5665C888.545 31.8359 887.852 31.538 886.501 31.2766L882.805 30.5733C879.738 29.9859 878.101 27.8763 878.101 25.6353C878.101 22.9137 880.04 20.6332 883.854 20.2167C886.737 19.9035 890.249 20.255 892.177 20.4896C892.241 20.8156 892.281 21.1275 892.281 21.4666C892.281 24.0072 890.931 24.5542 889.633 24.5542C888.637 24.5542 887.092 24.3719 885.322 24.3719C883.526 24.3719 882.78 24.8674 882.78 25.4658C882.78 26.1041 883.486 26.3642 884.615 26.5597L888.14 27.2116C891.757 27.8755 893.316 29.9209 893.316 32.436ZM960.454 33.8461C960.454 30.1997 958.066 28.4262 954.262 27.5903L947.599 26.0863C946.388 25.8185 945.378 25.4496 945.378 24.2461C945.378 22.9413 946.422 22.4399 949.214 22.4399C952.513 22.4399 953.287 22.6069 956.282 22.6069C957.662 22.6069 959.074 21.9707 959.074 19.2618C959.074 18.9265 959.042 18.5584 958.975 18.224C956.955 18.0574 953.354 17.8564 948.913 17.8564C942.216 17.8564 939.658 20.7335 939.658 24.4127C939.658 27.858 941.846 29.7667 945.716 30.6689L952.378 32.2069C953.927 32.5733 954.768 33.2435 954.768 34.2142C954.768 35.5189 953.591 36.0212 950.798 36.0212C947.501 36.0212 945.986 35.7879 942.99 35.7879C941.61 35.7879 940.197 36.4215 940.197 39.1317C940.197 39.4662 940.231 39.8333 940.298 40.1687C942.318 40.368 946.658 40.6034 951.1 40.6034C957.799 40.6026 960.459 37.7598 960.459 33.8461H960.454ZM1015.44 27.9588V22.3731H1020.72C1022.98 22.3731 1024.76 22.7063 1024.76 25.048C1024.76 27.0204 1023.42 27.9588 1020.72 27.9588H1015.44H1015.44ZM1015.41 32.3735H1018.2L1023.59 38.7624C1024.6 39.9999 1025.57 40.6362 1027.86 40.6362C1029.41 40.6362 1030.45 40.436 1031.29 40.0331L1024.29 31.9732C1028.23 31.1372 1030.21 28.5933 1030.21 24.8474C1030.21 20.2312 1027.38 17.9567 1021.66 17.9567L1013.49 17.9239C1010.83 18.0238 1009.95 18.9265 1009.95 21.3353V40.269C1010.36 40.3353 1010.83 40.3671 1011.3 40.3671C1014.66 40.3671 1015.44 39.399 1015.44 37.6591L1015.41 32.3731H1015.41V32.3735ZM968.359 28.561V22.4059H973.844C976.571 22.4059 977.918 23.4093 977.918 25.3838C977.918 27.4917 976.571 28.5614 973.844 28.5614L968.359 28.561ZM962.874 40.2694C963.278 40.3361 963.75 40.368 964.219 40.368C967.586 40.368 968.359 39.4003 968.359 37.66V33.0769H974.08C980.306 33.0769 983.401 30.4016 983.401 25.3838C983.401 20.5329 980.305 17.9571 974.45 17.9571H966.407C963.715 17.9571 962.874 18.9941 962.874 21.3689V40.2694ZM1001.61 28.8287C1001.61 31.4058 1001.17 33.2095 1000.3 34.2813C999.456 35.3846 998.075 35.8869 996.191 35.8869C994.272 35.8525 992.895 35.3183 992.018 34.2813C991.145 33.2448 990.706 31.4386 990.706 28.8287C990.706 26.2533 991.178 24.4471 992.052 23.4097C992.927 22.3391 994.306 21.8377 996.19 21.8377C998.075 21.8377 999.421 22.3391 1000.3 23.4097C1001.17 24.4471 1001.61 26.2533 1001.61 28.8287ZM996.188 40.3361C999.721 40.3361 1002.45 39.5002 1004.37 37.7943C1006.28 36.1207 1007.26 33.11 1007.26 28.8291C1007.23 24.6154 1006.25 21.6706 1004.27 19.9307C1002.28 18.2244 999.588 17.3557 996.187 17.3557C992.789 17.3557 990.096 18.2244 988.111 19.9307C986.126 21.6706 985.149 24.6149 985.115 28.8291C985.115 33.11 986.091 36.1211 988.01 37.7943C989.929 39.5006 992.657 40.3361 996.189 40.3361H996.188ZM1044.68 22.5406H1049.09C1050.54 22.5406 1052.02 21.8712 1052.02 19.0264C1052.02 18.6932 1051.99 18.2911 1051.92 17.9571H1034.79C1033.34 17.9571 1031.86 18.6264 1031.86 21.4688C1031.86 21.8045 1031.9 22.2044 1031.97 22.5406H1039.2V40.269C1039.6 40.3353 1040.07 40.3671 1040.55 40.3671C1043.91 40.3671 1044.68 39.399 1044.68 37.6591V22.5406ZM1073.52 33.8461C1073.52 30.1997 1071.13 28.4262 1067.33 27.5903L1060.67 26.0863C1059.45 25.8185 1058.44 25.4496 1058.44 24.2461C1058.44 22.9413 1059.49 22.4399 1062.28 22.4399C1065.58 22.4399 1066.35 22.6069 1069.35 22.6069C1070.73 22.6069 1072.14 21.9707 1072.14 19.2618C1072.14 18.9265 1072.11 18.5584 1072.04 18.224C1070.02 18.0574 1066.42 17.8564 1061.98 17.8564C1055.28 17.8564 1052.72 20.7335 1052.72 24.4127C1052.72 27.858 1054.91 29.7667 1058.78 30.6689L1065.44 32.2069C1066.99 32.5733 1067.83 33.2435 1067.83 34.2142C1067.83 35.5189 1066.66 36.0212 1063.86 36.0212C1060.57 36.0212 1059.05 35.7879 1056.05 35.7879C1054.67 35.7879 1053.26 36.4215 1053.26 39.1317C1053.26 39.4662 1053.3 39.8333 1053.36 40.1687C1055.38 40.368 1059.72 40.6034 1064.17 40.6034C1070.87 40.6026 1073.53 37.7598 1073.53 33.8461H1073.52Z" fill="white"/>
</svg>
