<svg width="134" height="161" viewBox="0 0 134 161" fill="none" xmlns="http://www.w3.org/2000/svg">
<rect x="-174.5" y="0.5" width="308" height="160" rx="3.5" fill="white" stroke="#828282"/>
<path d="M-155.361 77H-156.719V66.969H-155.361V77ZM-143.676 69.909V77H-144.418C-144.595 77 -144.707 76.9137 -144.754 76.741L-144.852 75.978C-145.16 76.3187 -145.505 76.594 -145.888 76.804C-146.271 77.0093 -146.709 77.112 -147.204 77.112C-147.591 77.112 -147.934 77.049 -148.233 76.923C-148.527 76.7923 -148.774 76.6103 -148.975 76.377C-149.176 76.1437 -149.327 75.8613 -149.43 75.53C-149.528 75.1987 -149.577 74.8323 -149.577 74.431V69.909H-148.331V74.431C-148.331 74.9677 -148.21 75.383 -147.967 75.677C-147.72 75.971 -147.344 76.118 -146.84 76.118C-146.471 76.118 -146.128 76.0317 -145.811 75.859C-145.489 75.6817 -145.193 75.439 -144.922 75.131V69.909H-143.676ZM-137.57 71.078C-137.626 71.1807 -137.713 71.232 -137.829 71.232C-137.899 71.232 -137.979 71.2063 -138.067 71.155C-138.156 71.1037 -138.266 71.0477 -138.396 70.987C-138.522 70.9217 -138.674 70.8633 -138.851 70.812C-139.029 70.756 -139.239 70.728 -139.481 70.728C-139.691 70.728 -139.88 70.756 -140.048 70.812C-140.216 70.8633 -140.361 70.9357 -140.482 71.029C-140.599 71.1223 -140.69 71.232 -140.755 71.358C-140.816 71.4793 -140.846 71.6123 -140.846 71.757C-140.846 71.939 -140.795 72.0907 -140.692 72.212C-140.585 72.3333 -140.445 72.4383 -140.272 72.527C-140.1 72.6157 -139.904 72.695 -139.684 72.765C-139.465 72.8303 -139.241 72.9027 -139.012 72.982C-138.779 73.0567 -138.553 73.1407 -138.333 73.234C-138.114 73.3273 -137.918 73.444 -137.745 73.584C-137.573 73.724 -137.435 73.8967 -137.332 74.102C-137.225 74.3027 -137.171 74.5453 -137.171 74.83C-137.171 75.1567 -137.23 75.46 -137.346 75.74C-137.463 76.0153 -137.636 76.2557 -137.864 76.461C-138.093 76.6617 -138.373 76.8203 -138.704 76.937C-139.036 77.0537 -139.418 77.112 -139.852 77.112C-140.347 77.112 -140.795 77.0327 -141.196 76.874C-141.598 76.7107 -141.938 76.503 -142.218 76.251L-141.924 75.775C-141.887 75.7143 -141.843 75.6677 -141.791 75.635C-141.74 75.6023 -141.675 75.586 -141.595 75.586C-141.511 75.586 -141.423 75.6187 -141.329 75.684C-141.236 75.7493 -141.124 75.8217 -140.993 75.901C-140.858 75.9803 -140.695 76.0527 -140.503 76.118C-140.312 76.1833 -140.074 76.216 -139.789 76.216C-139.547 76.216 -139.334 76.1857 -139.153 76.125C-138.97 76.0597 -138.819 75.9733 -138.697 75.866C-138.576 75.7587 -138.487 75.635 -138.431 75.495C-138.371 75.355 -138.34 75.2057 -138.34 75.047C-138.34 74.851 -138.394 74.69 -138.501 74.564C-138.604 74.4333 -138.742 74.3237 -138.914 74.235C-139.087 74.1417 -139.285 74.0623 -139.509 73.997C-139.729 73.927 -139.955 73.8547 -140.188 73.78C-140.417 73.7053 -140.643 73.6213 -140.867 73.528C-141.087 73.43 -141.283 73.3087 -141.455 73.164C-141.628 73.0193 -141.768 72.842 -141.875 72.632C-141.978 72.4173 -142.029 72.1583 -142.029 71.855C-142.029 71.5843 -141.973 71.3253 -141.861 71.078C-141.749 70.826 -141.586 70.6067 -141.371 70.42C-141.157 70.2287 -140.893 70.077 -140.58 69.965C-140.268 69.853 -139.911 69.797 -139.509 69.797C-139.043 69.797 -138.625 69.8717 -138.256 70.021C-137.883 70.1657 -137.561 70.3663 -137.29 70.623L-137.57 71.078ZM-130.898 72.681C-130.898 72.3917 -130.94 72.128 -131.024 71.89C-131.103 71.6473 -131.222 71.4397 -131.381 71.267C-131.535 71.0897 -131.724 70.9543 -131.948 70.861C-132.172 70.763 -132.426 70.714 -132.711 70.714C-133.308 70.714 -133.782 70.889 -134.132 71.239C-134.477 71.5843 -134.692 72.065 -134.776 72.681H-130.898ZM-129.89 76.006C-130.044 76.1927 -130.228 76.356 -130.443 76.496C-130.658 76.6313 -130.889 76.7433 -131.136 76.832C-131.379 76.9207 -131.631 76.986 -131.892 77.028C-132.153 77.0747 -132.412 77.098 -132.669 77.098C-133.159 77.098 -133.612 77.0163 -134.027 76.853C-134.438 76.685 -134.795 76.4423 -135.098 76.125C-135.397 75.803 -135.63 75.4063 -135.798 74.935C-135.966 74.4637 -136.05 73.9223 -136.05 73.311C-136.05 72.8163 -135.975 72.3543 -135.826 71.925C-135.672 71.4957 -135.453 71.1247 -135.168 70.812C-134.883 70.4947 -134.536 70.2473 -134.125 70.07C-133.714 69.888 -133.252 69.797 -132.739 69.797C-132.314 69.797 -131.922 69.8693 -131.563 70.014C-131.199 70.154 -130.886 70.3593 -130.625 70.63C-130.359 70.896 -130.151 71.2273 -130.002 71.624C-129.853 72.016 -129.778 72.464 -129.778 72.968C-129.778 73.164 -129.799 73.2947 -129.841 73.36C-129.883 73.4253 -129.962 73.458 -130.079 73.458H-134.818C-134.804 73.906 -134.743 74.2957 -134.636 74.627C-134.524 74.9583 -134.37 75.236 -134.174 75.46C-133.978 75.6793 -133.745 75.845 -133.474 75.957C-133.203 76.0643 -132.9 76.118 -132.564 76.118C-132.251 76.118 -131.983 76.083 -131.759 76.013C-131.53 75.9383 -131.334 75.859 -131.171 75.775C-131.008 75.691 -130.872 75.614 -130.765 75.544C-130.653 75.4693 -130.557 75.432 -130.478 75.432C-130.375 75.432 -130.296 75.4717 -130.24 75.551L-129.89 76.006ZM-122.488 77.112C-123.048 77.112 -123.48 76.9557 -123.783 76.643C-124.082 76.3303 -124.231 75.88 -124.231 75.292V70.952H-125.085C-125.16 70.952 -125.223 70.931 -125.274 70.889C-125.326 70.8423 -125.351 70.7723 -125.351 70.679V70.182L-124.189 70.035L-123.902 67.844C-123.888 67.774 -123.858 67.718 -123.811 67.676C-123.76 67.6293 -123.695 67.606 -123.615 67.606H-122.985V70.049H-120.934V70.952H-122.985V75.208C-122.985 75.5067 -122.913 75.7283 -122.768 75.873C-122.624 76.0177 -122.437 76.09 -122.208 76.09C-122.078 76.09 -121.966 76.0737 -121.872 76.041C-121.774 76.0037 -121.69 75.964 -121.62 75.922C-121.55 75.88 -121.492 75.8427 -121.445 75.81C-121.394 75.7727 -121.35 75.754 -121.312 75.754C-121.247 75.754 -121.189 75.7937 -121.137 75.873L-120.773 76.468C-120.988 76.6687 -121.247 76.8273 -121.55 76.944C-121.854 77.056 -122.166 77.112 -122.488 77.112ZM-118.395 70.854C-118.091 70.532 -117.755 70.2753 -117.387 70.084C-117.018 69.8927 -116.593 69.797 -116.113 69.797C-115.725 69.797 -115.385 69.8623 -115.091 69.993C-114.792 70.119 -114.545 70.301 -114.349 70.539C-114.148 70.7723 -113.996 71.0547 -113.894 71.386C-113.791 71.7173 -113.74 72.0837 -113.74 72.485V77H-114.993V72.485C-114.993 71.9483 -115.116 71.533 -115.364 71.239C-115.606 70.9403 -115.977 70.791 -116.477 70.791C-116.845 70.791 -117.191 70.8797 -117.513 71.057C-117.83 71.2343 -118.124 71.4747 -118.395 71.778V77H-119.648V66.689H-118.395V70.854ZM-110.525 69.909V77H-111.771V69.909H-110.525ZM-110.259 67.683C-110.259 67.8043 -110.285 67.9187 -110.336 68.026C-110.383 68.1287 -110.448 68.222 -110.532 68.306C-110.611 68.3853 -110.707 68.4483 -110.819 68.495C-110.926 68.5417 -111.041 68.565 -111.162 68.565C-111.283 68.565 -111.398 68.5417 -111.505 68.495C-111.608 68.4483 -111.699 68.3853 -111.778 68.306C-111.857 68.222 -111.92 68.1287 -111.967 68.026C-112.014 67.9187 -112.037 67.8043 -112.037 67.683C-112.037 67.5617 -112.014 67.4473 -111.967 67.34C-111.92 67.228 -111.857 67.1323 -111.778 67.053C-111.699 66.969 -111.608 66.9037 -111.505 66.857C-111.398 66.8103 -111.283 66.787 -111.162 66.787C-111.041 66.787 -110.926 66.8103 -110.819 66.857C-110.707 66.9037 -110.611 66.969 -110.532 67.053C-110.448 67.1323 -110.383 67.228 -110.336 67.34C-110.285 67.4473 -110.259 67.5617 -110.259 67.683ZM-104.348 71.078C-104.404 71.1807 -104.49 71.232 -104.607 71.232C-104.677 71.232 -104.756 71.2063 -104.845 71.155C-104.934 71.1037 -105.043 71.0477 -105.174 70.987C-105.3 70.9217 -105.452 70.8633 -105.629 70.812C-105.806 70.756 -106.016 70.728 -106.259 70.728C-106.469 70.728 -106.658 70.756 -106.826 70.812C-106.994 70.8633 -107.139 70.9357 -107.26 71.029C-107.377 71.1223 -107.468 71.232 -107.533 71.358C-107.594 71.4793 -107.624 71.6123 -107.624 71.757C-107.624 71.939 -107.573 72.0907 -107.47 72.212C-107.363 72.3333 -107.223 72.4383 -107.05 72.527C-106.877 72.6157 -106.681 72.695 -106.462 72.765C-106.243 72.8303 -106.019 72.9027 -105.79 72.982C-105.557 73.0567 -105.33 73.1407 -105.111 73.234C-104.892 73.3273 -104.696 73.444 -104.523 73.584C-104.35 73.724 -104.213 73.8967 -104.11 74.102C-104.003 74.3027 -103.949 74.5453 -103.949 74.83C-103.949 75.1567 -104.007 75.46 -104.124 75.74C-104.241 76.0153 -104.413 76.2557 -104.642 76.461C-104.871 76.6617 -105.151 76.8203 -105.482 76.937C-105.813 77.0537 -106.196 77.112 -106.63 77.112C-107.125 77.112 -107.573 77.0327 -107.974 76.874C-108.375 76.7107 -108.716 76.503 -108.996 76.251L-108.702 75.775C-108.665 75.7143 -108.62 75.6677 -108.569 75.635C-108.518 75.6023 -108.452 75.586 -108.373 75.586C-108.289 75.586 -108.2 75.6187 -108.107 75.684C-108.014 75.7493 -107.902 75.8217 -107.771 75.901C-107.636 75.9803 -107.472 76.0527 -107.281 76.118C-107.09 76.1833 -106.852 76.216 -106.567 76.216C-106.324 76.216 -106.112 76.1857 -105.93 76.125C-105.748 76.0597 -105.596 75.9733 -105.475 75.866C-105.354 75.7587 -105.265 75.635 -105.209 75.495C-105.148 75.355 -105.118 75.2057 -105.118 75.047C-105.118 74.851 -105.172 74.69 -105.279 74.564C-105.382 74.4333 -105.519 74.3237 -105.692 74.235C-105.865 74.1417 -106.063 74.0623 -106.287 73.997C-106.506 73.927 -106.733 73.8547 -106.966 73.78C-107.195 73.7053 -107.421 73.6213 -107.645 73.528C-107.864 73.43 -108.06 73.3087 -108.233 73.164C-108.406 73.0193 -108.546 72.842 -108.653 72.632C-108.756 72.4173 -108.807 72.1583 -108.807 71.855C-108.807 71.5843 -108.751 71.3253 -108.639 71.078C-108.527 70.826 -108.364 70.6067 -108.149 70.42C-107.934 70.2287 -107.671 70.077 -107.358 69.965C-107.045 69.853 -106.688 69.797 -106.287 69.797C-105.82 69.797 -105.403 69.8717 -105.034 70.021C-104.661 70.1657 -104.339 70.3663 -104.068 70.623L-104.348 71.078ZM-94.9962 73.808C-95.5702 73.8267 -96.0602 73.8733 -96.4662 73.948C-96.8675 74.018 -97.1965 74.1113 -97.4532 74.228C-97.7052 74.3447 -97.8895 74.4823 -98.0062 74.641C-98.1182 74.7997 -98.1742 74.977 -98.1742 75.173C-98.1742 75.3597 -98.1438 75.5207 -98.0832 75.656C-98.0225 75.7913 -97.9408 75.9033 -97.8382 75.992C-97.7308 76.076 -97.6072 76.139 -97.4672 76.181C-97.3225 76.2183 -97.1685 76.237 -97.0052 76.237C-96.7858 76.237 -96.5852 76.216 -96.4032 76.174C-96.2212 76.1273 -96.0508 76.062 -95.8922 75.978C-95.7288 75.894 -95.5748 75.7937 -95.4302 75.677C-95.2808 75.5603 -95.1362 75.4273 -94.9962 75.278V73.808ZM-99.0212 70.91C-98.6292 70.532 -98.2068 70.2497 -97.7542 70.063C-97.3015 69.8763 -96.7998 69.783 -96.2492 69.783C-95.8525 69.783 -95.5002 69.8483 -95.1922 69.979C-94.8842 70.1097 -94.6252 70.2917 -94.4152 70.525C-94.2052 70.7583 -94.0465 71.0407 -93.9392 71.372C-93.8318 71.7033 -93.7782 72.0673 -93.7782 72.464V77H-94.3312C-94.4525 77 -94.5458 76.9813 -94.6112 76.944C-94.6765 76.902 -94.7278 76.8227 -94.7652 76.706L-94.9052 76.034C-95.0918 76.2067 -95.2738 76.3607 -95.4512 76.496C-95.6285 76.6267 -95.8152 76.7387 -96.0112 76.832C-96.2072 76.9207 -96.4172 76.9883 -96.6412 77.035C-96.8605 77.0863 -97.1055 77.112 -97.3762 77.112C-97.6515 77.112 -97.9105 77.0747 -98.1532 77C-98.3958 76.9207 -98.6082 76.804 -98.7902 76.65C-98.9675 76.496 -99.1098 76.3023 -99.2172 76.069C-99.3198 75.831 -99.3712 75.551 -99.3712 75.229C-99.3712 74.949 -99.2942 74.6807 -99.1402 74.424C-98.9862 74.1627 -98.7365 73.9317 -98.3912 73.731C-98.0458 73.5303 -97.5955 73.367 -97.0402 73.241C-96.4848 73.1103 -95.8035 73.0357 -94.9962 73.017V72.464C-94.9962 71.9133 -95.1152 71.498 -95.3532 71.218C-95.5912 70.9333 -95.9388 70.791 -96.3962 70.791C-96.7042 70.791 -96.9632 70.8307 -97.1732 70.91C-97.3785 70.9847 -97.5582 71.071 -97.7122 71.169C-97.8615 71.2623 -97.9922 71.3487 -98.1042 71.428C-98.2115 71.5027 -98.3188 71.54 -98.4262 71.54C-98.5102 71.54 -98.5825 71.519 -98.6432 71.477C-98.7038 71.4303 -98.7552 71.3743 -98.7972 71.309L-99.0212 70.91ZM-90.6272 75.292C-90.3985 75.6 -90.1489 75.817 -89.8782 75.943C-89.6075 76.069 -89.3042 76.132 -88.9682 76.132C-88.3055 76.132 -87.7969 75.8963 -87.4422 75.425C-87.0875 74.9537 -86.9102 74.2817 -86.9102 73.409C-86.9102 72.947 -86.9522 72.5503 -87.0362 72.219C-87.1155 71.8877 -87.2322 71.617 -87.3862 71.407C-87.5402 71.1923 -87.7292 71.036 -87.9532 70.938C-88.1772 70.84 -88.4315 70.791 -88.7162 70.791C-89.1222 70.791 -89.4792 70.8843 -89.7872 71.071C-90.0905 71.2577 -90.3705 71.5213 -90.6272 71.862V75.292ZM-90.6902 71.008C-90.3915 70.6393 -90.0462 70.343 -89.6542 70.119C-89.2622 69.895 -88.8142 69.783 -88.3102 69.783C-87.8995 69.783 -87.5285 69.8623 -87.1972 70.021C-86.8659 70.175 -86.5835 70.406 -86.3502 70.714C-86.1169 71.0173 -85.9372 71.3953 -85.8112 71.848C-85.6852 72.3007 -85.6222 72.821 -85.6222 73.409C-85.6222 73.9317 -85.6922 74.4193 -85.8322 74.872C-85.9722 75.32 -86.1752 75.7097 -86.4412 76.041C-86.7025 76.3677 -87.0245 76.6267 -87.4072 76.818C-87.7852 77.0047 -88.2122 77.098 -88.6882 77.098C-89.1222 77.098 -89.4955 77.0257 -89.8082 76.881C-90.1162 76.7317 -90.3892 76.5263 -90.6272 76.265V79.401H-91.8802V69.909H-91.1312C-90.9539 69.909 -90.8442 69.9953 -90.8022 70.168L-90.6902 71.008ZM-82.7795 75.292C-82.5509 75.6 -82.3012 75.817 -82.0305 75.943C-81.7599 76.069 -81.4565 76.132 -81.1205 76.132C-80.4579 76.132 -79.9492 75.8963 -79.5945 75.425C-79.2399 74.9537 -79.0625 74.2817 -79.0625 73.409C-79.0625 72.947 -79.1045 72.5503 -79.1885 72.219C-79.2679 71.8877 -79.3845 71.617 -79.5385 71.407C-79.6925 71.1923 -79.8815 71.036 -80.1055 70.938C-80.3295 70.84 -80.5839 70.791 -80.8685 70.791C-81.2745 70.791 -81.6315 70.8843 -81.9395 71.071C-82.2429 71.2577 -82.5229 71.5213 -82.7795 71.862V75.292ZM-82.8425 71.008C-82.5439 70.6393 -82.1985 70.343 -81.8065 70.119C-81.4145 69.895 -80.9665 69.783 -80.4625 69.783C-80.0519 69.783 -79.6809 69.8623 -79.3495 70.021C-79.0182 70.175 -78.7359 70.406 -78.5025 70.714C-78.2692 71.0173 -78.0895 71.3953 -77.9635 71.848C-77.8375 72.3007 -77.7745 72.821 -77.7745 73.409C-77.7745 73.9317 -77.8445 74.4193 -77.9845 74.872C-78.1245 75.32 -78.3275 75.7097 -78.5935 76.041C-78.8549 76.3677 -79.1769 76.6267 -79.5595 76.818C-79.9375 77.0047 -80.3645 77.098 -80.8405 77.098C-81.2745 77.098 -81.6479 77.0257 -81.9605 76.881C-82.2685 76.7317 -82.5415 76.5263 -82.7795 76.265V79.401H-84.0325V69.909H-83.2835C-83.1062 69.909 -82.9965 69.9953 -82.9545 70.168L-82.8425 71.008ZM-67.8568 72.681C-67.8568 72.3917 -67.8988 72.128 -67.9828 71.89C-68.0622 71.6473 -68.1812 71.4397 -68.3398 71.267C-68.4938 71.0897 -68.6828 70.9543 -68.9068 70.861C-69.1308 70.763 -69.3852 70.714 -69.6698 70.714C-70.2672 70.714 -70.7408 70.889 -71.0908 71.239C-71.4362 71.5843 -71.6508 72.065 -71.7348 72.681H-67.8568ZM-66.8488 76.006C-67.0028 76.1927 -67.1872 76.356 -67.4018 76.496C-67.6165 76.6313 -67.8475 76.7433 -68.0948 76.832C-68.3375 76.9207 -68.5895 76.986 -68.8508 77.028C-69.1122 77.0747 -69.3712 77.098 -69.6278 77.098C-70.1178 77.098 -70.5705 77.0163 -70.9858 76.853C-71.3965 76.685 -71.7535 76.4423 -72.0568 76.125C-72.3555 75.803 -72.5888 75.4063 -72.7568 74.935C-72.9248 74.4637 -73.0088 73.9223 -73.0088 73.311C-73.0088 72.8163 -72.9342 72.3543 -72.7848 71.925C-72.6308 71.4957 -72.4115 71.1247 -72.1268 70.812C-71.8422 70.4947 -71.4945 70.2473 -71.0838 70.07C-70.6732 69.888 -70.2112 69.797 -69.6978 69.797C-69.2732 69.797 -68.8812 69.8693 -68.5218 70.014C-68.1578 70.154 -67.8452 70.3593 -67.5838 70.63C-67.3178 70.896 -67.1102 71.2273 -66.9608 71.624C-66.8115 72.016 -66.7368 72.464 -66.7368 72.968C-66.7368 73.164 -66.7578 73.2947 -66.7998 73.36C-66.8418 73.4253 -66.9212 73.458 -67.0378 73.458H-71.7768C-71.7628 73.906 -71.7022 74.2957 -71.5948 74.627C-71.4828 74.9583 -71.3288 75.236 -71.1328 75.46C-70.9368 75.6793 -70.7035 75.845 -70.4328 75.957C-70.1622 76.0643 -69.8588 76.118 -69.5228 76.118C-69.2102 76.118 -68.9418 76.083 -68.7178 76.013C-68.4892 75.9383 -68.2932 75.859 -68.1298 75.775C-67.9665 75.691 -67.8312 75.614 -67.7238 75.544C-67.6118 75.4693 -67.5162 75.432 -67.4368 75.432C-67.3342 75.432 -67.2548 75.4717 -67.1988 75.551L-66.8488 76.006ZM-59.2807 69.909L-62.1717 77H-63.2917L-66.1827 69.909H-65.1677C-65.0651 69.909 -64.9811 69.9347 -64.9157 69.986C-64.8504 70.0373 -64.8061 70.098 -64.7827 70.168L-62.9837 74.732C-62.9277 74.9047 -62.8787 75.0727 -62.8367 75.236C-62.7947 75.3993 -62.7551 75.5627 -62.7177 75.726C-62.6804 75.5627 -62.6407 75.3993 -62.5987 75.236C-62.5567 75.0727 -62.5054 74.9047 -62.4447 74.732L-60.6247 70.168C-60.5967 70.0933 -60.5501 70.0327 -60.4847 69.986C-60.4194 69.9347 -60.3424 69.909 -60.2537 69.909H-59.2807ZM-53.5834 72.681C-53.5834 72.3917 -53.6254 72.128 -53.7094 71.89C-53.7887 71.6473 -53.9077 71.4397 -54.0664 71.267C-54.2204 71.0897 -54.4094 70.9543 -54.6334 70.861C-54.8574 70.763 -55.1117 70.714 -55.3964 70.714C-55.9937 70.714 -56.4674 70.889 -56.8174 71.239C-57.1627 71.5843 -57.3774 72.065 -57.4614 72.681H-53.5834ZM-52.5754 76.006C-52.7294 76.1927 -52.9137 76.356 -53.1284 76.496C-53.3431 76.6313 -53.5741 76.7433 -53.8214 76.832C-54.0641 76.9207 -54.3161 76.986 -54.5774 77.028C-54.8387 77.0747 -55.0977 77.098 -55.3544 77.098C-55.8444 77.098 -56.2971 77.0163 -56.7124 76.853C-57.1231 76.685 -57.4801 76.4423 -57.7834 76.125C-58.0821 75.803 -58.3154 75.4063 -58.4834 74.935C-58.6514 74.4637 -58.7354 73.9223 -58.7354 73.311C-58.7354 72.8163 -58.6607 72.3543 -58.5114 71.925C-58.3574 71.4957 -58.1381 71.1247 -57.8534 70.812C-57.5687 70.4947 -57.2211 70.2473 -56.8104 70.07C-56.3997 69.888 -55.9377 69.797 -55.4244 69.797C-54.9997 69.797 -54.6077 69.8693 -54.2484 70.014C-53.8844 70.154 -53.5717 70.3593 -53.3104 70.63C-53.0444 70.896 -52.8367 71.2273 -52.6874 71.624C-52.5381 72.016 -52.4634 72.464 -52.4634 72.968C-52.4634 73.164 -52.4844 73.2947 -52.5264 73.36C-52.5684 73.4253 -52.6477 73.458 -52.7644 73.458H-57.5034C-57.4894 73.906 -57.4287 74.2957 -57.3214 74.627C-57.2094 74.9583 -57.0554 75.236 -56.8594 75.46C-56.6634 75.6793 -56.4301 75.845 -56.1594 75.957C-55.8887 76.0643 -55.5854 76.118 -55.2494 76.118C-54.9367 76.118 -54.6684 76.083 -54.4444 76.013C-54.2157 75.9383 -54.0197 75.859 -53.8564 75.775C-53.6931 75.691 -53.5577 75.614 -53.4504 75.544C-53.3384 75.4693 -53.2427 75.432 -53.1634 75.432C-53.0607 75.432 -52.9814 75.4717 -52.9254 75.551L-52.5754 76.006ZM-49.7499 71.33C-49.5259 70.8447 -49.2506 70.4667 -48.9239 70.196C-48.5973 69.9207 -48.1983 69.783 -47.7269 69.783C-47.5776 69.783 -47.4353 69.7993 -47.2999 69.832C-47.1599 69.8647 -47.0363 69.916 -46.9289 69.986L-47.0199 70.917C-47.0479 71.0337 -47.1179 71.092 -47.2299 71.092C-47.2953 71.092 -47.3909 71.078 -47.5169 71.05C-47.6429 71.022 -47.7853 71.008 -47.9439 71.008C-48.1679 71.008 -48.3686 71.0407 -48.5459 71.106C-48.7186 71.1713 -48.8749 71.2693 -49.0149 71.4C-49.1503 71.526 -49.2739 71.6847 -49.3859 71.876C-49.4933 72.0627 -49.5913 72.2773 -49.6799 72.52V77H-50.9329V69.909H-50.2189C-50.0836 69.909 -49.9903 69.9347 -49.9389 69.986C-49.8876 70.0373 -49.8526 70.126 -49.8339 70.252L-49.7499 71.33ZM-39.7153 69.909L-43.6703 79.093C-43.7123 79.1863 -43.766 79.261 -43.8313 79.317C-43.892 79.373 -43.9876 79.401 -44.1183 79.401H-45.0423L-43.7473 76.587L-46.6733 69.909H-45.5953C-45.488 69.909 -45.404 69.937 -45.3433 69.993C-45.278 70.0443 -45.2336 70.1027 -45.2103 70.168L-43.3133 74.634C-43.2386 74.83 -43.1756 75.0353 -43.1243 75.25C-43.059 75.0307 -42.989 74.823 -42.9143 74.627L-41.0733 70.168C-41.0453 70.0933 -40.9986 70.0327 -40.9333 69.986C-40.8633 69.9347 -40.7863 69.909 -40.7023 69.909H-39.7153ZM-30.7543 71.596C-30.9877 71.2833 -31.2397 71.0663 -31.5103 70.945C-31.781 70.819 -32.0843 70.756 -32.4203 70.756C-33.0783 70.756 -33.5847 70.9917 -33.9393 71.463C-34.294 71.9343 -34.4713 72.6063 -34.4713 73.479C-34.4713 73.941 -34.4317 74.3377 -34.3523 74.669C-34.273 74.9957 -34.1563 75.2663 -34.0023 75.481C-33.8483 75.691 -33.6593 75.845 -33.4353 75.943C-33.2113 76.041 -32.957 76.09 -32.6723 76.09C-32.2617 76.09 -31.9047 75.9967 -31.6013 75.81C-31.2933 75.6233 -31.011 75.3597 -30.7543 75.019V71.596ZM-29.5083 66.689V77H-30.2503C-30.4277 77 -30.5397 76.9137 -30.5863 76.741L-30.6983 75.88C-31.0017 76.244 -31.347 76.538 -31.7343 76.762C-32.1217 76.986 -32.5697 77.098 -33.0783 77.098C-33.4843 77.098 -33.853 77.021 -34.1843 76.867C-34.5157 76.7083 -34.798 76.4773 -35.0313 76.174C-35.2647 75.8707 -35.4443 75.4927 -35.5703 75.04C-35.6963 74.5873 -35.7593 74.067 -35.7593 73.479C-35.7593 72.9563 -35.6893 72.471 -35.5493 72.023C-35.4093 71.5703 -35.2087 71.1783 -34.9473 70.847C-34.686 70.5157 -34.3663 70.2567 -33.9883 70.07C-33.6057 69.8787 -33.1763 69.783 -32.7003 69.783C-32.2663 69.783 -31.8953 69.8577 -31.5873 70.007C-31.2747 70.1517 -30.997 70.3547 -30.7543 70.616V66.689H-29.5083ZM-23.6973 73.808C-24.2713 73.8267 -24.7613 73.8733 -25.1673 73.948C-25.5687 74.018 -25.8977 74.1113 -26.1543 74.228C-26.4063 74.3447 -26.5907 74.4823 -26.7073 74.641C-26.8193 74.7997 -26.8753 74.977 -26.8753 75.173C-26.8753 75.3597 -26.845 75.5207 -26.7843 75.656C-26.7237 75.7913 -26.642 75.9033 -26.5393 75.992C-26.432 76.076 -26.3083 76.139 -26.1683 76.181C-26.0237 76.2183 -25.8697 76.237 -25.7063 76.237C-25.487 76.237 -25.2863 76.216 -25.1043 76.174C-24.9223 76.1273 -24.752 76.062 -24.5933 75.978C-24.43 75.894 -24.276 75.7937 -24.1313 75.677C-23.982 75.5603 -23.8373 75.4273 -23.6973 75.278V73.808ZM-27.7223 70.91C-27.3303 70.532 -26.908 70.2497 -26.4553 70.063C-26.0027 69.8763 -25.501 69.783 -24.9503 69.783C-24.5537 69.783 -24.2013 69.8483 -23.8933 69.979C-23.5853 70.1097 -23.3263 70.2917 -23.1163 70.525C-22.9063 70.7583 -22.7477 71.0407 -22.6403 71.372C-22.533 71.7033 -22.4793 72.0673 -22.4793 72.464V77H-23.0323C-23.1537 77 -23.247 76.9813 -23.3123 76.944C-23.3777 76.902 -23.429 76.8227 -23.4663 76.706L-23.6063 76.034C-23.793 76.2067 -23.975 76.3607 -24.1523 76.496C-24.3297 76.6267 -24.5163 76.7387 -24.7123 76.832C-24.9083 76.9207 -25.1183 76.9883 -25.3423 77.035C-25.5617 77.0863 -25.8067 77.112 -26.0773 77.112C-26.3527 77.112 -26.6117 77.0747 -26.8543 77C-27.097 76.9207 -27.3093 76.804 -27.4913 76.65C-27.6687 76.496 -27.811 76.3023 -27.9183 76.069C-28.021 75.831 -28.0723 75.551 -28.0723 75.229C-28.0723 74.949 -27.9953 74.6807 -27.8413 74.424C-27.6873 74.1627 -27.4377 73.9317 -27.0923 73.731C-26.747 73.5303 -26.2967 73.367 -25.7413 73.241C-25.186 73.1103 -24.5047 73.0357 -23.6973 73.017V72.464C-23.6973 71.9133 -23.8163 71.498 -24.0543 71.218C-24.2923 70.9333 -24.64 70.791 -25.0973 70.791C-25.4053 70.791 -25.6643 70.8307 -25.8743 70.91C-26.0797 70.9847 -26.2593 71.071 -26.4133 71.169C-26.5627 71.2623 -26.6933 71.3487 -26.8053 71.428C-26.9127 71.5027 -27.02 71.54 -27.1273 71.54C-27.2113 71.54 -27.2837 71.519 -27.3443 71.477C-27.405 71.4303 -27.4563 71.3743 -27.4983 71.309L-27.7223 70.91ZM-14.6274 69.909L-18.5824 79.093C-18.6244 79.1863 -18.6781 79.261 -18.7434 79.317C-18.8041 79.373 -18.8998 79.401 -19.0304 79.401H-19.9544L-18.6594 76.587L-21.5854 69.909H-20.5074C-20.4001 69.909 -20.3161 69.937 -20.2554 69.993C-20.1901 70.0443 -20.1458 70.1027 -20.1224 70.168L-18.2254 74.634C-18.1508 74.83 -18.0878 75.0353 -18.0364 75.25C-17.9711 75.0307 -17.9011 74.823 -17.8264 74.627L-15.9854 70.168C-15.9574 70.0933 -15.9108 70.0327 -15.8454 69.986C-15.7754 69.9347 -15.6984 69.909 -15.6144 69.909H-14.6274ZM-6.44344 73.808C-7.01744 73.8267 -7.50744 73.8733 -7.91344 73.948C-8.31477 74.018 -8.64377 74.1113 -8.90044 74.228C-9.15244 74.3447 -9.33677 74.4823 -9.45344 74.641C-9.56544 74.7997 -9.62144 74.977 -9.62144 75.173C-9.62144 75.3597 -9.5911 75.5207 -9.53044 75.656C-9.46977 75.7913 -9.3881 75.9033 -9.28544 75.992C-9.1781 76.076 -9.05444 76.139 -8.91444 76.181C-8.76977 76.2183 -8.61577 76.237 -8.45244 76.237C-8.2331 76.237 -8.03244 76.216 -7.85044 76.174C-7.66844 76.1273 -7.4981 76.062 -7.33944 75.978C-7.1761 75.894 -7.0221 75.7937 -6.87744 75.677C-6.7281 75.5603 -6.58344 75.4273 -6.44344 75.278V73.808ZM-10.4684 70.91C-10.0764 70.532 -9.6541 70.2497 -9.20144 70.063C-8.74877 69.8763 -8.2471 69.783 -7.69644 69.783C-7.29977 69.783 -6.94744 69.8483 -6.63944 69.979C-6.33144 70.1097 -6.07244 70.2917 -5.86244 70.525C-5.65244 70.7583 -5.49377 71.0407 -5.38644 71.372C-5.2791 71.7033 -5.22544 72.0673 -5.22544 72.464V77H-5.77844C-5.89977 77 -5.9931 76.9813 -6.05844 76.944C-6.12377 76.902 -6.1751 76.8227 -6.21244 76.706L-6.35244 76.034C-6.5391 76.2067 -6.7211 76.3607 -6.89844 76.496C-7.07577 76.6267 -7.26244 76.7387 -7.45844 76.832C-7.65444 76.9207 -7.86444 76.9883 -8.08844 77.035C-8.30777 77.0863 -8.55277 77.112 -8.82344 77.112C-9.09877 77.112 -9.35777 77.0747 -9.60044 77C-9.8431 76.9207 -10.0554 76.804 -10.2374 76.65C-10.4148 76.496 -10.5571 76.3023 -10.6644 76.069C-10.7671 75.831 -10.8184 75.551 -10.8184 75.229C-10.8184 74.949 -10.7414 74.6807 -10.5874 74.424C-10.4334 74.1627 -10.1838 73.9317 -9.83844 73.731C-9.4931 73.5303 -9.04277 73.367 -8.48744 73.241C-7.9321 73.1103 -7.25077 73.0357 -6.44344 73.017V72.464C-6.44344 71.9133 -6.56244 71.498 -6.80044 71.218C-7.03844 70.9333 -7.3861 70.791 -7.84344 70.791C-8.15144 70.791 -8.41044 70.8307 -8.62044 70.91C-8.82577 70.9847 -9.00544 71.071 -9.15944 71.169C-9.30877 71.2623 -9.43944 71.3487 -9.55144 71.428C-9.65877 71.5027 -9.7661 71.54 -9.87344 71.54C-9.95744 71.54 -10.0298 71.519 -10.0904 71.477C-10.1511 71.4303 -10.2024 71.3743 -10.2444 71.309L-10.4684 70.91ZM-2.15145 70.938C-1.99745 70.7653 -1.83412 70.609 -1.66145 70.469C-1.48879 70.329 -1.30679 70.21 -1.11545 70.112C-0.919453 70.0093 -0.71412 69.9323 -0.499453 69.881C-0.28012 69.825 -0.044453 69.797 0.207547 69.797C0.59488 69.797 0.935547 69.8623 1.22955 69.993C1.52821 70.119 1.77555 70.301 1.97155 70.539C2.17221 70.7723 2.32388 71.0547 2.42655 71.386C2.52921 71.7173 2.58055 72.0837 2.58055 72.485V77H1.32755V72.485C1.32755 71.9483 1.20388 71.533 0.956547 71.239C0.71388 70.9403 0.34288 70.791 -0.156453 70.791C-0.525119 70.791 -0.870453 70.8797 -1.19245 71.057C-1.50979 71.2343 -1.80379 71.4747 -2.07445 71.778V77H-3.32745V69.909H-2.57845C-2.40112 69.909 -2.29145 69.9953 -2.24945 70.168L-2.15145 70.938ZM9.09919 71.596C8.86585 71.2833 8.61385 71.0663 8.34319 70.945C8.07252 70.819 7.76919 70.756 7.43319 70.756C6.77519 70.756 6.26885 70.9917 5.91419 71.463C5.55952 71.9343 5.38219 72.6063 5.38219 73.479C5.38219 73.941 5.42185 74.3377 5.50119 74.669C5.58052 74.9957 5.69719 75.2663 5.85119 75.481C6.00519 75.691 6.19419 75.845 6.41819 75.943C6.64219 76.041 6.89652 76.09 7.18119 76.09C7.59185 76.09 7.94885 75.9967 8.25219 75.81C8.56019 75.6233 8.84252 75.3597 9.09919 75.019V71.596ZM10.3452 66.689V77H9.60319C9.42585 77 9.31385 76.9137 9.26719 76.741L9.15519 75.88C8.85185 76.244 8.50652 76.538 8.11919 76.762C7.73185 76.986 7.28385 77.098 6.77519 77.098C6.36919 77.098 6.00052 77.021 5.66919 76.867C5.33785 76.7083 5.05552 76.4773 4.82219 76.174C4.58885 75.8707 4.40919 75.4927 4.28319 75.04C4.15719 74.5873 4.09419 74.067 4.09419 73.479C4.09419 72.9563 4.16419 72.471 4.30419 72.023C4.44419 71.5703 4.64485 71.1783 4.90619 70.847C5.16752 70.5157 5.48719 70.2567 5.86519 70.07C6.24785 69.8787 6.67719 69.783 7.15319 69.783C7.58719 69.783 7.95819 69.8577 8.26619 70.007C8.57885 70.1517 8.85652 70.3547 9.09919 70.616V66.689H10.3452ZM17.2112 69.909V77H15.9652V69.909H17.2112ZM17.4772 67.683C17.4772 67.8043 17.4515 67.9187 17.4002 68.026C17.3535 68.1287 17.2882 68.222 17.2042 68.306C17.1249 68.3853 17.0292 68.4483 16.9172 68.495C16.8099 68.5417 16.6955 68.565 16.5742 68.565C16.4529 68.565 16.3385 68.5417 16.2312 68.495C16.1285 68.4483 16.0375 68.3853 15.9582 68.306C15.8789 68.222 15.8159 68.1287 15.7692 68.026C15.7225 67.9187 15.6992 67.8043 15.6992 67.683C15.6992 67.5617 15.7225 67.4473 15.7692 67.34C15.8159 67.228 15.8789 67.1323 15.9582 67.053C16.0375 66.969 16.1285 66.9037 16.2312 66.857C16.3385 66.8103 16.4529 66.787 16.5742 66.787C16.6955 66.787 16.8099 66.8103 16.9172 66.857C17.0292 66.9037 17.1249 66.969 17.2042 67.053C17.2882 67.1323 17.3535 67.228 17.4002 67.34C17.4515 67.4473 17.4772 67.5617 17.4772 67.683ZM21.4355 77.112C20.8755 77.112 20.4438 76.9557 20.1405 76.643C19.8418 76.3303 19.6925 75.88 19.6925 75.292V70.952H18.8385C18.7638 70.952 18.7008 70.931 18.6495 70.889C18.5982 70.8423 18.5725 70.7723 18.5725 70.679V70.182L19.7345 70.035L20.0215 67.844C20.0355 67.774 20.0658 67.718 20.1125 67.676C20.1638 67.6293 20.2292 67.606 20.3085 67.606H20.9385V70.049H22.9895V70.952H20.9385V75.208C20.9385 75.5067 21.0108 75.7283 21.1555 75.873C21.3002 76.0177 21.4868 76.09 21.7155 76.09C21.8462 76.09 21.9582 76.0737 22.0515 76.041C22.1495 76.0037 22.2335 75.964 22.3035 75.922C22.3735 75.88 22.4318 75.8427 22.4785 75.81C22.5298 75.7727 22.5742 75.754 22.6115 75.754C22.6768 75.754 22.7352 75.7937 22.7865 75.873L23.1505 76.468C22.9358 76.6687 22.6768 76.8273 22.3735 76.944C22.0702 77.056 21.7575 77.112 21.4355 77.112ZM25.2631 66.969V68.999L25.1511 70.084C25.1277 70.2333 25.0834 70.35 25.0181 70.434C24.9574 70.5133 24.8571 70.553 24.7171 70.553C24.5911 70.553 24.4931 70.5133 24.4231 70.434C24.3577 70.35 24.3134 70.2333 24.2901 70.084L24.1781 68.999V66.969H25.2631ZM31.1404 71.078C31.0844 71.1807 30.9981 71.232 30.8814 71.232C30.8114 71.232 30.7321 71.2063 30.6434 71.155C30.5548 71.1037 30.4451 71.0477 30.3144 70.987C30.1884 70.9217 30.0368 70.8633 29.8594 70.812C29.6821 70.756 29.4721 70.728 29.2294 70.728C29.0194 70.728 28.8304 70.756 28.6624 70.812C28.4944 70.8633 28.3498 70.9357 28.2284 71.029C28.1118 71.1223 28.0208 71.232 27.9554 71.358C27.8948 71.4793 27.8644 71.6123 27.8644 71.757C27.8644 71.939 27.9158 72.0907 28.0184 72.212C28.1258 72.3333 28.2658 72.4383 28.4384 72.527C28.6111 72.6157 28.8071 72.695 29.0264 72.765C29.2458 72.8303 29.4698 72.9027 29.6984 72.982C29.9318 73.0567 30.1581 73.1407 30.3774 73.234C30.5968 73.3273 30.7928 73.444 30.9654 73.584C31.1381 73.724 31.2758 73.8967 31.3784 74.102C31.4858 74.3027 31.5394 74.5453 31.5394 74.83C31.5394 75.1567 31.4811 75.46 31.3644 75.74C31.2478 76.0153 31.0751 76.2557 30.8464 76.461C30.6178 76.6617 30.3378 76.8203 30.0064 76.937C29.6751 77.0537 29.2924 77.112 28.8584 77.112C28.3638 77.112 27.9158 77.0327 27.5144 76.874C27.1131 76.7107 26.7724 76.503 26.4924 76.251L26.7864 75.775C26.8238 75.7143 26.8681 75.6677 26.9194 75.635C26.9708 75.6023 27.0361 75.586 27.1154 75.586C27.1994 75.586 27.2881 75.6187 27.3814 75.684C27.4748 75.7493 27.5868 75.8217 27.7174 75.901C27.8528 75.9803 28.0161 76.0527 28.2074 76.118C28.3988 76.1833 28.6368 76.216 28.9214 76.216C29.1641 76.216 29.3764 76.1857 29.5584 76.125C29.7404 76.0597 29.8921 75.9733 30.0134 75.866C30.1348 75.7587 30.2234 75.635 30.2794 75.495C30.3401 75.355 30.3704 75.2057 30.3704 75.047C30.3704 74.851 30.3168 74.69 30.2094 74.564C30.1068 74.4333 29.9691 74.3237 29.7964 74.235C29.6238 74.1417 29.4254 74.0623 29.2014 73.997C28.9821 73.927 28.7558 73.8547 28.5224 73.78C28.2938 73.7053 28.0674 73.6213 27.8434 73.528C27.6241 73.43 27.4281 73.3087 27.2554 73.164C27.0828 73.0193 26.9428 72.842 26.8354 72.632C26.7328 72.4173 26.6814 72.1583 26.6814 71.855C26.6814 71.5843 26.7374 71.3253 26.8494 71.078C26.9614 70.826 27.1248 70.6067 27.3394 70.42C27.5541 70.2287 27.8178 70.077 28.1304 69.965C28.4431 69.853 28.8001 69.797 29.2014 69.797C29.6681 69.797 30.0858 69.8717 30.4544 70.021C30.8278 70.1657 31.1498 70.3663 31.4204 70.623L31.1404 71.078ZM40.4921 73.808C39.9181 73.8267 39.4281 73.8733 39.0221 73.948C38.6208 74.018 38.2918 74.1113 38.0351 74.228C37.7831 74.3447 37.5988 74.4823 37.4821 74.641C37.3701 74.7997 37.3141 74.977 37.3141 75.173C37.3141 75.3597 37.3444 75.5207 37.4051 75.656C37.4658 75.7913 37.5474 75.9033 37.6501 75.992C37.7574 76.076 37.8811 76.139 38.0211 76.181C38.1658 76.2183 38.3198 76.237 38.4831 76.237C38.7024 76.237 38.9031 76.216 39.0851 76.174C39.2671 76.1273 39.4374 76.062 39.5961 75.978C39.7594 75.894 39.9134 75.7937 40.0581 75.677C40.2074 75.5603 40.3521 75.4273 40.4921 75.278V73.808ZM36.4671 70.91C36.8591 70.532 37.2814 70.2497 37.7341 70.063C38.1868 69.8763 38.6884 69.783 39.2391 69.783C39.6358 69.783 39.9881 69.8483 40.2961 69.979C40.6041 70.1097 40.8631 70.2917 41.0731 70.525C41.2831 70.7583 41.4418 71.0407 41.5491 71.372C41.6564 71.7033 41.7101 72.0673 41.7101 72.464V77H41.1571C41.0358 77 40.9424 76.9813 40.8771 76.944C40.8118 76.902 40.7604 76.8227 40.7231 76.706L40.5831 76.034C40.3964 76.2067 40.2144 76.3607 40.0371 76.496C39.8598 76.6267 39.6731 76.7387 39.4771 76.832C39.2811 76.9207 39.0711 76.9883 38.8471 77.035C38.6278 77.0863 38.3828 77.112 38.1121 77.112C37.8368 77.112 37.5778 77.0747 37.3351 77C37.0924 76.9207 36.8801 76.804 36.6981 76.65C36.5208 76.496 36.3784 76.3023 36.2711 76.069C36.1684 75.831 36.1171 75.551 36.1171 75.229C36.1171 74.949 36.1941 74.6807 36.3481 74.424C36.5021 74.1627 36.7518 73.9317 37.0971 73.731C37.4424 73.5303 37.8928 73.367 38.4481 73.241C39.0034 73.1103 39.6848 73.0357 40.4921 73.017V72.464C40.4921 71.9133 40.3731 71.498 40.1351 71.218C39.8971 70.9333 39.5494 70.791 39.0921 70.791C38.7841 70.791 38.5251 70.8307 38.3151 70.91C38.1098 70.9847 37.9301 71.071 37.7761 71.169C37.6268 71.2623 37.4961 71.3487 37.3841 71.428C37.2768 71.5027 37.1694 71.54 37.0621 71.54C36.9781 71.54 36.9058 71.519 36.8451 71.477C36.7844 71.4303 36.7331 71.3743 36.6911 71.309L36.4671 70.91ZM49.6611 73.535C49.9131 73.535 50.1348 73.5 50.3261 73.43C50.5175 73.36 50.6785 73.262 50.8091 73.136C50.9398 73.01 51.0378 72.8607 51.1031 72.688C51.1685 72.5107 51.2011 72.317 51.2011 72.107C51.2011 71.673 51.0681 71.3277 50.8021 71.071C50.5408 70.8143 50.1605 70.686 49.6611 70.686C49.1571 70.686 48.7721 70.8143 48.5061 71.071C48.2448 71.3277 48.1141 71.673 48.1141 72.107C48.1141 72.317 48.1468 72.5107 48.2121 72.688C48.2821 72.8607 48.3825 73.01 48.5131 73.136C48.6438 73.262 48.8048 73.36 48.9961 73.43C49.1875 73.5 49.4091 73.535 49.6611 73.535ZM51.9081 77.385C51.9081 77.2123 51.8591 77.0723 51.7611 76.965C51.6631 76.8577 51.5301 76.7737 51.3621 76.713C51.1988 76.6523 51.0075 76.6103 50.7881 76.587C50.5688 76.559 50.3355 76.538 50.0881 76.524C49.8455 76.51 49.5981 76.496 49.3461 76.482C49.0941 76.468 48.8515 76.4447 48.6181 76.412C48.3568 76.5333 48.1421 76.6873 47.9741 76.874C47.8108 77.056 47.7291 77.2707 47.7291 77.518C47.7291 77.6767 47.7688 77.8237 47.8481 77.959C47.9321 78.099 48.0581 78.218 48.2261 78.316C48.3941 78.4187 48.6041 78.498 48.8561 78.554C49.1128 78.6147 49.4138 78.645 49.7591 78.645C50.0951 78.645 50.3961 78.6147 50.6621 78.554C50.9281 78.4933 51.1521 78.407 51.3341 78.295C51.5208 78.183 51.6631 78.05 51.7611 77.896C51.8591 77.742 51.9081 77.5717 51.9081 77.385ZM53.1751 70.189V70.651C53.1751 70.805 53.0771 70.903 52.8811 70.945L52.0761 71.05C52.2348 71.358 52.3141 71.6987 52.3141 72.072C52.3141 72.4173 52.2465 72.7323 52.1111 73.017C51.9805 73.297 51.7985 73.5373 51.5651 73.738C51.3318 73.9387 51.0518 74.0927 50.7251 74.2C50.3985 74.3073 50.0438 74.361 49.6611 74.361C49.3298 74.361 49.0171 74.3213 48.7231 74.242C48.5738 74.3353 48.4595 74.4357 48.3801 74.543C48.3008 74.6457 48.2611 74.7507 48.2611 74.858C48.2611 75.026 48.3288 75.1543 48.4641 75.243C48.6041 75.327 48.7861 75.3877 49.0101 75.425C49.2341 75.4623 49.4885 75.4857 49.7731 75.495C50.0625 75.5043 50.3565 75.5207 50.6551 75.544C50.9585 75.5627 51.2525 75.5977 51.5371 75.649C51.8265 75.7003 52.0831 75.7843 52.3071 75.901C52.5311 76.0177 52.7108 76.1787 52.8461 76.384C52.9861 76.5893 53.0561 76.8553 53.0561 77.182C53.0561 77.4853 52.9791 77.7793 52.8251 78.064C52.6758 78.3487 52.4588 78.6007 52.1741 78.82C51.8895 79.044 51.5395 79.2213 51.1241 79.352C50.7135 79.4873 50.2491 79.555 49.7311 79.555C49.2131 79.555 48.7605 79.5037 48.3731 79.401C47.9858 79.2983 47.6638 79.1607 47.4071 78.988C47.1505 78.8153 46.9568 78.6147 46.8261 78.386C46.7001 78.162 46.6371 77.9263 46.6371 77.679C46.6371 77.329 46.7468 77.0327 46.9661 76.79C47.1855 76.5473 47.4865 76.3537 47.8691 76.209C47.6591 76.1157 47.4911 75.992 47.3651 75.838C47.2438 75.6793 47.1831 75.467 47.1831 75.201C47.1831 75.0983 47.2018 74.9933 47.2391 74.886C47.2765 74.774 47.3325 74.6643 47.4071 74.557C47.4865 74.445 47.5821 74.34 47.6941 74.242C47.8061 74.144 47.9368 74.0577 48.0861 73.983C47.7361 73.787 47.4631 73.528 47.2671 73.206C47.0711 72.8793 46.9731 72.5013 46.9731 72.072C46.9731 71.7267 47.0385 71.414 47.1691 71.134C47.3045 70.8493 47.4911 70.609 47.7291 70.413C47.9671 70.2123 48.2495 70.0583 48.5761 69.951C48.9075 69.8437 49.2691 69.79 49.6611 69.79C49.9691 69.79 50.2561 69.825 50.5221 69.895C50.7881 69.9603 51.0308 70.0583 51.2501 70.189H53.1751ZM55.6466 71.33C55.8706 70.8447 56.1459 70.4667 56.4726 70.196C56.7992 69.9207 57.1982 69.783 57.6696 69.783C57.8189 69.783 57.9612 69.7993 58.0966 69.832C58.2366 69.8647 58.3602 69.916 58.4676 69.986L58.3766 70.917C58.3486 71.0337 58.2786 71.092 58.1666 71.092C58.1012 71.092 58.0056 71.078 57.8796 71.05C57.7536 71.022 57.6112 71.008 57.4526 71.008C57.2286 71.008 57.0279 71.0407 56.8506 71.106C56.6779 71.1713 56.5216 71.2693 56.3816 71.4C56.2462 71.526 56.1226 71.6847 56.0106 71.876C55.9032 72.0627 55.8052 72.2773 55.7166 72.52V77H54.4636V69.909H55.1776C55.3129 69.909 55.4062 69.9347 55.4576 69.986C55.5089 70.0373 55.5439 70.126 55.5626 70.252L55.6466 71.33ZM64.0221 72.681C64.0221 72.3917 63.9801 72.128 63.8961 71.89C63.8167 71.6473 63.6977 71.4397 63.5391 71.267C63.3851 71.0897 63.1961 70.9543 62.9721 70.861C62.7481 70.763 62.4937 70.714 62.2091 70.714C61.6117 70.714 61.1381 70.889 60.7881 71.239C60.4427 71.5843 60.2281 72.065 60.1441 72.681H64.0221ZM65.0301 76.006C64.8761 76.1927 64.6917 76.356 64.4771 76.496C64.2624 76.6313 64.0314 76.7433 63.7841 76.832C63.5414 76.9207 63.2894 76.986 63.0281 77.028C62.7667 77.0747 62.5077 77.098 62.2511 77.098C61.7611 77.098 61.3084 77.0163 60.8931 76.853C60.4824 76.685 60.1254 76.4423 59.8221 76.125C59.5234 75.803 59.2901 75.4063 59.1221 74.935C58.9541 74.4637 58.8701 73.9223 58.8701 73.311C58.8701 72.8163 58.9447 72.3543 59.0941 71.925C59.2481 71.4957 59.4674 71.1247 59.7521 70.812C60.0367 70.4947 60.3844 70.2473 60.7951 70.07C61.2057 69.888 61.6677 69.797 62.1811 69.797C62.6057 69.797 62.9977 69.8693 63.3571 70.014C63.7211 70.154 64.0337 70.3593 64.2951 70.63C64.5611 70.896 64.7687 71.2273 64.9181 71.624C65.0674 72.016 65.1421 72.464 65.1421 72.968C65.1421 73.164 65.1211 73.2947 65.0791 73.36C65.0371 73.4253 64.9577 73.458 64.8411 73.458H60.1021C60.1161 73.906 60.1767 74.2957 60.2841 74.627C60.3961 74.9583 60.5501 75.236 60.7461 75.46C60.9421 75.6793 61.1754 75.845 61.4461 75.957C61.7167 76.0643 62.0201 76.118 62.3561 76.118C62.6687 76.118 62.9371 76.083 63.1611 76.013C63.3897 75.9383 63.5857 75.859 63.7491 75.775C63.9124 75.691 64.0477 75.614 64.1551 75.544C64.2671 75.4693 64.3627 75.432 64.4421 75.432C64.5447 75.432 64.6241 75.4717 64.6801 75.551L65.0301 76.006ZM70.5155 73.808C69.9415 73.8267 69.4515 73.8733 69.0455 73.948C68.6442 74.018 68.3152 74.1113 68.0585 74.228C67.8065 74.3447 67.6222 74.4823 67.5055 74.641C67.3935 74.7997 67.3375 74.977 67.3375 75.173C67.3375 75.3597 67.3679 75.5207 67.4285 75.656C67.4892 75.7913 67.5709 75.9033 67.6735 75.992C67.7809 76.076 67.9045 76.139 68.0445 76.181C68.1892 76.2183 68.3432 76.237 68.5065 76.237C68.7259 76.237 68.9265 76.216 69.1085 76.174C69.2905 76.1273 69.4609 76.062 69.6195 75.978C69.7829 75.894 69.9369 75.7937 70.0815 75.677C70.2309 75.5603 70.3755 75.4273 70.5155 75.278V73.808ZM66.4905 70.91C66.8825 70.532 67.3049 70.2497 67.7575 70.063C68.2102 69.8763 68.7119 69.783 69.2625 69.783C69.6592 69.783 70.0115 69.8483 70.3195 69.979C70.6275 70.1097 70.8865 70.2917 71.0965 70.525C71.3065 70.7583 71.4652 71.0407 71.5725 71.372C71.6799 71.7033 71.7335 72.0673 71.7335 72.464V77H71.1805C71.0592 77 70.9659 76.9813 70.9005 76.944C70.8352 76.902 70.7839 76.8227 70.7465 76.706L70.6065 76.034C70.4199 76.2067 70.2379 76.3607 70.0605 76.496C69.8832 76.6267 69.6965 76.7387 69.5005 76.832C69.3045 76.9207 69.0945 76.9883 68.8705 77.035C68.6512 77.0863 68.4062 77.112 68.1355 77.112C67.8602 77.112 67.6012 77.0747 67.3585 77C67.1159 76.9207 66.9035 76.804 66.7215 76.65C66.5442 76.496 66.4019 76.3023 66.2945 76.069C66.1919 75.831 66.1405 75.551 66.1405 75.229C66.1405 74.949 66.2175 74.6807 66.3715 74.424C66.5255 74.1627 66.7752 73.9317 67.1205 73.731C67.4659 73.5303 67.9162 73.367 68.4715 73.241C69.0269 73.1103 69.7082 73.0357 70.5155 73.017V72.464C70.5155 71.9133 70.3965 71.498 70.1585 71.218C69.9205 70.9333 69.5729 70.791 69.1155 70.791C68.8075 70.791 68.5485 70.8307 68.3385 70.91C68.1332 70.9847 67.9535 71.071 67.7995 71.169C67.6502 71.2623 67.5195 71.3487 67.4075 71.428C67.3002 71.5027 67.1929 71.54 67.0855 71.54C67.0015 71.54 66.9292 71.519 66.8685 71.477C66.8079 71.4303 66.7565 71.3743 66.7145 71.309L66.4905 70.91ZM75.7128 77.112C75.1528 77.112 74.7212 76.9557 74.4178 76.643C74.1192 76.3303 73.9698 75.88 73.9698 75.292V70.952H73.1158C73.0412 70.952 72.9782 70.931 72.9268 70.889C72.8755 70.8423 72.8498 70.7723 72.8498 70.679V70.182L74.0118 70.035L74.2988 67.844C74.3128 67.774 74.3432 67.718 74.3898 67.676C74.4412 67.6293 74.5065 67.606 74.5858 67.606H75.2158V70.049H77.2668V70.952H75.2158V75.208C75.2158 75.5067 75.2882 75.7283 75.4328 75.873C75.5775 76.0177 75.7642 76.09 75.9928 76.09C76.1235 76.09 76.2355 76.0737 76.3288 76.041C76.4268 76.0037 76.5108 75.964 76.5808 75.922C76.6508 75.88 76.7092 75.8427 76.7558 75.81C76.8072 75.7727 76.8515 75.754 76.8888 75.754C76.9542 75.754 77.0125 75.7937 77.0638 75.873L77.4278 76.468C77.2132 76.6687 76.9542 76.8273 76.6508 76.944C76.3475 77.056 76.0348 77.112 75.7128 77.112ZM91.6273 69.909L89.3313 77H88.3443C88.223 77 88.139 76.9207 88.0923 76.762L86.5243 71.953C86.487 71.8457 86.4567 71.7383 86.4333 71.631C86.41 71.519 86.3867 71.4093 86.3633 71.302C86.34 71.4093 86.3167 71.519 86.2933 71.631C86.27 71.7383 86.2397 71.848 86.2023 71.96L84.6063 76.762C84.5643 76.9207 84.471 77 84.3263 77H83.3883L81.0923 69.909H82.0723C82.1703 69.909 82.252 69.9347 82.3173 69.986C82.3873 70.0373 82.434 70.098 82.4573 70.168L83.8153 74.732C83.8947 75.068 83.9577 75.3853 84.0043 75.684C84.0463 75.53 84.0883 75.3737 84.1303 75.215C84.177 75.0563 84.226 74.8953 84.2773 74.732L85.7753 70.14C85.7987 70.07 85.8383 70.0117 85.8943 69.965C85.955 69.9183 86.0273 69.895 86.1113 69.895H86.6573C86.7507 69.895 86.8277 69.9183 86.8883 69.965C86.949 70.0117 86.991 70.07 87.0143 70.14L88.4773 74.732C88.5287 74.8953 88.5753 75.0563 88.6173 75.215C88.6593 75.3737 88.699 75.53 88.7363 75.684C88.7597 75.53 88.7877 75.376 88.8203 75.222C88.8577 75.0633 88.8973 74.9 88.9393 74.732L90.3253 70.168C90.3487 70.0933 90.393 70.0327 90.4583 69.986C90.5237 69.9347 90.6007 69.909 90.6893 69.909H91.6273ZM96.6015 73.808C96.0275 73.8267 95.5375 73.8733 95.1315 73.948C94.7302 74.018 94.4012 74.1113 94.1445 74.228C93.8925 74.3447 93.7082 74.4823 93.5915 74.641C93.4795 74.7997 93.4235 74.977 93.4235 75.173C93.4235 75.3597 93.4538 75.5207 93.5145 75.656C93.5752 75.7913 93.6568 75.9033 93.7595 75.992C93.8668 76.076 93.9905 76.139 94.1305 76.181C94.2752 76.2183 94.4292 76.237 94.5925 76.237C94.8118 76.237 95.0125 76.216 95.1945 76.174C95.3765 76.1273 95.5468 76.062 95.7055 75.978C95.8688 75.894 96.0228 75.7937 96.1675 75.677C96.3168 75.5603 96.4615 75.4273 96.6015 75.278V73.808ZM92.5765 70.91C92.9685 70.532 93.3908 70.2497 93.8435 70.063C94.2962 69.8763 94.7978 69.783 95.3485 69.783C95.7452 69.783 96.0975 69.8483 96.4055 69.979C96.7135 70.1097 96.9725 70.2917 97.1825 70.525C97.3925 70.7583 97.5512 71.0407 97.6585 71.372C97.7658 71.7033 97.8195 72.0673 97.8195 72.464V77H97.2665C97.1452 77 97.0518 76.9813 96.9865 76.944C96.9212 76.902 96.8698 76.8227 96.8325 76.706L96.6925 76.034C96.5058 76.2067 96.3238 76.3607 96.1465 76.496C95.9692 76.6267 95.7825 76.7387 95.5865 76.832C95.3905 76.9207 95.1805 76.9883 94.9565 77.035C94.7372 77.0863 94.4922 77.112 94.2215 77.112C93.9462 77.112 93.6872 77.0747 93.4445 77C93.2018 76.9207 92.9895 76.804 92.8075 76.65C92.6302 76.496 92.4878 76.3023 92.3805 76.069C92.2778 75.831 92.2265 75.551 92.2265 75.229C92.2265 74.949 92.3035 74.6807 92.4575 74.424C92.6115 74.1627 92.8612 73.9317 93.2065 73.731C93.5518 73.5303 94.0022 73.367 94.5575 73.241C95.1128 73.1103 95.7942 73.0357 96.6015 73.017V72.464C96.6015 71.9133 96.4825 71.498 96.2445 71.218C96.0065 70.9333 95.6588 70.791 95.2015 70.791C94.8935 70.791 94.6345 70.8307 94.4245 70.91C94.2192 70.9847 94.0395 71.071 93.8855 71.169C93.7362 71.2623 93.6055 71.3487 93.4935 71.428C93.3862 71.5027 93.2788 71.54 93.1715 71.54C93.0875 71.54 93.0152 71.519 92.9545 71.477C92.8938 71.4303 92.8425 71.3743 92.8005 71.309L92.5765 70.91ZM105.671 69.909L101.716 79.093C101.674 79.1863 101.621 79.261 101.555 79.317C101.495 79.373 101.399 79.401 101.268 79.401H100.344L101.639 76.587L98.7134 69.909H99.7914C99.8987 69.909 99.9827 69.937 100.043 69.993C100.109 70.0443 100.153 70.1027 100.176 70.168L102.073 74.634C102.148 74.83 102.211 75.0353 102.262 75.25C102.328 75.0307 102.398 74.823 102.472 74.627L104.313 70.168C104.341 70.0933 104.388 70.0327 104.453 69.986C104.523 69.9347 104.6 69.909 104.684 69.909H105.671ZM-154.836 95.112C-155.396 95.112 -155.828 94.9557 -156.131 94.643C-156.43 94.3303 -156.579 93.88 -156.579 93.292V88.952H-157.433C-157.508 88.952 -157.571 88.931 -157.622 88.889C-157.673 88.8423 -157.699 88.7723 -157.699 88.679V88.182L-156.537 88.035L-156.25 85.844C-156.236 85.774 -156.206 85.718 -156.159 85.676C-156.108 85.6293 -156.042 85.606 -155.963 85.606H-155.333V88.049H-153.282V88.952H-155.333V93.208C-155.333 93.5067 -155.261 93.7283 -155.116 93.873C-154.971 94.0177 -154.785 94.09 -154.556 94.09C-154.425 94.09 -154.313 94.0737 -154.22 94.041C-154.122 94.0037 -154.038 93.964 -153.968 93.922C-153.898 93.88 -153.84 93.8427 -153.793 93.81C-153.742 93.7727 -153.697 93.754 -153.66 93.754C-153.595 93.754 -153.536 93.7937 -153.485 93.873L-153.121 94.468C-153.336 94.6687 -153.595 94.8273 -153.898 94.944C-154.201 95.056 -154.514 95.112 -154.836 95.112ZM-149.047 87.797C-148.529 87.797 -148.063 87.8833 -147.647 88.056C-147.232 88.2287 -146.877 88.4737 -146.583 88.791C-146.289 89.1083 -146.065 89.4933 -145.911 89.946C-145.753 90.394 -145.673 90.8957 -145.673 91.451C-145.673 92.011 -145.753 92.515 -145.911 92.963C-146.065 93.411 -146.289 93.7937 -146.583 94.111C-146.877 94.4283 -147.232 94.6733 -147.647 94.846C-148.063 95.014 -148.529 95.098 -149.047 95.098C-149.57 95.098 -150.041 95.014 -150.461 94.846C-150.877 94.6733 -151.231 94.4283 -151.525 94.111C-151.819 93.7937 -152.046 93.411 -152.204 92.963C-152.358 92.515 -152.435 92.011 -152.435 91.451C-152.435 90.8957 -152.358 90.394 -152.204 89.946C-152.046 89.4933 -151.819 89.1083 -151.525 88.791C-151.231 88.4737 -150.877 88.2287 -150.461 88.056C-150.041 87.8833 -149.57 87.797 -149.047 87.797ZM-149.047 94.125C-148.347 94.125 -147.825 93.8917 -147.479 93.425C-147.134 92.9537 -146.961 92.298 -146.961 91.458C-146.961 90.6133 -147.134 89.9553 -147.479 89.484C-147.825 89.0127 -148.347 88.777 -149.047 88.777C-149.402 88.777 -149.712 88.8377 -149.978 88.959C-150.24 89.0803 -150.459 89.2553 -150.636 89.484C-150.809 89.7127 -150.94 89.995 -151.028 90.331C-151.112 90.6623 -151.154 91.038 -151.154 91.458C-151.154 92.298 -150.982 92.9537 -150.636 93.425C-150.286 93.8917 -149.757 94.125 -149.047 94.125ZM-139.258 84.689V90.758H-138.936C-138.843 90.758 -138.766 90.7463 -138.705 90.723C-138.64 90.695 -138.572 90.6413 -138.502 90.562L-136.262 88.161C-136.197 88.0817 -136.129 88.021 -136.059 87.979C-135.984 87.9323 -135.886 87.909 -135.765 87.909H-134.638L-137.249 90.688C-137.375 90.8467 -137.51 90.9703 -137.655 91.059C-137.571 91.115 -137.496 91.1803 -137.431 91.255C-137.361 91.325 -137.296 91.4067 -137.235 91.5L-134.463 95H-135.576C-135.683 95 -135.777 94.9837 -135.856 94.951C-135.931 94.9137 -135.996 94.8483 -136.052 94.755L-138.383 91.85C-138.453 91.752 -138.523 91.689 -138.593 91.661C-138.658 91.6283 -138.761 91.612 -138.901 91.612H-139.258V95H-140.511V84.689H-139.258ZM-129.052 90.681C-129.052 90.3917 -129.094 90.128 -129.178 89.89C-129.257 89.6473 -129.376 89.4397 -129.535 89.267C-129.689 89.0897 -129.878 88.9543 -130.102 88.861C-130.326 88.763 -130.58 88.714 -130.865 88.714C-131.462 88.714 -131.936 88.889 -132.286 89.239C-132.631 89.5843 -132.846 90.065 -132.93 90.681H-129.052ZM-128.044 94.006C-128.198 94.1927 -128.382 94.356 -128.597 94.496C-128.812 94.6313 -129.043 94.7433 -129.29 94.832C-129.533 94.9207 -129.785 94.986 -130.046 95.028C-130.307 95.0747 -130.566 95.098 -130.823 95.098C-131.313 95.098 -131.766 95.0163 -132.181 94.853C-132.592 94.685 -132.949 94.4423 -133.252 94.125C-133.551 93.803 -133.784 93.4063 -133.952 92.935C-134.12 92.4637 -134.204 91.9223 -134.204 91.311C-134.204 90.8163 -134.129 90.3543 -133.98 89.925C-133.826 89.4957 -133.607 89.1247 -133.322 88.812C-133.037 88.4947 -132.69 88.2473 -132.279 88.07C-131.868 87.888 -131.406 87.797 -130.893 87.797C-130.468 87.797 -130.076 87.8693 -129.717 88.014C-129.353 88.154 -129.04 88.3593 -128.779 88.63C-128.513 88.896 -128.305 89.2273 -128.156 89.624C-128.007 90.016 -127.932 90.464 -127.932 90.968C-127.932 91.164 -127.953 91.2947 -127.995 91.36C-128.037 91.4253 -128.116 91.458 -128.233 91.458H-132.972C-132.958 91.906 -132.897 92.2957 -132.79 92.627C-132.678 92.9583 -132.524 93.236 -132.328 93.46C-132.132 93.6793 -131.899 93.845 -131.628 93.957C-131.357 94.0643 -131.054 94.118 -130.718 94.118C-130.405 94.118 -130.137 94.083 -129.913 94.013C-129.684 93.9383 -129.488 93.859 -129.325 93.775C-129.162 93.691 -129.026 93.614 -128.919 93.544C-128.807 93.4693 -128.711 93.432 -128.632 93.432C-128.529 93.432 -128.45 93.4717 -128.394 93.551L-128.044 94.006ZM-121.656 90.681C-121.656 90.3917 -121.698 90.128 -121.782 89.89C-121.861 89.6473 -121.98 89.4397 -122.139 89.267C-122.293 89.0897 -122.482 88.9543 -122.706 88.861C-122.93 88.763 -123.184 88.714 -123.469 88.714C-124.066 88.714 -124.54 88.889 -124.89 89.239C-125.235 89.5843 -125.45 90.065 -125.534 90.681H-121.656ZM-120.648 94.006C-120.802 94.1927 -120.986 94.356 -121.201 94.496C-121.415 94.6313 -121.646 94.7433 -121.894 94.832C-122.136 94.9207 -122.388 94.986 -122.65 95.028C-122.911 95.0747 -123.17 95.098 -123.427 95.098C-123.917 95.098 -124.369 95.0163 -124.785 94.853C-125.195 94.685 -125.552 94.4423 -125.856 94.125C-126.154 93.803 -126.388 93.4063 -126.556 92.935C-126.724 92.4637 -126.808 91.9223 -126.808 91.311C-126.808 90.8163 -126.733 90.3543 -126.584 89.925C-126.43 89.4957 -126.21 89.1247 -125.926 88.812C-125.641 88.4947 -125.293 88.2473 -124.883 88.07C-124.472 87.888 -124.01 87.797 -123.497 87.797C-123.072 87.797 -122.68 87.8693 -122.321 88.014C-121.957 88.154 -121.644 88.3593 -121.383 88.63C-121.117 88.896 -120.909 89.2273 -120.76 89.624C-120.61 90.016 -120.536 90.464 -120.536 90.968C-120.536 91.164 -120.557 91.2947 -120.599 91.36C-120.641 91.4253 -120.72 91.458 -120.837 91.458H-125.576C-125.562 91.906 -125.501 92.2957 -125.394 92.627C-125.282 92.9583 -125.128 93.236 -124.932 93.46C-124.736 93.6793 -124.502 93.845 -124.232 93.957C-123.961 94.0643 -123.658 94.118 -123.322 94.118C-123.009 94.118 -122.741 94.083 -122.517 94.013C-122.288 93.9383 -122.092 93.859 -121.929 93.775C-121.765 93.691 -121.63 93.614 -121.523 93.544C-121.411 93.4693 -121.315 93.432 -121.236 93.432C-121.133 93.432 -121.054 93.4717 -120.998 93.551L-120.648 94.006ZM-117.752 93.292C-117.524 93.6 -117.274 93.817 -117.003 93.943C-116.733 94.069 -116.429 94.132 -116.093 94.132C-115.431 94.132 -114.922 93.8963 -114.567 93.425C-114.213 92.9537 -114.035 92.2817 -114.035 91.409C-114.035 90.947 -114.077 90.5503 -114.161 90.219C-114.241 89.8877 -114.357 89.617 -114.511 89.407C-114.665 89.1923 -114.854 89.036 -115.078 88.938C-115.302 88.84 -115.557 88.791 -115.841 88.791C-116.247 88.791 -116.604 88.8843 -116.912 89.071C-117.216 89.2577 -117.496 89.5213 -117.752 89.862V93.292ZM-117.815 89.008C-117.517 88.6393 -117.171 88.343 -116.779 88.119C-116.387 87.895 -115.939 87.783 -115.435 87.783C-115.025 87.783 -114.654 87.8623 -114.322 88.021C-113.991 88.175 -113.709 88.406 -113.475 88.714C-113.242 89.0173 -113.062 89.3953 -112.936 89.848C-112.81 90.3007 -112.747 90.821 -112.747 91.409C-112.747 91.9317 -112.817 92.4193 -112.957 92.872C-113.097 93.32 -113.3 93.7097 -113.566 94.041C-113.828 94.3677 -114.15 94.6267 -114.532 94.818C-114.91 95.0047 -115.337 95.098 -115.813 95.098C-116.247 95.098 -116.621 95.0257 -116.933 94.881C-117.241 94.7317 -117.514 94.5263 -117.752 94.265V97.401H-119.005V87.909H-118.256C-118.079 87.909 -117.969 87.9953 -117.927 88.168L-117.815 89.008ZM-101.744 87.909V95H-102.486C-102.664 95 -102.776 94.9137 -102.822 94.741L-102.92 93.978C-103.228 94.3187 -103.574 94.594 -103.956 94.804C-104.339 95.0093 -104.778 95.112 -105.272 95.112C-105.66 95.112 -106.003 95.049 -106.301 94.923C-106.595 94.7923 -106.843 94.6103 -107.043 94.377C-107.244 94.1437 -107.396 93.8613 -107.498 93.53C-107.596 93.1987 -107.645 92.8323 -107.645 92.431V87.909H-106.399V92.431C-106.399 92.9677 -106.278 93.383 -106.035 93.677C-105.788 93.971 -105.412 94.118 -104.908 94.118C-104.54 94.118 -104.197 94.0317 -103.879 93.859C-103.557 93.6817 -103.261 93.439 -102.99 93.131V87.909H-101.744ZM-98.5159 93.292C-98.2872 93.6 -98.0375 93.817 -97.7669 93.943C-97.4962 94.069 -97.1929 94.132 -96.8569 94.132C-96.1942 94.132 -95.6855 93.8963 -95.3309 93.425C-94.9762 92.9537 -94.7989 92.2817 -94.7989 91.409C-94.7989 90.947 -94.8409 90.5503 -94.9249 90.219C-95.0042 89.8877 -95.1209 89.617 -95.2749 89.407C-95.4289 89.1923 -95.6179 89.036 -95.8419 88.938C-96.0659 88.84 -96.3202 88.791 -96.6049 88.791C-97.0109 88.791 -97.3679 88.8843 -97.6759 89.071C-97.9792 89.2577 -98.2592 89.5213 -98.5159 89.862V93.292ZM-98.5789 89.008C-98.2802 88.6393 -97.9349 88.343 -97.5429 88.119C-97.1509 87.895 -96.7029 87.783 -96.1989 87.783C-95.7882 87.783 -95.4172 87.8623 -95.0859 88.021C-94.7545 88.175 -94.4722 88.406 -94.2389 88.714C-94.0055 89.0173 -93.8259 89.3953 -93.6999 89.848C-93.5739 90.3007 -93.5109 90.821 -93.5109 91.409C-93.5109 91.9317 -93.5809 92.4193 -93.7209 92.872C-93.8609 93.32 -94.0639 93.7097 -94.3299 94.041C-94.5912 94.3677 -94.9132 94.6267 -95.2959 94.818C-95.6739 95.0047 -96.1009 95.098 -96.5769 95.098C-97.0109 95.098 -97.3842 95.0257 -97.6969 94.881C-98.0049 94.7317 -98.2779 94.5263 -98.5159 94.265V97.401H-99.7689V87.909H-99.0199C-98.8425 87.909 -98.7329 87.9953 -98.6909 88.168L-98.5789 89.008ZM-86.1622 95.112C-86.7222 95.112 -87.1538 94.9557 -87.4572 94.643C-87.7558 94.3303 -87.9052 93.88 -87.9052 93.292V88.952H-88.7592C-88.8338 88.952 -88.8968 88.931 -88.9482 88.889C-88.9995 88.8423 -89.0252 88.7723 -89.0252 88.679V88.182L-87.8632 88.035L-87.5762 85.844C-87.5622 85.774 -87.5318 85.718 -87.4852 85.676C-87.4338 85.6293 -87.3685 85.606 -87.2892 85.606H-86.6592V88.049H-84.6082V88.952H-86.6592V93.208C-86.6592 93.5067 -86.5868 93.7283 -86.4422 93.873C-86.2975 94.0177 -86.1108 94.09 -85.8822 94.09C-85.7515 94.09 -85.6395 94.0737 -85.5462 94.041C-85.4482 94.0037 -85.3642 93.964 -85.2942 93.922C-85.2242 93.88 -85.1658 93.8427 -85.1192 93.81C-85.0678 93.7727 -85.0235 93.754 -84.9862 93.754C-84.9208 93.754 -84.8625 93.7937 -84.8112 93.873L-84.4472 94.468C-84.6618 94.6687 -84.9208 94.8273 -85.2242 94.944C-85.5275 95.056 -85.8402 95.112 -86.1622 95.112ZM-80.3736 87.797C-79.8556 87.797 -79.3889 87.8833 -78.9736 88.056C-78.5583 88.2287 -78.2036 88.4737 -77.9096 88.791C-77.6156 89.1083 -77.3916 89.4933 -77.2376 89.946C-77.0789 90.394 -76.9996 90.8957 -76.9996 91.451C-76.9996 92.011 -77.0789 92.515 -77.2376 92.963C-77.3916 93.411 -77.6156 93.7937 -77.9096 94.111C-78.2036 94.4283 -78.5583 94.6733 -78.9736 94.846C-79.3889 95.014 -79.8556 95.098 -80.3736 95.098C-80.8963 95.098 -81.3676 95.014 -81.7876 94.846C-82.2029 94.6733 -82.5576 94.4283 -82.8516 94.111C-83.1456 93.7937 -83.3719 93.411 -83.5306 92.963C-83.6846 92.515 -83.7616 92.011 -83.7616 91.451C-83.7616 90.8957 -83.6846 90.394 -83.5306 89.946C-83.3719 89.4933 -83.1456 89.1083 -82.8516 88.791C-82.5576 88.4737 -82.2029 88.2287 -81.7876 88.056C-81.3676 87.8833 -80.8963 87.797 -80.3736 87.797ZM-80.3736 94.125C-79.6736 94.125 -79.1509 93.8917 -78.8056 93.425C-78.4603 92.9537 -78.2876 92.298 -78.2876 91.458C-78.2876 90.6133 -78.4603 89.9553 -78.8056 89.484C-79.1509 89.0127 -79.6736 88.777 -80.3736 88.777C-80.7283 88.777 -81.0386 88.8377 -81.3046 88.959C-81.5659 89.0803 -81.7853 89.2553 -81.9626 89.484C-82.1353 89.7127 -82.2659 89.995 -82.3546 90.331C-82.4386 90.6623 -82.4806 91.038 -82.4806 91.458C-82.4806 92.298 -82.3079 92.9537 -81.9626 93.425C-81.6126 93.8917 -81.0829 94.125 -80.3736 94.125ZM-67.2172 89.596C-67.4506 89.2833 -67.7026 89.0663 -67.9732 88.945C-68.2439 88.819 -68.5472 88.756 -68.8832 88.756C-69.5412 88.756 -70.0476 88.9917 -70.4022 89.463C-70.7569 89.9343 -70.9342 90.6063 -70.9342 91.479C-70.9342 91.941 -70.8946 92.3377 -70.8152 92.669C-70.7359 92.9957 -70.6192 93.2663 -70.4652 93.481C-70.3112 93.691 -70.1222 93.845 -69.8982 93.943C-69.6742 94.041 -69.4199 94.09 -69.1352 94.09C-68.7246 94.09 -68.3676 93.9967 -68.0642 93.81C-67.7562 93.6233 -67.4739 93.3597 -67.2172 93.019V89.596ZM-65.9712 84.689V95H-66.7132C-66.8906 95 -67.0026 94.9137 -67.0492 94.741L-67.1612 93.88C-67.4646 94.244 -67.8099 94.538 -68.1972 94.762C-68.5846 94.986 -69.0326 95.098 -69.5412 95.098C-69.9472 95.098 -70.3159 95.021 -70.6472 94.867C-70.9786 94.7083 -71.2609 94.4773 -71.4942 94.174C-71.7276 93.8707 -71.9072 93.4927 -72.0332 93.04C-72.1592 92.5873 -72.2222 92.067 -72.2222 91.479C-72.2222 90.9563 -72.1522 90.471 -72.0122 90.023C-71.8722 89.5703 -71.6716 89.1783 -71.4102 88.847C-71.1489 88.5157 -70.8292 88.2567 -70.4512 88.07C-70.0686 87.8787 -69.6392 87.783 -69.1632 87.783C-68.7292 87.783 -68.3582 87.8577 -68.0502 88.007C-67.7376 88.1517 -67.4599 88.3547 -67.2172 88.616V84.689H-65.9712ZM-60.1602 91.808C-60.7342 91.8267 -61.2242 91.8733 -61.6302 91.948C-62.0316 92.018 -62.3606 92.1113 -62.6172 92.228C-62.8692 92.3447 -63.0536 92.4823 -63.1702 92.641C-63.2822 92.7997 -63.3382 92.977 -63.3382 93.173C-63.3382 93.3597 -63.3079 93.5207 -63.2472 93.656C-63.1866 93.7913 -63.1049 93.9033 -63.0022 93.992C-62.8949 94.076 -62.7712 94.139 -62.6312 94.181C-62.4866 94.2183 -62.3326 94.237 -62.1692 94.237C-61.9499 94.237 -61.7492 94.216 -61.5672 94.174C-61.3852 94.1273 -61.2149 94.062 -61.0562 93.978C-60.8929 93.894 -60.7389 93.7937 -60.5942 93.677C-60.4449 93.5603 -60.3002 93.4273 -60.1602 93.278V91.808ZM-64.1852 88.91C-63.7932 88.532 -63.3709 88.2497 -62.9182 88.063C-62.4656 87.8763 -61.9639 87.783 -61.4132 87.783C-61.0166 87.783 -60.6642 87.8483 -60.3562 87.979C-60.0482 88.1097 -59.7892 88.2917 -59.5792 88.525C-59.3692 88.7583 -59.2106 89.0407 -59.1032 89.372C-58.9959 89.7033 -58.9422 90.0673 -58.9422 90.464V95H-59.4952C-59.6166 95 -59.7099 94.9813 -59.7752 94.944C-59.8406 94.902 -59.8919 94.8227 -59.9292 94.706L-60.0692 94.034C-60.2559 94.2067 -60.4379 94.3607 -60.6152 94.496C-60.7926 94.6267 -60.9792 94.7387 -61.1752 94.832C-61.3712 94.9207 -61.5812 94.9883 -61.8052 95.035C-62.0246 95.0863 -62.2696 95.112 -62.5402 95.112C-62.8156 95.112 -63.0746 95.0747 -63.3172 95C-63.5599 94.9207 -63.7722 94.804 -63.9542 94.65C-64.1316 94.496 -64.2739 94.3023 -64.3812 94.069C-64.4839 93.831 -64.5352 93.551 -64.5352 93.229C-64.5352 92.949 -64.4582 92.6807 -64.3042 92.424C-64.1502 92.1627 -63.9006 91.9317 -63.5552 91.731C-63.2099 91.5303 -62.7596 91.367 -62.2042 91.241C-61.6489 91.1103 -60.9676 91.0357 -60.1602 91.017V90.464C-60.1602 89.9133 -60.2792 89.498 -60.5172 89.218C-60.7552 88.9333 -61.1029 88.791 -61.5602 88.791C-61.8682 88.791 -62.1272 88.8307 -62.3372 88.91C-62.5426 88.9847 -62.7222 89.071 -62.8762 89.169C-63.0256 89.2623 -63.1562 89.3487 -63.2682 89.428C-63.3756 89.5027 -63.4829 89.54 -63.5902 89.54C-63.6742 89.54 -63.7466 89.519 -63.8072 89.477C-63.8679 89.4303 -63.9192 89.3743 -63.9612 89.309L-64.1852 88.91ZM-54.963 95.112C-55.523 95.112 -55.9546 94.9557 -56.258 94.643C-56.5566 94.3303 -56.706 93.88 -56.706 93.292V88.952H-57.56C-57.6346 88.952 -57.6976 88.931 -57.749 88.889C-57.8003 88.8423 -57.826 88.7723 -57.826 88.679V88.182L-56.664 88.035L-56.377 85.844C-56.363 85.774 -56.3326 85.718 -56.286 85.676C-56.2346 85.6293 -56.1693 85.606 -56.09 85.606H-55.46V88.049H-53.409V88.952H-55.46V93.208C-55.46 93.5067 -55.3876 93.7283 -55.243 93.873C-55.0983 94.0177 -54.9116 94.09 -54.683 94.09C-54.5523 94.09 -54.4403 94.0737 -54.347 94.041C-54.249 94.0037 -54.165 93.964 -54.095 93.922C-54.025 93.88 -53.9666 93.8427 -53.92 93.81C-53.8686 93.7727 -53.8243 93.754 -53.787 93.754C-53.7216 93.754 -53.6633 93.7937 -53.612 93.873L-53.248 94.468C-53.4626 94.6687 -53.7216 94.8273 -54.025 94.944C-54.3283 95.056 -54.641 95.112 -54.963 95.112ZM-47.4174 90.681C-47.4174 90.3917 -47.4594 90.128 -47.5434 89.89C-47.6227 89.6473 -47.7417 89.4397 -47.9004 89.267C-48.0544 89.0897 -48.2434 88.9543 -48.4674 88.861C-48.6914 88.763 -48.9457 88.714 -49.2304 88.714C-49.8277 88.714 -50.3014 88.889 -50.6514 89.239C-50.9967 89.5843 -51.2114 90.065 -51.2954 90.681H-47.4174ZM-46.4094 94.006C-46.5634 94.1927 -46.7477 94.356 -46.9624 94.496C-47.1771 94.6313 -47.4081 94.7433 -47.6554 94.832C-47.8981 94.9207 -48.1501 94.986 -48.4114 95.028C-48.6727 95.0747 -48.9317 95.098 -49.1884 95.098C-49.6784 95.098 -50.1311 95.0163 -50.5464 94.853C-50.9571 94.685 -51.3141 94.4423 -51.6174 94.125C-51.9161 93.803 -52.1494 93.4063 -52.3174 92.935C-52.4854 92.4637 -52.5694 91.9223 -52.5694 91.311C-52.5694 90.8163 -52.4947 90.3543 -52.3454 89.925C-52.1914 89.4957 -51.9721 89.1247 -51.6874 88.812C-51.4027 88.4947 -51.0551 88.2473 -50.6444 88.07C-50.2337 87.888 -49.7717 87.797 -49.2584 87.797C-48.8337 87.797 -48.4417 87.8693 -48.0824 88.014C-47.7184 88.154 -47.4057 88.3593 -47.1444 88.63C-46.8784 88.896 -46.6707 89.2273 -46.5214 89.624C-46.3721 90.016 -46.2974 90.464 -46.2974 90.968C-46.2974 91.164 -46.3184 91.2947 -46.3604 91.36C-46.4024 91.4253 -46.4817 91.458 -46.5984 91.458H-51.3374C-51.3234 91.906 -51.2627 92.2957 -51.1554 92.627C-51.0434 92.9583 -50.8894 93.236 -50.6934 93.46C-50.4974 93.6793 -50.2641 93.845 -49.9934 93.957C-49.7227 94.0643 -49.4194 94.118 -49.0834 94.118C-48.7707 94.118 -48.5024 94.083 -48.2784 94.013C-48.0497 93.9383 -47.8537 93.859 -47.6904 93.775C-47.5271 93.691 -47.3917 93.614 -47.2844 93.544C-47.1724 93.4693 -47.0767 93.432 -46.9974 93.432C-46.8947 93.432 -46.8154 93.4717 -46.7594 93.551L-46.4094 94.006ZM-31.693 87.909L-33.989 95H-34.976C-35.0973 95 -35.1813 94.9207 -35.228 94.762L-36.796 89.953C-36.8333 89.8457 -36.8637 89.7383 -36.887 89.631C-36.9103 89.519 -36.9337 89.4093 -36.957 89.302C-36.9803 89.4093 -37.0037 89.519 -37.027 89.631C-37.0503 89.7383 -37.0807 89.848 -37.118 89.96L-38.714 94.762C-38.756 94.9207 -38.8493 95 -38.994 95H-39.932L-42.228 87.909H-41.248C-41.15 87.909 -41.0683 87.9347 -41.003 87.986C-40.933 88.0373 -40.8863 88.098 -40.863 88.168L-39.505 92.732C-39.4257 93.068 -39.3627 93.3853 -39.316 93.684C-39.274 93.53 -39.232 93.3737 -39.19 93.215C-39.1433 93.0563 -39.0943 92.8953 -39.043 92.732L-37.545 88.14C-37.5217 88.07 -37.482 88.0117 -37.426 87.965C-37.3653 87.9183 -37.293 87.895 -37.209 87.895H-36.663C-36.5697 87.895 -36.4927 87.9183 -36.432 87.965C-36.3713 88.0117 -36.3293 88.07 -36.306 88.14L-34.843 92.732C-34.7917 92.8953 -34.745 93.0563 -34.703 93.215C-34.661 93.3737 -34.6213 93.53 -34.584 93.684C-34.5607 93.53 -34.5327 93.376 -34.5 93.222C-34.4627 93.0633 -34.423 92.9 -34.381 92.732L-32.995 88.168C-32.9717 88.0933 -32.9273 88.0327 -32.862 87.986C-32.7967 87.9347 -32.7197 87.909 -32.631 87.909H-31.693ZM-29.1638 87.909V95H-30.4098V87.909H-29.1638ZM-28.8978 85.683C-28.8978 85.8043 -28.9235 85.9187 -28.9748 86.026C-29.0215 86.1287 -29.0868 86.222 -29.1708 86.306C-29.2501 86.3853 -29.3458 86.4483 -29.4578 86.495C-29.5651 86.5417 -29.6795 86.565 -29.8008 86.565C-29.9221 86.565 -30.0365 86.5417 -30.1438 86.495C-30.2465 86.4483 -30.3375 86.3853 -30.4168 86.306C-30.4961 86.222 -30.5591 86.1287 -30.6058 86.026C-30.6525 85.9187 -30.6758 85.8043 -30.6758 85.683C-30.6758 85.5617 -30.6525 85.4473 -30.6058 85.34C-30.5591 85.228 -30.4961 85.1323 -30.4168 85.053C-30.3375 84.969 -30.2465 84.9037 -30.1438 84.857C-30.0365 84.8103 -29.9221 84.787 -29.8008 84.787C-29.6795 84.787 -29.5651 84.8103 -29.4578 84.857C-29.3458 84.9037 -29.2501 84.969 -29.1708 85.053C-29.0868 85.1323 -29.0215 85.228 -28.9748 85.34C-28.9235 85.4473 -28.8978 85.5617 -28.8978 85.683ZM-24.9395 95.112C-25.4995 95.112 -25.9312 94.9557 -26.2345 94.643C-26.5332 94.3303 -26.6825 93.88 -26.6825 93.292V88.952H-27.5365C-27.6112 88.952 -27.6742 88.931 -27.7255 88.889C-27.7768 88.8423 -27.8025 88.7723 -27.8025 88.679V88.182L-26.6405 88.035L-26.3535 85.844C-26.3395 85.774 -26.3092 85.718 -26.2625 85.676C-26.2112 85.6293 -26.1458 85.606 -26.0665 85.606H-25.4365V88.049H-23.3855V88.952H-25.4365V93.208C-25.4365 93.5067 -25.3642 93.7283 -25.2195 93.873C-25.0748 94.0177 -24.8882 94.09 -24.6595 94.09C-24.5288 94.09 -24.4168 94.0737 -24.3235 94.041C-24.2255 94.0037 -24.1415 93.964 -24.0715 93.922C-24.0015 93.88 -23.9432 93.8427 -23.8965 93.81C-23.8452 93.7727 -23.8008 93.754 -23.7635 93.754C-23.6982 93.754 -23.6398 93.7937 -23.5885 93.873L-23.2245 94.468C-23.4392 94.6687 -23.6982 94.8273 -24.0015 94.944C-24.3048 95.056 -24.6175 95.112 -24.9395 95.112ZM-20.8459 88.854C-20.5426 88.532 -20.2066 88.2753 -19.8379 88.084C-19.4693 87.8927 -19.0446 87.797 -18.5639 87.797C-18.1766 87.797 -17.8359 87.8623 -17.5419 87.993C-17.2433 88.119 -16.9959 88.301 -16.7999 88.539C-16.5993 88.7723 -16.4476 89.0547 -16.3449 89.386C-16.2423 89.7173 -16.1909 90.0837 -16.1909 90.485V95H-17.4439V90.485C-17.4439 89.9483 -17.5676 89.533 -17.8149 89.239C-18.0576 88.9403 -18.4286 88.791 -18.9279 88.791C-19.2966 88.791 -19.6419 88.8797 -19.9639 89.057C-20.2813 89.2343 -20.5753 89.4747 -20.8459 89.778V95H-22.0989V84.689H-20.8459V88.854ZM-1.21837 87.909L-3.51437 95H-4.50137C-4.62271 95 -4.70671 94.9207 -4.75338 94.762L-6.32137 89.953C-6.35871 89.8457 -6.38904 89.7383 -6.41237 89.631C-6.43571 89.519 -6.45904 89.4093 -6.48237 89.302C-6.50571 89.4093 -6.52904 89.519 -6.55237 89.631C-6.57571 89.7383 -6.60604 89.848 -6.64337 89.96L-8.23937 94.762C-8.28137 94.9207 -8.37471 95 -8.51937 95H-9.45737L-11.7534 87.909H-10.7734C-10.6754 87.909 -10.5937 87.9347 -10.5284 87.986C-10.4584 88.0373 -10.4117 88.098 -10.3884 88.168L-9.03037 92.732C-8.95104 93.068 -8.88804 93.3853 -8.84137 93.684C-8.79937 93.53 -8.75737 93.3737 -8.71537 93.215C-8.66871 93.0563 -8.61971 92.8953 -8.56837 92.732L-7.07037 88.14C-7.04704 88.07 -7.00737 88.0117 -6.95137 87.965C-6.89071 87.9183 -6.81837 87.895 -6.73437 87.895H-6.18837C-6.09504 87.895 -6.01804 87.9183 -5.95737 87.965C-5.89671 88.0117 -5.85471 88.07 -5.83137 88.14L-4.36837 92.732C-4.31704 92.8953 -4.27037 93.0563 -4.22837 93.215C-4.18637 93.3737 -4.14671 93.53 -4.10938 93.684C-4.08604 93.53 -4.05804 93.376 -4.02537 93.222C-3.98804 93.0633 -3.94837 92.9 -3.90637 92.732L-2.52037 88.168C-2.49704 88.0933 -2.45271 88.0327 -2.38737 87.986C-2.32204 87.9347 -2.24504 87.909 -2.15637 87.909H-1.21837ZM1.24781 88.854C1.55115 88.532 1.88715 88.2753 2.25581 88.084C2.62448 87.8927 3.04915 87.797 3.52981 87.797C3.91715 87.797 4.25781 87.8623 4.55181 87.993C4.85048 88.119 5.09781 88.301 5.29381 88.539C5.49448 88.7723 5.64615 89.0547 5.74881 89.386C5.85148 89.7173 5.90281 90.0837 5.90281 90.485V95H4.64981V90.485C4.64981 89.9483 4.52615 89.533 4.27881 89.239C4.03615 88.9403 3.66515 88.791 3.16581 88.791C2.79715 88.791 2.45181 88.8797 2.12981 89.057C1.81248 89.2343 1.51848 89.4747 1.24781 89.778V95H-0.00518748V84.689H1.24781V88.854ZM11.6445 91.808C11.0705 91.8267 10.5805 91.8733 10.1745 91.948C9.77312 92.018 9.44412 92.1113 9.18745 92.228C8.93545 92.3447 8.75112 92.4823 8.63445 92.641C8.52245 92.7997 8.46645 92.977 8.46645 93.173C8.46645 93.3597 8.49679 93.5207 8.55745 93.656C8.61812 93.7913 8.69979 93.9033 8.80245 93.992C8.90979 94.076 9.03345 94.139 9.17345 94.181C9.31812 94.2183 9.47212 94.237 9.63545 94.237C9.85479 94.237 10.0555 94.216 10.2375 94.174C10.4195 94.1273 10.5898 94.062 10.7485 93.978C10.9118 93.894 11.0658 93.7937 11.2105 93.677C11.3598 93.5603 11.5045 93.4273 11.6445 93.278V91.808ZM7.61945 88.91C8.01145 88.532 8.43379 88.2497 8.88645 88.063C9.33912 87.8763 9.84079 87.783 10.3915 87.783C10.7881 87.783 11.1405 87.8483 11.4485 87.979C11.7565 88.1097 12.0155 88.2917 12.2255 88.525C12.4355 88.7583 12.5941 89.0407 12.7015 89.372C12.8088 89.7033 12.8625 90.0673 12.8625 90.464V95H12.3095C12.1881 95 12.0948 94.9813 12.0295 94.944C11.9641 94.902 11.9128 94.8227 11.8755 94.706L11.7355 94.034C11.5488 94.2067 11.3668 94.3607 11.1895 94.496C11.0121 94.6267 10.8255 94.7387 10.6295 94.832C10.4335 94.9207 10.2235 94.9883 9.99945 95.035C9.78012 95.0863 9.53512 95.112 9.26445 95.112C8.98912 95.112 8.73012 95.0747 8.48745 95C8.24479 94.9207 8.03245 94.804 7.85045 94.65C7.67312 94.496 7.53079 94.3023 7.42345 94.069C7.32079 93.831 7.26945 93.551 7.26945 93.229C7.26945 92.949 7.34645 92.6807 7.50045 92.424C7.65445 92.1627 7.90412 91.9317 8.24945 91.731C8.59479 91.5303 9.04512 91.367 9.60045 91.241C10.1558 91.1103 10.8371 91.0357 11.6445 91.017V90.464C11.6445 89.9133 11.5255 89.498 11.2875 89.218C11.0495 88.9333 10.7018 88.791 10.2445 88.791C9.93645 88.791 9.67745 88.8307 9.46745 88.91C9.26212 88.9847 9.08245 89.071 8.92845 89.169C8.77912 89.2623 8.64845 89.3487 8.53645 89.428C8.42912 89.5027 8.32179 89.54 8.21445 89.54C8.13045 89.54 8.05812 89.519 7.99745 89.477C7.93679 89.4303 7.88545 89.3743 7.84345 89.309L7.61945 88.91ZM16.8417 95.112C16.2817 95.112 15.8501 94.9557 15.5467 94.643C15.2481 94.3303 15.0987 93.88 15.0987 93.292V88.952H14.2447C14.1701 88.952 14.1071 88.931 14.0557 88.889C14.0044 88.8423 13.9787 88.7723 13.9787 88.679V88.182L15.1407 88.035L15.4277 85.844C15.4417 85.774 15.4721 85.718 15.5187 85.676C15.5701 85.6293 15.6354 85.606 15.7147 85.606H16.3447V88.049H18.3957V88.952H16.3447V93.208C16.3447 93.5067 16.4171 93.7283 16.5617 93.873C16.7064 94.0177 16.8931 94.09 17.1217 94.09C17.2524 94.09 17.3644 94.0737 17.4577 94.041C17.5557 94.0037 17.6397 93.964 17.7097 93.922C17.7797 93.88 17.8381 93.8427 17.8847 93.81C17.9361 93.7727 17.9804 93.754 18.0177 93.754C18.0831 93.754 18.1414 93.7937 18.1927 93.873L18.5567 94.468C18.3421 94.6687 18.0831 94.8273 17.7797 94.944C17.4764 95.056 17.1637 95.112 16.8417 95.112ZM20.6693 84.969V86.999L20.5573 88.084C20.534 88.2333 20.4896 88.35 20.4243 88.434C20.3636 88.5133 20.2633 88.553 20.1233 88.553C19.9973 88.553 19.8993 88.5133 19.8293 88.434C19.764 88.35 19.7196 88.2333 19.6963 88.084L19.5843 86.999V84.969H20.6693ZM26.5467 89.078C26.4907 89.1807 26.4044 89.232 26.2877 89.232C26.2177 89.232 26.1384 89.2063 26.0497 89.155C25.961 89.1037 25.8514 89.0477 25.7207 88.987C25.5947 88.9217 25.443 88.8633 25.2657 88.812C25.0884 88.756 24.8784 88.728 24.6357 88.728C24.4257 88.728 24.2367 88.756 24.0687 88.812C23.9007 88.8633 23.756 88.9357 23.6347 89.029C23.518 89.1223 23.427 89.232 23.3617 89.358C23.301 89.4793 23.2707 89.6123 23.2707 89.757C23.2707 89.939 23.322 90.0907 23.4247 90.212C23.532 90.3333 23.672 90.4383 23.8447 90.527C24.0174 90.6157 24.2134 90.695 24.4327 90.765C24.652 90.8303 24.876 90.9027 25.1047 90.982C25.338 91.0567 25.5644 91.1407 25.7837 91.234C26.003 91.3273 26.199 91.444 26.3717 91.584C26.5444 91.724 26.682 91.8967 26.7847 92.102C26.892 92.3027 26.9457 92.5453 26.9457 92.83C26.9457 93.1567 26.8874 93.46 26.7707 93.74C26.654 94.0153 26.4814 94.2557 26.2527 94.461C26.024 94.6617 25.744 94.8203 25.4127 94.937C25.0814 95.0537 24.6987 95.112 24.2647 95.112C23.77 95.112 23.322 95.0327 22.9207 94.874C22.5194 94.7107 22.1787 94.503 21.8987 94.251L22.1927 93.775C22.23 93.7143 22.2744 93.6677 22.3257 93.635C22.377 93.6023 22.4424 93.586 22.5217 93.586C22.6057 93.586 22.6944 93.6187 22.7877 93.684C22.881 93.7493 22.993 93.8217 23.1237 93.901C23.259 93.9803 23.4224 94.0527 23.6137 94.118C23.805 94.1833 24.043 94.216 24.3277 94.216C24.5704 94.216 24.7827 94.1857 24.9647 94.125C25.1467 94.0597 25.2984 93.9733 25.4197 93.866C25.541 93.7587 25.6297 93.635 25.6857 93.495C25.7464 93.355 25.7767 93.2057 25.7767 93.047C25.7767 92.851 25.723 92.69 25.6157 92.564C25.513 92.4333 25.3754 92.3237 25.2027 92.235C25.03 92.1417 24.8317 92.0623 24.6077 91.997C24.3884 91.927 24.162 91.8547 23.9287 91.78C23.7 91.7053 23.4737 91.6213 23.2497 91.528C23.0304 91.43 22.8344 91.3087 22.6617 91.164C22.489 91.0193 22.349 90.842 22.2417 90.632C22.139 90.4173 22.0877 90.1583 22.0877 89.855C22.0877 89.5843 22.1437 89.3253 22.2557 89.078C22.3677 88.826 22.531 88.6067 22.7457 88.42C22.9604 88.2287 23.224 88.077 23.5367 87.965C23.8494 87.853 24.2064 87.797 24.6077 87.797C25.0744 87.797 25.492 87.8717 25.8607 88.021C26.234 88.1657 26.556 88.3663 26.8267 88.623L26.5467 89.078ZM34.5264 91.535C34.7784 91.535 35 91.5 35.1914 91.43C35.3827 91.36 35.5437 91.262 35.6744 91.136C35.805 91.01 35.903 90.8607 35.9684 90.688C36.0337 90.5107 36.0664 90.317 36.0664 90.107C36.0664 89.673 35.9334 89.3277 35.6674 89.071C35.406 88.8143 35.0257 88.686 34.5264 88.686C34.0224 88.686 33.6374 88.8143 33.3714 89.071C33.11 89.3277 32.9794 89.673 32.9794 90.107C32.9794 90.317 33.012 90.5107 33.0774 90.688C33.1474 90.8607 33.2477 91.01 33.3784 91.136C33.509 91.262 33.67 91.36 33.8614 91.43C34.0527 91.5 34.2744 91.535 34.5264 91.535ZM36.7734 95.385C36.7734 95.2123 36.7244 95.0723 36.6264 94.965C36.5284 94.8577 36.3954 94.7737 36.2274 94.713C36.064 94.6523 35.8727 94.6103 35.6534 94.587C35.434 94.559 35.2007 94.538 34.9534 94.524C34.7107 94.51 34.4634 94.496 34.2114 94.482C33.9594 94.468 33.7167 94.4447 33.4834 94.412C33.222 94.5333 33.0074 94.6873 32.8394 94.874C32.676 95.056 32.5944 95.2707 32.5944 95.518C32.5944 95.6767 32.634 95.8237 32.7134 95.959C32.7974 96.099 32.9234 96.218 33.0914 96.316C33.2594 96.4187 33.4694 96.498 33.7214 96.554C33.978 96.6147 34.279 96.645 34.6244 96.645C34.9604 96.645 35.2614 96.6147 35.5274 96.554C35.7934 96.4933 36.0174 96.407 36.1994 96.295C36.386 96.183 36.5284 96.05 36.6264 95.896C36.7244 95.742 36.7734 95.5717 36.7734 95.385ZM38.0404 88.189V88.651C38.0404 88.805 37.9424 88.903 37.7464 88.945L36.9414 89.05C37.1 89.358 37.1794 89.6987 37.1794 90.072C37.1794 90.4173 37.1117 90.7323 36.9764 91.017C36.8457 91.297 36.6637 91.5373 36.4304 91.738C36.197 91.9387 35.917 92.0927 35.5904 92.2C35.2637 92.3073 34.909 92.361 34.5264 92.361C34.195 92.361 33.8824 92.3213 33.5884 92.242C33.439 92.3353 33.3247 92.4357 33.2454 92.543C33.166 92.6457 33.1264 92.7507 33.1264 92.858C33.1264 93.026 33.194 93.1543 33.3294 93.243C33.4694 93.327 33.6514 93.3877 33.8754 93.425C34.0994 93.4623 34.3537 93.4857 34.6384 93.495C34.9277 93.5043 35.2217 93.5207 35.5204 93.544C35.8237 93.5627 36.1177 93.5977 36.4024 93.649C36.6917 93.7003 36.9484 93.7843 37.1724 93.901C37.3964 94.0177 37.576 94.1787 37.7114 94.384C37.8514 94.5893 37.9214 94.8553 37.9214 95.182C37.9214 95.4853 37.8444 95.7793 37.6904 96.064C37.541 96.3487 37.324 96.6007 37.0394 96.82C36.7547 97.044 36.4047 97.2213 35.9894 97.352C35.5787 97.4873 35.1144 97.555 34.5964 97.555C34.0784 97.555 33.6257 97.5037 33.2384 97.401C32.851 97.2983 32.529 97.1607 32.2724 96.988C32.0157 96.8153 31.822 96.6147 31.6914 96.386C31.5654 96.162 31.5024 95.9263 31.5024 95.679C31.5024 95.329 31.612 95.0327 31.8314 94.79C32.0507 94.5473 32.3517 94.3537 32.7344 94.209C32.5244 94.1157 32.3564 93.992 32.2304 93.838C32.109 93.6793 32.0484 93.467 32.0484 93.201C32.0484 93.0983 32.067 92.9933 32.1044 92.886C32.1417 92.774 32.1977 92.6643 32.2724 92.557C32.3517 92.445 32.4474 92.34 32.5594 92.242C32.6714 92.144 32.802 92.0577 32.9514 91.983C32.6014 91.787 32.3284 91.528 32.1324 91.206C31.9364 90.8793 31.8384 90.5013 31.8384 90.072C31.8384 89.7267 31.9037 89.414 32.0344 89.134C32.1697 88.8493 32.3564 88.609 32.5944 88.413C32.8324 88.2123 33.1147 88.0583 33.4414 87.951C33.7727 87.8437 34.1344 87.79 34.5264 87.79C34.8344 87.79 35.1214 87.825 35.3874 87.895C35.6534 87.9603 35.896 88.0583 36.1154 88.189H38.0404ZM42.2084 87.797C42.7264 87.797 43.1931 87.8833 43.6084 88.056C44.0238 88.2287 44.3784 88.4737 44.6724 88.791C44.9664 89.1083 45.1904 89.4933 45.3444 89.946C45.5031 90.394 45.5824 90.8957 45.5824 91.451C45.5824 92.011 45.5031 92.515 45.3444 92.963C45.1904 93.411 44.9664 93.7937 44.6724 94.111C44.3784 94.4283 44.0238 94.6733 43.6084 94.846C43.1931 95.014 42.7264 95.098 42.2084 95.098C41.6858 95.098 41.2144 95.014 40.7944 94.846C40.3791 94.6733 40.0244 94.4283 39.7304 94.111C39.4364 93.7937 39.2101 93.411 39.0514 92.963C38.8974 92.515 38.8204 92.011 38.8204 91.451C38.8204 90.8957 38.8974 90.394 39.0514 89.946C39.2101 89.4933 39.4364 89.1083 39.7304 88.791C40.0244 88.4737 40.3791 88.2287 40.7944 88.056C41.2144 87.8833 41.6858 87.797 42.2084 87.797ZM42.2084 94.125C42.9084 94.125 43.4311 93.8917 43.7764 93.425C44.1218 92.9537 44.2944 92.298 44.2944 91.458C44.2944 90.6133 44.1218 89.9553 43.7764 89.484C43.4311 89.0127 42.9084 88.777 42.2084 88.777C41.8538 88.777 41.5434 88.8377 41.2774 88.959C41.0161 89.0803 40.7968 89.2553 40.6194 89.484C40.4468 89.7127 40.3161 89.995 40.2274 90.331C40.1434 90.6623 40.1014 91.038 40.1014 91.458C40.1014 92.298 40.2741 92.9537 40.6194 93.425C40.9694 93.8917 41.4991 94.125 42.2084 94.125ZM48.4788 87.909V95H47.2328V87.909H48.4788ZM48.7448 85.683C48.7448 85.8043 48.7191 85.9187 48.6678 86.026C48.6211 86.1287 48.5558 86.222 48.4718 86.306C48.3924 86.3853 48.2968 86.4483 48.1848 86.495C48.0774 86.5417 47.9631 86.565 47.8418 86.565C47.7204 86.565 47.6061 86.5417 47.4988 86.495C47.3961 86.4483 47.3051 86.3853 47.2258 86.306C47.1464 86.222 47.0834 86.1287 47.0368 86.026C46.9901 85.9187 46.9668 85.8043 46.9668 85.683C46.9668 85.5617 46.9901 85.4473 47.0368 85.34C47.0834 85.228 47.1464 85.1323 47.2258 85.053C47.3051 84.969 47.3961 84.9037 47.4988 84.857C47.6061 84.8103 47.7204 84.787 47.8418 84.787C47.9631 84.787 48.0774 84.8103 48.1848 84.857C48.2968 84.9037 48.3924 84.969 48.4718 85.053C48.5558 85.1323 48.6211 85.228 48.6678 85.34C48.7191 85.4473 48.7448 85.5617 48.7448 85.683ZM51.7021 88.938C51.8561 88.7653 52.0194 88.609 52.1921 88.469C52.3647 88.329 52.5467 88.21 52.7381 88.112C52.9341 88.0093 53.1394 87.9323 53.3541 87.881C53.5734 87.825 53.8091 87.797 54.0611 87.797C54.4484 87.797 54.7891 87.8623 55.0831 87.993C55.3817 88.119 55.6291 88.301 55.8251 88.539C56.0257 88.7723 56.1774 89.0547 56.2801 89.386C56.3827 89.7173 56.4341 90.0837 56.4341 90.485V95H55.1811V90.485C55.1811 89.9483 55.0574 89.533 54.8101 89.239C54.5674 88.9403 54.1964 88.791 53.6971 88.791C53.3284 88.791 52.9831 88.8797 52.6611 89.057C52.3437 89.2343 52.0497 89.4747 51.7791 89.778V95H50.5261V87.909H51.2751C51.4524 87.909 51.5621 87.9953 51.6041 88.168L51.7021 88.938ZM60.8037 91.535C61.0557 91.535 61.2774 91.5 61.4687 91.43C61.66 91.36 61.821 91.262 61.9517 91.136C62.0824 91.01 62.1804 90.8607 62.2457 90.688C62.311 90.5107 62.3437 90.317 62.3437 90.107C62.3437 89.673 62.2107 89.3277 61.9447 89.071C61.6834 88.8143 61.303 88.686 60.8037 88.686C60.2997 88.686 59.9147 88.8143 59.6487 89.071C59.3874 89.3277 59.2567 89.673 59.2567 90.107C59.2567 90.317 59.2894 90.5107 59.3547 90.688C59.4247 90.8607 59.525 91.01 59.6557 91.136C59.7864 91.262 59.9474 91.36 60.1387 91.43C60.33 91.5 60.5517 91.535 60.8037 91.535ZM63.0507 95.385C63.0507 95.2123 63.0017 95.0723 62.9037 94.965C62.8057 94.8577 62.6727 94.7737 62.5047 94.713C62.3414 94.6523 62.15 94.6103 61.9307 94.587C61.7114 94.559 61.478 94.538 61.2307 94.524C60.988 94.51 60.7407 94.496 60.4887 94.482C60.2367 94.468 59.994 94.4447 59.7607 94.412C59.4994 94.5333 59.2847 94.6873 59.1167 94.874C58.9534 95.056 58.8717 95.2707 58.8717 95.518C58.8717 95.6767 58.9114 95.8237 58.9907 95.959C59.0747 96.099 59.2007 96.218 59.3687 96.316C59.5367 96.4187 59.7467 96.498 59.9987 96.554C60.2554 96.6147 60.5564 96.645 60.9017 96.645C61.2377 96.645 61.5387 96.6147 61.8047 96.554C62.0707 96.4933 62.2947 96.407 62.4767 96.295C62.6634 96.183 62.8057 96.05 62.9037 95.896C63.0017 95.742 63.0507 95.5717 63.0507 95.385ZM64.3177 88.189V88.651C64.3177 88.805 64.2197 88.903 64.0237 88.945L63.2187 89.05C63.3774 89.358 63.4567 89.6987 63.4567 90.072C63.4567 90.4173 63.389 90.7323 63.2537 91.017C63.123 91.297 62.941 91.5373 62.7077 91.738C62.4744 91.9387 62.1944 92.0927 61.8677 92.2C61.541 92.3073 61.1864 92.361 60.8037 92.361C60.4724 92.361 60.1597 92.3213 59.8657 92.242C59.7164 92.3353 59.602 92.4357 59.5227 92.543C59.4434 92.6457 59.4037 92.7507 59.4037 92.858C59.4037 93.026 59.4714 93.1543 59.6067 93.243C59.7467 93.327 59.9287 93.3877 60.1527 93.425C60.3767 93.4623 60.631 93.4857 60.9157 93.495C61.205 93.5043 61.499 93.5207 61.7977 93.544C62.101 93.5627 62.395 93.5977 62.6797 93.649C62.969 93.7003 63.2257 93.7843 63.4497 93.901C63.6737 94.0177 63.8534 94.1787 63.9887 94.384C64.1287 94.5893 64.1987 94.8553 64.1987 95.182C64.1987 95.4853 64.1217 95.7793 63.9677 96.064C63.8184 96.3487 63.6014 96.6007 63.3167 96.82C63.032 97.044 62.682 97.2213 62.2667 97.352C61.856 97.4873 61.3917 97.555 60.8737 97.555C60.3557 97.555 59.903 97.5037 59.5157 97.401C59.1284 97.2983 58.8064 97.1607 58.5497 96.988C58.293 96.8153 58.0994 96.6147 57.9687 96.386C57.8427 96.162 57.7797 95.9263 57.7797 95.679C57.7797 95.329 57.8894 95.0327 58.1087 94.79C58.328 94.5473 58.629 94.3537 59.0117 94.209C58.8017 94.1157 58.6337 93.992 58.5077 93.838C58.3864 93.6793 58.3257 93.467 58.3257 93.201C58.3257 93.0983 58.3444 92.9933 58.3817 92.886C58.419 92.774 58.475 92.6643 58.5497 92.557C58.629 92.445 58.7247 92.34 58.8367 92.242C58.9487 92.144 59.0794 92.0577 59.2287 91.983C58.8787 91.787 58.6057 91.528 58.4097 91.206C58.2137 90.8793 58.1157 90.5013 58.1157 90.072C58.1157 89.7267 58.181 89.414 58.3117 89.134C58.447 88.8493 58.6337 88.609 58.8717 88.413C59.1097 88.2123 59.392 88.0583 59.7187 87.951C60.05 87.8437 60.4117 87.79 60.8037 87.79C61.1117 87.79 61.3987 87.825 61.6647 87.895C61.9307 87.9603 62.1734 88.0583 62.3927 88.189H64.3177ZM72.1772 87.797C72.6952 87.797 73.1618 87.8833 73.5772 88.056C73.9925 88.2287 74.3472 88.4737 74.6412 88.791C74.9352 89.1083 75.1592 89.4933 75.3132 89.946C75.4718 90.394 75.5512 90.8957 75.5512 91.451C75.5512 92.011 75.4718 92.515 75.3132 92.963C75.1592 93.411 74.9352 93.7937 74.6412 94.111C74.3472 94.4283 73.9925 94.6733 73.5772 94.846C73.1618 95.014 72.6952 95.098 72.1772 95.098C71.6545 95.098 71.1832 95.014 70.7632 94.846C70.3478 94.6733 69.9932 94.4283 69.6992 94.111C69.4052 93.7937 69.1788 93.411 69.0202 92.963C68.8662 92.515 68.7892 92.011 68.7892 91.451C68.7892 90.8957 68.8662 90.394 69.0202 89.946C69.1788 89.4933 69.4052 89.1083 69.6992 88.791C69.9932 88.4737 70.3478 88.2287 70.7632 88.056C71.1832 87.8833 71.6545 87.797 72.1772 87.797ZM72.1772 94.125C72.8772 94.125 73.3998 93.8917 73.7452 93.425C74.0905 92.9537 74.2632 92.298 74.2632 91.458C74.2632 90.6133 74.0905 89.9553 73.7452 89.484C73.3998 89.0127 72.8772 88.777 72.1772 88.777C71.8225 88.777 71.5122 88.8377 71.2462 88.959C70.9848 89.0803 70.7655 89.2553 70.5882 89.484C70.4155 89.7127 70.2848 89.995 70.1962 90.331C70.1122 90.6623 70.0702 91.038 70.0702 91.458C70.0702 92.298 70.2428 92.9537 70.5882 93.425C70.9382 93.8917 71.4678 94.125 72.1772 94.125ZM78.3075 88.938C78.4615 88.7653 78.6249 88.609 78.7975 88.469C78.9702 88.329 79.1522 88.21 79.3435 88.112C79.5395 88.0093 79.7449 87.9323 79.9595 87.881C80.1789 87.825 80.4145 87.797 80.6665 87.797C81.0539 87.797 81.3945 87.8623 81.6885 87.993C81.9872 88.119 82.2345 88.301 82.4305 88.539C82.6312 88.7723 82.7829 89.0547 82.8855 89.386C82.9882 89.7173 83.0395 90.0837 83.0395 90.485V95H81.7865V90.485C81.7865 89.9483 81.6629 89.533 81.4155 89.239C81.1729 88.9403 80.8019 88.791 80.3025 88.791C79.9339 88.791 79.5885 88.8797 79.2665 89.057C78.9492 89.2343 78.6552 89.4747 78.3845 89.778V95H77.1315V87.909H77.8805C78.0579 87.909 78.1675 87.9953 78.2095 88.168L78.3075 88.938ZM89.8362 87.909V95H88.5902V87.909H89.8362ZM90.1022 85.683C90.1022 85.8043 90.0765 85.9187 90.0252 86.026C89.9785 86.1287 89.9132 86.222 89.8292 86.306C89.7499 86.3853 89.6542 86.4483 89.5422 86.495C89.4349 86.5417 89.3205 86.565 89.1992 86.565C89.0779 86.565 88.9635 86.5417 88.8562 86.495C88.7535 86.4483 88.6625 86.3853 88.5832 86.306C88.5039 86.222 88.4409 86.1287 88.3942 86.026C88.3475 85.9187 88.3242 85.8043 88.3242 85.683C88.3242 85.5617 88.3475 85.4473 88.3942 85.34C88.4409 85.228 88.5039 85.1323 88.5832 85.053C88.6625 84.969 88.7535 84.9037 88.8562 84.857C88.9635 84.8103 89.0779 84.787 89.1992 84.787C89.3205 84.787 89.4349 84.8103 89.5422 84.857C89.6542 84.9037 89.7499 84.969 89.8292 85.053C89.9132 85.1323 89.9785 85.228 90.0252 85.34C90.0765 85.4473 90.1022 85.5617 90.1022 85.683ZM93.0595 88.938C93.2135 88.7653 93.3768 88.609 93.5495 88.469C93.7222 88.329 93.9042 88.21 94.0955 88.112C94.2915 88.0093 94.4968 87.9323 94.7115 87.881C94.9308 87.825 95.1665 87.797 95.4185 87.797C95.8058 87.797 96.1465 87.8623 96.4405 87.993C96.7392 88.119 96.9865 88.301 97.1825 88.539C97.3832 88.7723 97.5348 89.0547 97.6375 89.386C97.7402 89.7173 97.7915 90.0837 97.7915 90.485V95H96.5385V90.485C96.5385 89.9483 96.4148 89.533 96.1675 89.239C95.9248 88.9403 95.5538 88.791 95.0545 88.791C94.6858 88.791 94.3405 88.8797 94.0185 89.057C93.7012 89.2343 93.4072 89.4747 93.1365 89.778V95H91.8835V87.909H92.6325C92.8098 87.909 92.9195 87.9953 92.9615 88.168L93.0595 88.938ZM-156.551 114V107.973L-157.335 107.882C-157.433 107.859 -157.515 107.824 -157.58 107.777C-157.641 107.726 -157.671 107.653 -157.671 107.56V107.049H-156.551V106.363C-156.551 105.957 -156.495 105.598 -156.383 105.285C-156.266 104.968 -156.103 104.702 -155.893 104.487C-155.678 104.268 -155.422 104.102 -155.123 103.99C-154.824 103.878 -154.488 103.822 -154.115 103.822C-153.798 103.822 -153.506 103.869 -153.24 103.962L-153.268 104.585C-153.277 104.697 -153.34 104.758 -153.457 104.767C-153.569 104.776 -153.721 104.781 -153.912 104.781C-154.127 104.781 -154.323 104.809 -154.5 104.865C-154.673 104.921 -154.822 105.012 -154.948 105.138C-155.074 105.264 -155.172 105.43 -155.242 105.635C-155.307 105.84 -155.34 106.095 -155.34 106.398V107.049H-153.296V107.952H-155.298V114H-156.551ZM-149.348 106.797C-148.83 106.797 -148.364 106.883 -147.948 107.056C-147.533 107.229 -147.178 107.474 -146.884 107.791C-146.59 108.108 -146.366 108.493 -146.212 108.946C-146.054 109.394 -145.974 109.896 -145.974 110.451C-145.974 111.011 -146.054 111.515 -146.212 111.963C-146.366 112.411 -146.59 112.794 -146.884 113.111C-147.178 113.428 -147.533 113.673 -147.948 113.846C-148.364 114.014 -148.83 114.098 -149.348 114.098C-149.871 114.098 -150.342 114.014 -150.762 113.846C-151.178 113.673 -151.532 113.428 -151.826 113.111C-152.12 112.794 -152.347 112.411 -152.505 111.963C-152.659 111.515 -152.736 111.011 -152.736 110.451C-152.736 109.896 -152.659 109.394 -152.505 108.946C-152.347 108.493 -152.12 108.108 -151.826 107.791C-151.532 107.474 -151.178 107.229 -150.762 107.056C-150.342 106.883 -149.871 106.797 -149.348 106.797ZM-149.348 113.125C-148.648 113.125 -148.126 112.892 -147.78 112.425C-147.435 111.954 -147.262 111.298 -147.262 110.458C-147.262 109.613 -147.435 108.955 -147.78 108.484C-148.126 108.013 -148.648 107.777 -149.348 107.777C-149.703 107.777 -150.013 107.838 -150.279 107.959C-150.541 108.08 -150.76 108.255 -150.937 108.484C-151.11 108.713 -151.241 108.995 -151.329 109.331C-151.413 109.662 -151.455 110.038 -151.455 110.458C-151.455 111.298 -151.283 111.954 -150.937 112.425C-150.587 112.892 -150.058 113.125 -149.348 113.125ZM-141.405 106.797C-140.887 106.797 -140.42 106.883 -140.005 107.056C-139.59 107.229 -139.235 107.474 -138.941 107.791C-138.647 108.108 -138.423 108.493 -138.269 108.946C-138.11 109.394 -138.031 109.896 -138.031 110.451C-138.031 111.011 -138.11 111.515 -138.269 111.963C-138.423 112.411 -138.647 112.794 -138.941 113.111C-139.235 113.428 -139.59 113.673 -140.005 113.846C-140.42 114.014 -140.887 114.098 -141.405 114.098C-141.928 114.098 -142.399 114.014 -142.819 113.846C-143.234 113.673 -143.589 113.428 -143.883 113.111C-144.177 112.794 -144.403 112.411 -144.562 111.963C-144.716 111.515 -144.793 111.011 -144.793 110.451C-144.793 109.896 -144.716 109.394 -144.562 108.946C-144.403 108.493 -144.177 108.108 -143.883 107.791C-143.589 107.474 -143.234 107.229 -142.819 107.056C-142.399 106.883 -141.928 106.797 -141.405 106.797ZM-141.405 113.125C-140.705 113.125 -140.182 112.892 -139.837 112.425C-139.492 111.954 -139.319 111.298 -139.319 110.458C-139.319 109.613 -139.492 108.955 -139.837 108.484C-140.182 108.013 -140.705 107.777 -141.405 107.777C-141.76 107.777 -142.07 107.838 -142.336 107.959C-142.597 108.08 -142.817 108.255 -142.994 108.484C-143.167 108.713 -143.297 108.995 -143.386 109.331C-143.47 109.662 -143.512 110.038 -143.512 110.458C-143.512 111.298 -143.339 111.954 -142.994 112.425C-142.644 112.892 -142.114 113.125 -141.405 113.125ZM-134.397 114.112C-134.957 114.112 -135.388 113.956 -135.692 113.643C-135.99 113.33 -136.14 112.88 -136.14 112.292V107.952H-136.994C-137.068 107.952 -137.131 107.931 -137.183 107.889C-137.234 107.842 -137.26 107.772 -137.26 107.679V107.182L-136.098 107.035L-135.811 104.844C-135.797 104.774 -135.766 104.718 -135.72 104.676C-135.668 104.629 -135.603 104.606 -135.524 104.606H-134.894V107.049H-132.843V107.952H-134.894V112.208C-134.894 112.507 -134.821 112.728 -134.677 112.873C-134.532 113.018 -134.345 113.09 -134.117 113.09C-133.986 113.09 -133.874 113.074 -133.781 113.041C-133.683 113.004 -133.599 112.964 -133.529 112.922C-133.459 112.88 -133.4 112.843 -133.354 112.81C-133.302 112.773 -133.258 112.754 -133.221 112.754C-133.155 112.754 -133.097 112.794 -133.046 112.873L-132.682 113.468C-132.896 113.669 -133.155 113.827 -133.459 113.944C-133.762 114.056 -134.075 114.112 -134.397 114.112ZM-130.303 112.292C-130.074 112.6 -129.825 112.817 -129.554 112.943C-129.279 113.069 -128.978 113.132 -128.651 113.132C-127.984 113.132 -127.473 112.896 -127.118 112.425C-126.763 111.954 -126.586 111.251 -126.586 110.318C-126.586 109.45 -126.745 108.813 -127.062 108.407C-127.375 107.996 -127.823 107.791 -128.406 107.791C-128.812 107.791 -129.167 107.884 -129.47 108.071C-129.769 108.258 -130.046 108.521 -130.303 108.862V112.292ZM-130.303 107.931C-130.004 107.586 -129.668 107.31 -129.295 107.105C-128.917 106.9 -128.483 106.797 -127.993 106.797C-127.578 106.797 -127.204 106.876 -126.873 107.035C-126.537 107.194 -126.252 107.425 -126.019 107.728C-125.786 108.027 -125.608 108.391 -125.487 108.82C-125.361 109.249 -125.298 109.732 -125.298 110.269C-125.298 110.843 -125.368 111.366 -125.508 111.837C-125.648 112.308 -125.851 112.712 -126.117 113.048C-126.378 113.379 -126.698 113.638 -127.076 113.825C-127.454 114.007 -127.879 114.098 -128.35 114.098C-128.817 114.098 -129.211 114.012 -129.533 113.839C-129.85 113.662 -130.128 113.412 -130.366 113.09L-130.429 113.734C-130.466 113.911 -130.574 114 -130.751 114H-131.556V103.689H-130.303V107.931ZM-119.879 110.808C-120.453 110.827 -120.943 110.873 -121.349 110.948C-121.75 111.018 -122.079 111.111 -122.336 111.228C-122.588 111.345 -122.772 111.482 -122.889 111.641C-123.001 111.8 -123.057 111.977 -123.057 112.173C-123.057 112.36 -123.027 112.521 -122.966 112.656C-122.905 112.791 -122.824 112.903 -122.721 112.992C-122.614 113.076 -122.49 113.139 -122.35 113.181C-122.205 113.218 -122.051 113.237 -121.888 113.237C-121.669 113.237 -121.468 113.216 -121.286 113.174C-121.104 113.127 -120.934 113.062 -120.775 112.978C-120.612 112.894 -120.458 112.794 -120.313 112.677C-120.164 112.56 -120.019 112.427 -119.879 112.278V110.808ZM-123.904 107.91C-123.512 107.532 -123.09 107.25 -122.637 107.063C-122.184 106.876 -121.683 106.783 -121.132 106.783C-120.735 106.783 -120.383 106.848 -120.075 106.979C-119.767 107.11 -119.508 107.292 -119.298 107.525C-119.088 107.758 -118.929 108.041 -118.822 108.372C-118.715 108.703 -118.661 109.067 -118.661 109.464V114H-119.214C-119.335 114 -119.429 113.981 -119.494 113.944C-119.559 113.902 -119.611 113.823 -119.648 113.706L-119.788 113.034C-119.975 113.207 -120.157 113.361 -120.334 113.496C-120.511 113.627 -120.698 113.739 -120.894 113.832C-121.09 113.921 -121.3 113.988 -121.524 114.035C-121.743 114.086 -121.988 114.112 -122.259 114.112C-122.534 114.112 -122.793 114.075 -123.036 114C-123.279 113.921 -123.491 113.804 -123.673 113.65C-123.85 113.496 -123.993 113.302 -124.1 113.069C-124.203 112.831 -124.254 112.551 -124.254 112.229C-124.254 111.949 -124.177 111.681 -124.023 111.424C-123.869 111.163 -123.619 110.932 -123.274 110.731C-122.929 110.53 -122.478 110.367 -121.923 110.241C-121.368 110.11 -120.686 110.036 -119.879 110.017V109.464C-119.879 108.913 -119.998 108.498 -120.236 108.218C-120.474 107.933 -120.822 107.791 -121.279 107.791C-121.587 107.791 -121.846 107.831 -122.056 107.91C-122.261 107.985 -122.441 108.071 -122.595 108.169C-122.744 108.262 -122.875 108.349 -122.987 108.428C-123.094 108.503 -123.202 108.54 -123.309 108.54C-123.393 108.54 -123.465 108.519 -123.526 108.477C-123.587 108.43 -123.638 108.374 -123.68 108.309L-123.904 107.91ZM-115.475 103.689V114H-116.721V103.689H-115.475ZM-112.166 103.689V114H-113.412V103.689H-112.166ZM-110.356 113.23C-110.356 113.109 -110.335 112.994 -110.293 112.887C-110.246 112.78 -110.185 112.686 -110.111 112.607C-110.031 112.528 -109.938 112.465 -109.831 112.418C-109.723 112.371 -109.609 112.348 -109.488 112.348C-109.366 112.348 -109.252 112.371 -109.145 112.418C-109.037 112.465 -108.944 112.528 -108.865 112.607C-108.785 112.686 -108.722 112.78 -108.676 112.887C-108.629 112.994 -108.606 113.109 -108.606 113.23C-108.606 113.356 -108.629 113.473 -108.676 113.58C-108.722 113.683 -108.785 113.774 -108.865 113.853C-108.944 113.932 -109.037 113.993 -109.145 114.035C-109.252 114.082 -109.366 114.105 -109.488 114.105C-109.609 114.105 -109.723 114.082 -109.831 114.035C-109.938 113.993 -110.031 113.932 -110.111 113.853C-110.185 113.774 -110.246 113.683 -110.293 113.58C-110.335 113.473 -110.356 113.356 -110.356 113.23Z" fill="#4F4F4F"/>
<rect width="309" height="161" rx="4" transform="matrix(-1 0 0 1 134 0)" fill="url(#paint0_linear)"/>
<defs>
<linearGradient id="paint0_linear" x1="155" y1="80" x2="-82.5" y2="80" gradientUnits="userSpaceOnUse">
<stop stop-color="white"/>
<stop offset="1" stop-color="white" stop-opacity="0"/>
</linearGradient>
</defs>
</svg>
