<svg width="117" height="35" viewBox="0 0 117 35" fill="none" xmlns="http://www.w3.org/2000/svg">
<path fill-rule="evenodd" clip-rule="evenodd" d="M0 4C0 1.79086 1.79086 0 4 0H112.555C114.765 0 116.555 1.79086 116.555 4V31C116.555 33.2091 114.765 35 112.555 35H4C1.79086 35 0 33.2091 0 31V4Z" fill="#00ADEE"/>
<path d="M27.7912 21.536C27.3832 22.0679 26.8178 22.4707 26.0948 22.7444C25.3718 23.0181 24.5507 23.1549 23.6315 23.1549C22.6864 23.1549 21.8499 22.9406 21.1217 22.512C20.3936 22.0834 19.8307 21.4714 19.433 20.6761C19.0406 19.8757 18.8366 18.9436 18.8211 17.8798V16.9967C18.8211 15.2925 19.2291 13.9628 20.045 13.0074C20.8609 12.0469 21.9996 11.5666 23.4611 11.5666C24.716 11.5666 25.7126 11.8765 26.4511 12.4962C27.1896 13.1159 27.6337 14.0092 27.7834 15.1763H25.8624C25.6455 13.8182 24.858 13.1391 23.4998 13.1391C22.6219 13.1391 21.9531 13.4567 21.4935 14.0919C21.0391 14.7219 20.8041 15.6489 20.7886 16.8728V17.7403C20.7886 18.9591 21.0443 19.9067 21.5555 20.5832C22.0719 21.2545 22.7871 21.5902 23.7012 21.5902C24.703 21.5902 25.4157 21.363 25.8391 20.9085V18.7009H23.5153V17.2136H27.7912V21.536ZM33.4537 23.1549C32.2607 23.1549 31.2925 22.7805 30.5488 22.0317C29.8104 21.2778 29.4411 20.2759 29.4411 19.0262V18.7938C29.4411 17.9572 29.6012 17.211 29.9214 16.5552C30.2467 15.8942 30.7012 15.3803 31.2847 15.0137C31.8683 14.647 32.519 14.4637 33.2368 14.4637C34.378 14.4637 35.2585 14.8278 35.8782 15.5559C36.5031 16.284 36.8155 17.3143 36.8155 18.6466V19.4058H31.3389C31.3958 20.0978 31.6256 20.6452 32.0284 21.048C32.4363 21.4508 32.9476 21.6522 33.5621 21.6522C34.4245 21.6522 35.1268 21.3036 35.6691 20.6064L36.6838 21.5747C36.3482 22.0756 35.8989 22.4655 35.336 22.7444C34.7783 23.0181 34.1508 23.1549 33.4537 23.1549ZM33.229 15.9742C32.7126 15.9742 32.2943 16.1549 31.9741 16.5164C31.6591 16.8779 31.4577 17.3814 31.3699 18.0269H34.9564V17.8875C34.9151 17.2575 34.7473 16.7824 34.4529 16.4622C34.1586 16.1369 33.7506 15.9742 33.229 15.9742ZM40.6421 12.5814V14.6186H42.1217V16.0129H40.6421V20.6916C40.6421 21.0118 40.7041 21.2442 40.828 21.3888C40.9571 21.5282 41.1844 21.5979 41.5097 21.5979C41.7266 21.5979 41.9461 21.5721 42.1681 21.5205V22.9768C41.7395 23.0955 41.3264 23.1549 40.9287 23.1549C39.4828 23.1549 38.7598 22.3571 38.7598 20.7613V16.0129H37.381V14.6186H38.7598V12.5814H40.6421ZM49.8756 12.5814V14.6186H51.3551V16.0129H49.8756V20.6916C49.8756 21.0118 49.9376 21.2442 50.0615 21.3888C50.1906 21.5282 50.4178 21.5979 50.7432 21.5979C50.9601 21.5979 51.1795 21.5721 51.4016 21.5205V22.9768C50.973 23.0955 50.5598 23.1549 50.1622 23.1549C48.7162 23.1549 47.9933 22.3571 47.9933 20.7613V16.0129H46.6144V14.6186H47.9933V12.5814H49.8756ZM54.655 15.5327C55.2695 14.82 56.0467 14.4637 56.9866 14.4637C58.7734 14.4637 59.6797 15.4836 59.7055 17.5234V23H57.8232V17.5932C57.8232 17.0148 57.6967 16.6068 57.4436 16.3693C57.1957 16.1265 56.8291 16.0052 56.3437 16.0052C55.5897 16.0052 55.0268 16.3409 54.655 17.0122V23H52.7727V11.1018H54.655V15.5327ZM65.306 23.1549C64.1131 23.1549 63.1448 22.7805 62.4012 22.0317C61.6627 21.2778 61.2935 20.2759 61.2935 19.0262V18.7938C61.2935 17.9572 61.4536 17.211 61.7737 16.5552C62.0991 15.8942 62.5535 15.3803 63.1371 15.0137C63.7206 14.647 64.3713 14.4637 65.0891 14.4637C66.2304 14.4637 67.1109 14.8278 67.7306 15.5559C68.3554 16.284 68.6679 17.3143 68.6679 18.6466V19.4058H63.1913C63.2481 20.0978 63.4779 20.6452 63.8807 21.048C64.2887 21.4508 64.7999 21.6522 65.4145 21.6522C66.2769 21.6522 66.9792 21.3036 67.5214 20.6064L68.5362 21.5747C68.2005 22.0756 67.7512 22.4655 67.1883 22.7444C66.6306 23.0181 66.0032 23.1549 65.306 23.1549ZM65.0814 15.9742C64.565 15.9742 64.1467 16.1549 63.8265 16.5164C63.5115 16.8779 63.3101 17.3814 63.2223 18.0269H66.8088V17.8875C66.7675 17.2575 66.5996 16.7824 66.3053 16.4622C66.0109 16.1369 65.603 15.9742 65.0814 15.9742ZM79.0942 23C79.0116 22.8399 78.9393 22.5791 78.8773 22.2176C78.2783 22.8425 77.545 23.1549 76.6774 23.1549C75.8357 23.1549 75.1488 22.9148 74.6169 22.4345C74.085 21.9543 73.8191 21.3604 73.8191 20.6529C73.8191 19.7595 74.1496 19.0753 74.8106 18.6002C75.4768 18.1199 76.427 17.8798 77.6612 17.8798H78.8154V17.3298C78.8154 16.896 78.694 16.55 78.4513 16.2918C78.2086 16.0284 77.8394 15.8967 77.3436 15.8967C76.915 15.8967 76.5638 16.0052 76.2901 16.2221C76.0164 16.4338 75.8796 16.7049 75.8796 17.0354H73.9972C73.9972 16.5758 74.1496 16.1472 74.4543 15.7496C74.759 15.3468 75.1721 15.0317 75.6937 14.8045C76.2204 14.5773 76.8065 14.4637 77.452 14.4637C78.4332 14.4637 79.2156 14.7116 79.7991 15.2073C80.3827 15.6979 80.6822 16.3899 80.6977 17.2833V21.0635C80.6977 21.8174 80.8036 22.419 81.0153 22.8683V23H79.0942ZM77.026 21.6444C77.3978 21.6444 77.7464 21.554 78.0717 21.3733C78.4022 21.1926 78.6501 20.9498 78.8154 20.6452V19.0649H77.8006C77.1035 19.0649 76.5793 19.1863 76.2281 19.429C75.877 19.6717 75.7014 20.0151 75.7014 20.4592C75.7014 20.8207 75.8202 21.1099 76.0577 21.3268C76.3004 21.5386 76.6232 21.6444 77.026 21.6444ZM90.0086 18.8945C90.0086 20.1907 89.7143 21.2261 89.1256 22.0007C88.5369 22.7702 87.7467 23.1549 86.7552 23.1549C85.836 23.1549 85.1001 22.8528 84.5476 22.2486V26.2224H82.6652V14.6186H84.4004L84.4778 15.4707C85.0304 14.7994 85.7818 14.4637 86.732 14.4637C87.7545 14.4637 88.5549 14.8458 89.1333 15.6101C89.7169 16.3693 90.0086 17.4253 90.0086 18.7783V18.8945ZM88.134 18.7318C88.134 17.8953 87.9662 17.2317 87.6305 16.7411C87.3 16.2505 86.8249 16.0052 86.2052 16.0052C85.4358 16.0052 84.8832 16.3228 84.5476 16.958V20.6761C84.8884 21.3268 85.4461 21.6522 86.2207 21.6522C86.8198 21.6522 87.2871 21.412 87.6228 20.9318C87.9636 20.4463 88.134 19.713 88.134 18.7318ZM98.9477 18.8945C98.9477 20.1907 98.6534 21.2261 98.0647 22.0007C97.476 22.7702 96.6858 23.1549 95.6943 23.1549C94.7751 23.1549 94.0392 22.8528 93.4867 22.2486V26.2224H91.6043V14.6186H93.3395L93.417 15.4707C93.9695 14.7994 94.7209 14.4637 95.6711 14.4637C96.6936 14.4637 97.494 14.8458 98.0724 15.6101C98.656 16.3693 98.9477 17.4253 98.9477 18.7783V18.8945ZM97.0732 18.7318C97.0732 17.8953 96.9053 17.2317 96.5697 16.7411C96.2391 16.2505 95.764 16.0052 95.1444 16.0052C94.3749 16.0052 93.8223 16.3228 93.4867 16.958V20.6761C93.8275 21.3268 94.3852 21.6522 95.1598 21.6522C95.7589 21.6522 96.2262 21.412 96.5619 20.9318C96.9027 20.4463 97.0732 19.713 97.0732 18.7318Z" fill="white"/>
</svg>
