<svg width="210" height="34" viewBox="0 0 210 34" fill="none" xmlns="http://www.w3.org/2000/svg">
<path d="M62.3474 0.00100708H3.10737C1.39806 0.00100708 0 1.39029 0 3.08897V30.9134C0 32.6116 1.39806 34.0001 3.10737 34.0001L62.3474 33.9962V0.00100708Z" fill="#828282"/>
<path opacity="0.8" d="M62.3471 0.715698H2.44434C2.44434 0.715698 3.75347 7.7297 12.014 13.6107C12.014 13.6107 16.2428 16.7752 18.9974 16.7467H62.3458V0.715698H62.3471Z" fill="#DADADA"/>
<path d="M62.3477 33.994L206.895 33.9914C208.601 33.9914 210 32.603 210 30.9051V3.08796C210 1.38929 208.601 0 206.895 0H62.3477V33.994Z" fill="#A4A1A1"/>
<path opacity="0.8" d="M62.3477 0.715698H207.536C207.536 0.715698 206.227 7.7297 197.968 13.6107C197.968 13.6107 193.737 16.7752 191.961 16.7467H62.3481L62.3477 0.715698Z" fill="#E3E8ED"/>
<path d="M41.1764 31.5749C41.583 31.7827 42.409 32.0292 43.4437 32.0577C45.227 32.0951 46.1966 31.4172 46.9166 29.8299L56.4717 8.6468C56.0779 8.43813 55.1998 8.20397 54.4922 8.19037C53.2605 8.16444 51.6089 8.41221 50.5614 10.9141L47.4741 18.1687L41.4048 8.34676C41.0114 8.22946 40.055 8.05989 39.3594 8.05989C37.211 8.05989 36.0182 8.84102 34.7727 10.1836L28.8757 16.5937L33.6197 24.0178C34.4978 25.3726 35.6518 26.0632 37.5257 26.0632C38.7578 26.0632 39.7797 25.7781 40.2512 25.5562L34.5372 16.997L38.5868 12.7237L45.2317 23.093L41.1833 31.5749H41.1764ZM28.6418 23.5618C28.6418 25.1249 28.0257 26.0254 24.959 26.0254C24.5528 26.0254 24.1997 25.9978 23.8585 25.9455V5.2333C23.8585 3.65702 24.3955 2.01486 27.4883 2.01486C27.8821 2.01486 28.2745 2.05481 28.6418 2.13216V23.5618ZM22.3163 20.436C22.3163 23.3535 20.4027 25.4768 16.5099 25.8945C13.6924 26.195 9.61666 25.8423 7.67734 25.6208C7.6115 25.3076 7.55934 24.9179 7.55934 24.6043C7.55934 22.0633 8.93516 21.4785 10.2323 21.4785C11.5825 21.4785 13.7061 21.7122 15.279 21.7122C17.0212 21.7122 17.5454 21.1253 17.5454 20.5664C17.5454 19.8359 16.8515 19.538 15.5013 19.2766L11.8052 18.5733C8.7385 17.9859 7.10059 15.8763 7.10059 13.6353C7.10059 10.9137 9.03991 8.6332 12.854 8.21671C15.7373 7.9035 19.2492 8.25496 21.1765 8.48956C21.2415 8.81552 21.2808 9.12746 21.2808 9.46661C21.2808 12.0072 19.9311 12.5541 18.6335 12.5541C17.6373 12.5541 16.0922 12.3718 14.3218 12.3718C12.5257 12.3718 11.7796 12.8674 11.7796 13.4657C11.7796 14.1041 12.4863 14.3642 13.6146 14.5597L17.1397 15.2116C20.7567 15.8754 22.3163 17.9209 22.3163 20.436ZM89.4539 21.8461C89.4539 18.1997 87.0657 16.4262 83.2623 15.5903L76.5991 14.0862C75.3878 13.8185 74.378 13.4496 74.378 12.246C74.378 10.9413 75.4216 10.4398 78.2143 10.4398C81.5128 10.4398 82.2866 10.6068 85.2816 10.6068C86.6621 10.6068 88.0743 9.97064 88.0743 7.26177C88.0743 6.92645 88.0422 6.55841 87.9746 6.22395C85.9545 6.05735 82.3542 5.85633 77.9129 5.85633C71.2159 5.85633 68.6579 8.7335 68.6579 12.4126C68.6579 15.858 70.8461 17.7666 74.7157 18.6689L81.3781 20.2069C82.9267 20.5732 83.7685 21.2435 83.7685 22.2141C83.7685 23.5188 82.5906 24.0212 79.7979 24.0212C76.5007 24.0212 74.9859 23.7879 71.9902 23.7879C70.6101 23.7879 69.1975 24.4215 69.1975 27.1317C69.1975 27.4661 69.2312 27.8333 69.2979 28.1686C71.3185 28.368 75.6585 28.6034 80.0998 28.6034C86.7993 28.6025 89.4586 25.7598 89.4586 21.8461H89.4539ZM144.44 15.9587V10.3731H149.723C151.979 10.3731 153.762 10.7063 153.762 13.048C153.762 15.0204 152.416 15.9587 149.723 15.9587H144.437H144.44ZM144.406 20.3735H147.198L152.59 26.7624C153.596 27.9999 154.574 28.6361 156.863 28.6361C158.411 28.6361 159.453 28.436 160.292 28.0331L153.288 19.9732C157.227 19.1372 159.211 16.5932 159.211 12.8474C159.211 8.23116 156.384 5.95663 150.665 5.95663L142.488 5.9239C139.83 6.02378 138.953 6.92645 138.953 9.33528V28.2689C139.356 28.3352 139.83 28.3671 140.3 28.3671C143.664 28.3671 144.438 27.399 144.438 25.6591L144.412 20.3731H144.406V20.3735ZM97.3592 16.5609V10.4058H102.844C105.571 10.4058 106.918 11.4092 106.918 13.3837C106.918 15.4917 105.571 16.5614 102.844 16.5614L97.3592 16.5609ZM91.8738 28.2694C92.2783 28.3361 92.7503 28.368 93.2193 28.368C96.5857 28.368 97.3592 27.4003 97.3592 25.6599V21.0769H103.08C109.306 21.0769 112.401 18.4016 112.401 13.3837C112.401 8.53291 109.305 5.95705 103.45 5.95705H95.4066C92.7152 5.95705 91.8738 6.99402 91.8738 9.36886V28.2694ZM130.609 16.8287C130.609 19.4058 130.172 21.2095 129.297 22.2813C128.456 23.3845 127.075 23.8869 125.191 23.8869C123.272 23.8525 121.895 23.3182 121.018 22.2813C120.145 21.2447 119.706 19.4385 119.706 16.8287C119.706 14.2532 120.178 12.447 121.052 11.4097C121.927 10.3391 123.306 9.83762 125.19 9.83762C127.075 9.83762 128.421 10.3391 129.296 11.4097C130.169 12.447 130.609 14.2532 130.609 16.8287ZM125.188 28.3361C128.721 28.3361 131.448 27.5001 133.367 25.7942C135.282 24.1206 136.261 21.11 136.261 16.8291C136.225 12.6153 135.251 9.6706 133.265 7.9307C131.279 6.22437 128.588 5.35569 125.187 5.35569C121.789 5.35569 119.096 6.22437 117.111 7.9307C115.126 9.6706 114.149 12.6149 114.115 16.8291C114.115 21.11 115.091 24.121 117.01 25.7942C118.929 27.5006 121.657 28.3361 125.189 28.3361H125.188ZM173.684 10.5406H178.093C179.54 10.5406 181.019 9.87119 181.019 7.02632C181.019 6.69313 180.986 6.29109 180.919 5.95705H163.791C162.344 5.95705 160.862 6.62641 160.862 9.46873C160.862 9.80447 160.896 10.2044 160.965 10.5406H168.199V28.2689C168.604 28.3352 169.074 28.3671 169.546 28.3671C172.908 28.3671 173.684 27.399 173.684 25.6591V10.5406ZM202.521 21.8461C202.521 18.1997 200.129 16.4262 196.329 15.5903L189.666 14.0862C188.454 13.8185 187.445 13.4496 187.445 12.246C187.445 10.9413 188.487 10.4398 191.28 10.4398C194.579 10.4398 195.354 10.6068 198.347 10.6068C199.728 10.6068 201.141 9.97064 201.141 7.26177C201.141 6.92645 201.11 6.55841 201.042 6.22395C199.022 6.05735 195.421 5.85633 190.978 5.85633C184.283 5.85633 181.724 8.7335 181.724 12.4126C181.724 15.858 183.911 17.7666 187.782 18.6689L194.445 20.2069C195.994 20.5732 196.835 21.2435 196.835 22.2141C196.835 23.5188 195.656 24.0212 192.865 24.0212C189.566 24.0212 188.053 23.7879 185.055 23.7879C183.675 23.7879 182.262 24.4215 182.262 27.1317C182.262 27.4661 182.296 27.8333 182.364 28.1686C184.382 28.368 188.724 28.6034 193.166 28.6034C199.866 28.6025 202.525 25.7598 202.525 21.8461H202.521Z" fill="white"/>
</svg>
