<svg width="110" height="32" viewBox="0 0 110 32" fill="none" xmlns="http://www.w3.org/2000/svg">
<path fill-rule="evenodd" clip-rule="evenodd" d="M39.4147 14.7788C42.1921 14.7788 43.1176 12.9197 43.1176 10.3633C43.1176 5.42524 39.4723 5.83202 39.1836 5.83202H37.8525V14.7788H39.4147ZM39.5887 13.2102V7.45855C41.0351 7.45855 41.3826 9.25984 41.3826 10.3633C41.3826 11.4667 40.9769 13.268 39.5887 13.2102ZM48.325 5.83202V14.7788H51.912V13.1523H50.1182V11.1184H51.6804V9.43342H50.1182V7.51641H51.912V5.83202H48.325ZM60.8793 6.18035C60.4166 5.88988 59.8963 5.71512 59.3748 5.71512C57.8132 5.71512 57.0036 6.93546 57.0036 8.32938C57.0036 9.66603 57.6398 10.3048 58.6816 11.0021C59.1443 11.3504 59.7229 11.583 59.7229 12.2803C59.7229 12.8612 59.2602 13.268 58.6816 13.268C58.1601 13.268 57.7562 13.0939 57.3505 12.8034V14.4884C57.7556 14.7788 58.3918 14.8946 58.8551 14.8946C60.533 14.8946 61.4009 13.7327 61.4009 12.164C61.4009 9.7239 58.7392 9.66604 58.7392 8.15522C58.7392 7.63213 59.0873 7.28379 59.6076 7.28379C60.128 7.28379 60.533 7.57427 60.8799 7.86474V6.18035H60.8793ZM66.7229 14.7788H68.4597V5.83202H66.7229V14.7788ZM76.8479 9.8402V11.4667H77.9468C77.9468 12.1061 77.8321 13.268 76.9061 13.268C75.6326 13.268 75.575 11.2347 75.575 10.3048C75.575 9.49187 75.6896 7.2838 76.9061 7.34225C77.5423 7.34225 77.7157 8.0395 77.7733 8.50414L79.5095 7.80688C79.1044 6.58713 78.236 5.71512 76.8479 5.71512C74.3609 5.71512 73.7236 8.32938 73.7236 10.3633C73.7236 12.3387 74.4755 14.8946 76.8479 14.8946C79.2779 14.8946 79.7406 12.3966 79.7406 10.5375V9.8402H76.8479ZM84.948 5.83202V14.7788H86.683V10.3048L86.5684 9.43342L86.626 9.37556L88.7667 14.7788H90.4447V5.83202H88.7097V9.89865C88.7097 10.3054 88.7097 10.7707 88.8243 11.2353L86.6266 5.83261H84.948V5.83202ZM95.9414 5.83202V14.7788H99.5272V13.1523H97.6764V11.1184H99.2967V9.43342H97.6764V7.51641H99.4702V5.83202H95.9414ZM106.586 14.7788V10.6538H106.644L108.148 14.7788H110L108.496 10.7116C109.363 10.247 109.71 9.37556 109.71 8.38724C109.71 6.00559 107.743 5.83143 106.586 5.83143H104.851V14.7783H106.586V14.7788ZM106.586 7.34225H106.818C107.744 7.2838 108.033 7.80688 108.033 8.44628C108.033 9.14294 107.685 9.72448 106.933 9.72448L106.586 9.66662V7.34225ZM37.9684 20.3563V21.0536H38.952V26.5726H39.7622V21.0536H40.6876V20.3563H37.9684ZM45.3165 20.3563V26.5726H47.573V25.8747H46.1267V23.7257H47.399V23.029H46.1267V21.0536H47.573V20.3563H45.3165ZM54.7471 20.4726C54.5154 20.2984 54.342 20.2984 54.0527 20.2984C52.3747 20.2984 52.2013 22.3312 52.2013 23.5515C52.2013 24.8882 52.433 26.6889 54.1109 26.6889C54.3426 26.6889 54.5737 26.6298 54.7477 26.5147V25.7596C54.6319 25.8747 54.4584 25.8747 54.285 25.8747C53.1279 25.8747 53.0697 24.3066 53.0697 23.4936C53.0697 22.7385 53.0697 21.0536 54.2268 21.0536C54.4002 21.0536 54.5737 21.1114 54.7477 21.2277V20.4726H54.7471ZM59.5494 20.3563V26.5726H60.4166V23.4936H61.6313V26.5726H62.4421V20.3563H61.6313V22.7964H60.4166V20.3563H59.5494ZM68.2851 21.8093L69.732 26.5726H70.484V20.3563H69.6744V22.5644L69.9055 25.0617H69.8478L68.4009 20.3563H67.6489V26.5726H68.4597V24.3066L68.3433 22.2149L68.2851 21.8093ZM77.1372 20.2984C75.5168 20.2984 75.5168 22.3312 75.5168 23.4936C75.5168 24.5971 75.5168 26.6889 77.1372 26.6889C78.7575 26.6889 78.7575 24.5971 78.7575 23.4936C78.7575 22.3312 78.7575 20.2984 77.1372 20.2984ZM77.1372 21.0536C77.7733 21.0536 77.8891 22.157 77.8891 23.4936C77.8891 24.7713 77.7733 25.8747 77.1372 25.8747C76.501 25.8747 76.3852 24.7713 76.3852 23.4936C76.3852 22.1576 76.501 21.0536 77.1372 21.0536ZM83.7333 20.3563V26.5726H85.9898V25.8747H84.6017V20.3563H83.7333ZM92.1221 20.2984C90.5029 20.2984 90.5029 22.3312 90.5029 23.4936C90.5029 24.5971 90.5029 26.6889 92.1221 26.6889C93.6848 26.6889 93.7425 24.5971 93.7425 23.4936C93.7425 22.3312 93.6848 20.2984 92.1221 20.2984ZM92.1221 21.0536C92.7594 21.0536 92.8741 22.157 92.8741 23.4936C92.8741 24.7713 92.7594 25.8747 92.1221 25.8747C91.4859 25.8747 91.3701 24.7713 91.3701 23.4936C91.3695 22.1576 91.4859 21.0536 92.1221 21.0536ZM100.222 23.3195V24.0161H100.858V24.3645C100.858 25.8174 100.511 25.8753 100.165 25.8753C99.8165 25.8753 99.4696 25.6433 99.4696 23.4942C99.4696 21.9834 99.5272 21.0541 100.165 21.0541C100.685 21.0541 100.801 21.4603 100.858 21.8671L101.669 21.5188C101.437 20.7046 101.032 20.299 100.165 20.299C98.7176 20.299 98.6018 21.7508 98.6018 23.4942C98.6018 25.2365 98.7752 26.6895 100.222 26.6895C101.9 26.6895 101.727 24.5977 101.727 23.3779V23.3201H100.222V23.3195ZM106.181 20.3563L107.454 23.8998V26.5726H108.264V23.8998L109.422 20.3563H108.553L107.975 22.4481L107.86 23.261L107.108 20.3563H106.181Z" fill="#333333"/>
<path fill-rule="evenodd" clip-rule="evenodd" d="M7.53582 25.8747C7.30417 25.7005 5.62618 23.3195 5.2793 21.3428C18.5862 33.8344 34.2655 22.97 29.6948 13.6164C29.6366 13.4422 29.5214 13.268 29.3473 13.0354C29.3473 12.6871 29.2321 11.6415 29.1739 11.2926L29.579 11.6988C35.8271 19.1354 30.5044 27.5591 22.5207 29.7672C15.6935 31.3359 10.9494 28.8963 7.53582 25.8747Z" fill="#828282"/>
<path fill-rule="evenodd" clip-rule="evenodd" d="M6.78346 11.8157C5.45294 13.3265 5.10547 15.1856 5.10547 15.1856C6.26254 21.112 11.4123 22.3896 11.4123 22.3896C5.91565 18.2067 6.78346 11.8157 6.78346 11.8157Z" fill="#828282"/>
<path fill-rule="evenodd" clip-rule="evenodd" d="M5.62663 5.48312C2.67574 7.28442 1.63449 10.3049 2.0972 12.2803C1.28761 13.7911 1.11357 14.1979 0.47742 16.4054C-1.43163 9.54976 3.48593 5.83205 5.62663 5.48312Z" fill="#828282"/>
<path fill-rule="evenodd" clip-rule="evenodd" d="M27.0336 22.389C25.9923 23.3195 25.3556 23.842 24.0251 24.7713C32.9348 7.45856 14.999 -3.2317 8.11416 6.35452C7.88251 6.47083 5.97346 7.40011 5.45312 7.80689C10.2549 -5.43977 27.9014 -0.269103 29.5794 11.6994C29.9263 15.0693 29.7528 18.0904 27.0336 22.389Z" fill="#C4C4C4"/>
<path fill-rule="evenodd" clip-rule="evenodd" d="M19.6278 5.30896C20.4956 5.65729 21.19 6.29668 21.8843 6.99394C9.27176 4.14706 3.83269 11.6415 3.77508 17.7421C3.71746 24.7713 9.90792 32.3242 18.4125 30.1752C18.4701 30.1752 18.8752 30.0589 19.1069 29.942C20.0323 29.8257 20.7849 29.7678 21.421 29.6515C21.3052 29.7105 21.1894 29.8257 21.1894 29.8257C10.1972 36.3324 -0.448709 27.0951 0.0145902 17.1611C1.05584 8.73678 9.387 2.0553 19.6278 5.30896Z" fill="#C4C4C4"/>
<path fill-rule="evenodd" clip-rule="evenodd" d="M7.53582 25.8747C7.30417 25.7005 5.62618 23.3195 5.2793 21.3428C11.1229 26.804 17.4291 27.7923 22.2315 26.3978C22.5789 27.6175 22.9258 28.4305 22.5207 29.7671C15.6935 31.3358 10.9494 28.8963 7.53582 25.8747Z" fill="#828282"/>
</svg>
