<svg width="48" height="48" viewBox="0 0 48 48" fill="none" xmlns="http://www.w3.org/2000/svg">
<mask id="mask0" mask-type="alpha" maskUnits="userSpaceOnUse" x="0" y="0" width="48" height="48">
<path d="M24 48C37.2548 48 48 37.2548 48 24C48 10.7452 37.2548 0 24 0C10.7452 0 0 10.7452 0 24C0 37.2548 10.7452 48 24 48Z" fill="white"/>
</mask>
<g mask="url(#mask0)">
<path d="M24 48C37.2548 48 48 37.2548 48 24C48 10.7452 37.2548 0 24 0C10.7452 0 0 10.7452 0 24C0 37.2548 10.7452 48 24 48Z" fill="#C4C4C4"/>
<path d="M7.25879 33.1363L27.385 48.1071L76.8862 51.2203L38.9536 16.1107V24.1147L35.4147 21.5803L28.8294 16.1107L24.9091 22.5013L19.3975 17.9001L9.7066 17.2856L7.25898 33.1365L7.25879 33.1363Z" fill="#828282"/>
<path d="M22.2818 24.5923C22.2818 19.5053 19.1552 16.0558 13.1995 16.0558H7.31836V33.1783H13.3236C19.1055 33.1783 22.2818 29.6796 22.2818 24.5923ZM18.0137 24.6171C18.0137 28.2898 16.1277 29.8779 13.1003 29.8779H11.5617V19.3564H13.1003C16.0035 19.3564 18.0137 21.0189 18.0137 24.6171ZM39.181 33.1783V16.0558H35.2354V25.6346L28.9324 16.0556H24.813V33.1781H28.7586V22.9294L35.5084 33.1781H39.181V33.1783Z" fill="white"/>
</g>
</svg>
