<svg width="459" height="318" viewBox="0 0 459 318" fill="none" xmlns="http://www.w3.org/2000/svg">
<g filter="url(#filter0_dii)">
<rect x="72" y="26" width="360" height="218.057" rx="4" fill="#E3E8ED"/>
<rect opacity="0.6" x="72" y="195" width="360" height="49.2725" rx="4" fill="#E3E8ED"/>
<path d="M130.66 219.662C130.66 220.418 130.578 221.076 130.414 221.636C130.254 222.192 130.03 222.652 129.742 223.016C129.458 223.38 129.12 223.652 128.728 223.832C128.34 224.008 127.92 224.096 127.468 224.096C127.016 224.096 126.596 224.008 126.208 223.832C125.824 223.652 125.49 223.38 125.206 223.016C124.922 222.652 124.7 222.192 124.54 221.636C124.38 221.076 124.3 220.418 124.3 219.662C124.3 218.902 124.38 218.244 124.54 217.688C124.7 217.132 124.922 216.672 125.206 216.308C125.49 215.944 125.824 215.674 126.208 215.498C126.596 215.318 127.016 215.228 127.468 215.228C127.92 215.228 128.34 215.318 128.728 215.498C129.12 215.674 129.458 215.944 129.742 216.308C130.03 216.672 130.254 217.132 130.414 217.688C130.578 218.244 130.66 218.902 130.66 219.662ZM129.13 219.662C129.13 219.034 129.084 218.514 128.992 218.102C128.9 217.69 128.776 217.362 128.62 217.118C128.468 216.874 128.292 216.704 128.092 216.608C127.892 216.508 127.684 216.458 127.468 216.458C127.256 216.458 127.05 216.508 126.85 216.608C126.654 216.704 126.48 216.874 126.328 217.118C126.176 217.362 126.054 217.69 125.962 218.102C125.874 218.514 125.83 219.034 125.83 219.662C125.83 220.29 125.874 220.81 125.962 221.222C126.054 221.634 126.176 221.962 126.328 222.206C126.48 222.45 126.654 222.622 126.85 222.722C127.05 222.818 127.256 222.866 127.468 222.866C127.684 222.866 127.892 222.818 128.092 222.722C128.292 222.622 128.468 222.45 128.62 222.206C128.776 221.962 128.9 221.634 128.992 221.222C129.084 220.81 129.13 220.29 129.13 219.662ZM137.621 219.662C137.621 220.418 137.539 221.076 137.375 221.636C137.215 222.192 136.991 222.652 136.703 223.016C136.419 223.38 136.081 223.652 135.689 223.832C135.301 224.008 134.881 224.096 134.429 224.096C133.977 224.096 133.557 224.008 133.169 223.832C132.785 223.652 132.451 223.38 132.167 223.016C131.883 222.652 131.661 222.192 131.501 221.636C131.341 221.076 131.261 220.418 131.261 219.662C131.261 218.902 131.341 218.244 131.501 217.688C131.661 217.132 131.883 216.672 132.167 216.308C132.451 215.944 132.785 215.674 133.169 215.498C133.557 215.318 133.977 215.228 134.429 215.228C134.881 215.228 135.301 215.318 135.689 215.498C136.081 215.674 136.419 215.944 136.703 216.308C136.991 216.672 137.215 217.132 137.375 217.688C137.539 218.244 137.621 218.902 137.621 219.662ZM136.091 219.662C136.091 219.034 136.045 218.514 135.953 218.102C135.861 217.69 135.737 217.362 135.581 217.118C135.429 216.874 135.253 216.704 135.053 216.608C134.853 216.508 134.645 216.458 134.429 216.458C134.217 216.458 134.011 216.508 133.811 216.608C133.615 216.704 133.441 216.874 133.289 217.118C133.137 217.362 133.015 217.69 132.923 218.102C132.835 218.514 132.791 219.034 132.791 219.662C132.791 220.29 132.835 220.81 132.923 221.222C133.015 221.634 133.137 221.962 133.289 222.206C133.441 222.45 133.615 222.622 133.811 222.722C134.011 222.818 134.217 222.866 134.429 222.866C134.645 222.866 134.853 222.818 135.053 222.722C135.253 222.622 135.429 222.45 135.581 222.206C135.737 221.962 135.861 221.634 135.953 221.222C136.045 220.81 136.091 220.29 136.091 219.662ZM138.558 223.184C138.558 223.06 138.58 222.942 138.624 222.83C138.672 222.718 138.736 222.622 138.816 222.542C138.896 222.462 138.992 222.398 139.104 222.35C139.216 222.302 139.336 222.278 139.464 222.278C139.592 222.278 139.71 222.302 139.818 222.35C139.93 222.398 140.026 222.462 140.106 222.542C140.19 222.622 140.256 222.718 140.304 222.83C140.352 222.942 140.376 223.06 140.376 223.184C140.376 223.312 140.352 223.432 140.304 223.544C140.256 223.652 140.19 223.746 140.106 223.826C140.026 223.906 139.93 223.968 139.818 224.012C139.71 224.06 139.592 224.084 139.464 224.084C139.336 224.084 139.216 224.06 139.104 224.012C138.992 223.968 138.896 223.906 138.816 223.826C138.736 223.746 138.672 223.652 138.624 223.544C138.58 223.432 138.558 223.312 138.558 223.184ZM138.558 218.906C138.558 218.782 138.58 218.664 138.624 218.552C138.672 218.44 138.736 218.344 138.816 218.264C138.896 218.184 138.992 218.12 139.104 218.072C139.216 218.024 139.336 218 139.464 218C139.592 218 139.71 218.024 139.818 218.072C139.93 218.12 140.026 218.184 140.106 218.264C140.19 218.344 140.256 218.44 140.304 218.552C140.352 218.664 140.376 218.782 140.376 218.906C140.376 219.034 140.352 219.154 140.304 219.266C140.256 219.374 140.19 219.468 140.106 219.548C140.026 219.628 139.93 219.692 139.818 219.74C139.71 219.784 139.592 219.806 139.464 219.806C139.336 219.806 139.216 219.784 139.104 219.74C138.992 219.692 138.896 219.628 138.816 219.548C138.736 219.468 138.672 219.374 138.624 219.266C138.58 219.154 138.558 219.034 138.558 218.906ZM146.902 222.62C147.062 222.62 147.188 222.666 147.28 222.758C147.376 222.846 147.424 222.964 147.424 223.112V224H141.472V223.508C141.472 223.408 141.492 223.304 141.532 223.196C141.576 223.084 141.644 222.984 141.736 222.896L144.37 220.256C144.59 220.032 144.786 219.818 144.958 219.614C145.134 219.41 145.28 219.208 145.396 219.008C145.512 218.808 145.6 218.606 145.66 218.402C145.724 218.194 145.756 217.976 145.756 217.748C145.756 217.54 145.726 217.358 145.666 217.202C145.606 217.042 145.52 216.908 145.408 216.8C145.3 216.692 145.168 216.612 145.012 216.56C144.86 216.504 144.688 216.476 144.496 216.476C144.32 216.476 144.156 216.502 144.004 216.554C143.856 216.602 143.724 216.672 143.608 216.764C143.492 216.852 143.394 216.956 143.314 217.076C143.234 217.196 143.174 217.328 143.134 217.472C143.066 217.656 142.978 217.778 142.87 217.838C142.762 217.898 142.606 217.912 142.402 217.88L141.622 217.742C141.682 217.326 141.798 216.962 141.97 216.65C142.142 216.334 142.356 216.072 142.612 215.864C142.872 215.652 143.168 215.494 143.5 215.39C143.836 215.282 144.196 215.228 144.58 215.228C144.98 215.228 145.346 215.288 145.678 215.408C146.01 215.524 146.294 215.69 146.53 215.906C146.766 216.122 146.95 216.382 147.082 216.686C147.214 216.99 147.28 217.328 147.28 217.7C147.28 218.02 147.232 218.316 147.136 218.588C147.044 218.86 146.918 219.12 146.758 219.368C146.602 219.616 146.418 219.856 146.206 220.088C145.994 220.32 145.772 220.556 145.54 220.796L143.584 222.794C143.772 222.738 143.958 222.696 144.142 222.668C144.33 222.636 144.508 222.62 144.676 222.62H146.902ZM151.457 222.938C151.701 222.938 151.915 222.904 152.099 222.836C152.283 222.764 152.437 222.666 152.561 222.542C152.689 222.418 152.785 222.27 152.849 222.098C152.913 221.926 152.945 221.74 152.945 221.54C152.945 221.064 152.813 220.704 152.549 220.46C152.285 220.216 151.921 220.094 151.457 220.094C150.993 220.094 150.629 220.216 150.365 220.46C150.101 220.704 149.969 221.064 149.969 221.54C149.969 221.74 150.001 221.926 150.065 222.098C150.129 222.27 150.223 222.418 150.347 222.542C150.475 222.666 150.631 222.764 150.815 222.836C150.999 222.904 151.213 222.938 151.457 222.938ZM151.457 216.344C151.237 216.344 151.047 216.378 150.887 216.446C150.727 216.514 150.593 216.606 150.485 216.722C150.381 216.834 150.303 216.964 150.251 217.112C150.203 217.26 150.179 217.416 150.179 217.58C150.179 217.752 150.199 217.92 150.239 218.084C150.283 218.244 150.355 218.388 150.455 218.516C150.555 218.64 150.687 218.74 150.851 218.816C151.015 218.892 151.217 218.93 151.457 218.93C151.697 218.93 151.899 218.892 152.063 218.816C152.227 218.74 152.359 218.64 152.459 218.516C152.559 218.388 152.629 218.244 152.669 218.084C152.713 217.92 152.735 217.752 152.735 217.58C152.735 217.416 152.709 217.26 152.657 217.112C152.605 216.964 152.527 216.834 152.423 216.722C152.319 216.606 152.187 216.514 152.027 216.446C151.867 216.378 151.677 216.344 151.457 216.344ZM152.921 219.476C153.449 219.648 153.839 219.912 154.091 220.268C154.343 220.62 154.469 221.052 154.469 221.564C154.469 221.948 154.395 222.296 154.247 222.608C154.103 222.92 153.899 223.186 153.635 223.406C153.371 223.626 153.053 223.796 152.681 223.916C152.313 224.036 151.905 224.096 151.457 224.096C151.009 224.096 150.599 224.036 150.227 223.916C149.859 223.796 149.543 223.626 149.279 223.406C149.015 223.186 148.809 222.92 148.661 222.608C148.517 222.296 148.445 221.948 148.445 221.564C148.445 221.052 148.571 220.62 148.823 220.268C149.075 219.912 149.465 219.648 149.993 219.476C149.573 219.3 149.257 219.05 149.045 218.726C148.837 218.402 148.733 218.012 148.733 217.556C148.733 217.228 148.799 216.922 148.931 216.638C149.067 216.354 149.255 216.108 149.495 215.9C149.735 215.688 150.021 215.524 150.353 215.408C150.689 215.288 151.057 215.228 151.457 215.228C151.857 215.228 152.223 215.288 152.555 215.408C152.891 215.524 153.179 215.688 153.419 215.9C153.659 216.108 153.845 216.354 153.977 216.638C154.113 216.922 154.181 217.228 154.181 217.556C154.181 218.012 154.075 218.402 153.863 218.726C153.655 219.05 153.341 219.3 152.921 219.476Z" fill="#E3E8ED"/>
<path d="M359.66 219.662C359.66 220.418 359.578 221.076 359.414 221.636C359.254 222.192 359.03 222.652 358.742 223.016C358.458 223.38 358.12 223.652 357.728 223.832C357.34 224.008 356.92 224.096 356.468 224.096C356.016 224.096 355.596 224.008 355.208 223.832C354.824 223.652 354.49 223.38 354.206 223.016C353.922 222.652 353.7 222.192 353.54 221.636C353.38 221.076 353.3 220.418 353.3 219.662C353.3 218.902 353.38 218.244 353.54 217.688C353.7 217.132 353.922 216.672 354.206 216.308C354.49 215.944 354.824 215.674 355.208 215.498C355.596 215.318 356.016 215.228 356.468 215.228C356.92 215.228 357.34 215.318 357.728 215.498C358.12 215.674 358.458 215.944 358.742 216.308C359.03 216.672 359.254 217.132 359.414 217.688C359.578 218.244 359.66 218.902 359.66 219.662ZM358.13 219.662C358.13 219.034 358.084 218.514 357.992 218.102C357.9 217.69 357.776 217.362 357.62 217.118C357.468 216.874 357.292 216.704 357.092 216.608C356.892 216.508 356.684 216.458 356.468 216.458C356.256 216.458 356.05 216.508 355.85 216.608C355.654 216.704 355.48 216.874 355.328 217.118C355.176 217.362 355.054 217.69 354.962 218.102C354.874 218.514 354.83 219.034 354.83 219.662C354.83 220.29 354.874 220.81 354.962 221.222C355.054 221.634 355.176 221.962 355.328 222.206C355.48 222.45 355.654 222.622 355.85 222.722C356.05 222.818 356.256 222.866 356.468 222.866C356.684 222.866 356.892 222.818 357.092 222.722C357.292 222.622 357.468 222.45 357.62 222.206C357.776 221.962 357.9 221.634 357.992 221.222C358.084 220.81 358.13 220.29 358.13 219.662ZM366.621 219.662C366.621 220.418 366.539 221.076 366.375 221.636C366.215 222.192 365.991 222.652 365.703 223.016C365.419 223.38 365.081 223.652 364.689 223.832C364.301 224.008 363.881 224.096 363.429 224.096C362.977 224.096 362.557 224.008 362.169 223.832C361.785 223.652 361.451 223.38 361.167 223.016C360.883 222.652 360.661 222.192 360.501 221.636C360.341 221.076 360.261 220.418 360.261 219.662C360.261 218.902 360.341 218.244 360.501 217.688C360.661 217.132 360.883 216.672 361.167 216.308C361.451 215.944 361.785 215.674 362.169 215.498C362.557 215.318 362.977 215.228 363.429 215.228C363.881 215.228 364.301 215.318 364.689 215.498C365.081 215.674 365.419 215.944 365.703 216.308C365.991 216.672 366.215 217.132 366.375 217.688C366.539 218.244 366.621 218.902 366.621 219.662ZM365.091 219.662C365.091 219.034 365.045 218.514 364.953 218.102C364.861 217.69 364.737 217.362 364.581 217.118C364.429 216.874 364.253 216.704 364.053 216.608C363.853 216.508 363.645 216.458 363.429 216.458C363.217 216.458 363.011 216.508 362.811 216.608C362.615 216.704 362.441 216.874 362.289 217.118C362.137 217.362 362.015 217.69 361.923 218.102C361.835 218.514 361.791 219.034 361.791 219.662C361.791 220.29 361.835 220.81 361.923 221.222C362.015 221.634 362.137 221.962 362.289 222.206C362.441 222.45 362.615 222.622 362.811 222.722C363.011 222.818 363.217 222.866 363.429 222.866C363.645 222.866 363.853 222.818 364.053 222.722C364.253 222.622 364.429 222.45 364.581 222.206C364.737 221.962 364.861 221.634 364.953 221.222C365.045 220.81 365.091 220.29 365.091 219.662ZM367.558 223.184C367.558 223.06 367.58 222.942 367.624 222.83C367.672 222.718 367.736 222.622 367.816 222.542C367.896 222.462 367.992 222.398 368.104 222.35C368.216 222.302 368.336 222.278 368.464 222.278C368.592 222.278 368.71 222.302 368.818 222.35C368.93 222.398 369.026 222.462 369.106 222.542C369.19 222.622 369.256 222.718 369.304 222.83C369.352 222.942 369.376 223.06 369.376 223.184C369.376 223.312 369.352 223.432 369.304 223.544C369.256 223.652 369.19 223.746 369.106 223.826C369.026 223.906 368.93 223.968 368.818 224.012C368.71 224.06 368.592 224.084 368.464 224.084C368.336 224.084 368.216 224.06 368.104 224.012C367.992 223.968 367.896 223.906 367.816 223.826C367.736 223.746 367.672 223.652 367.624 223.544C367.58 223.432 367.558 223.312 367.558 223.184ZM367.558 218.906C367.558 218.782 367.58 218.664 367.624 218.552C367.672 218.44 367.736 218.344 367.816 218.264C367.896 218.184 367.992 218.12 368.104 218.072C368.216 218.024 368.336 218 368.464 218C368.592 218 368.71 218.024 368.818 218.072C368.93 218.12 369.026 218.184 369.106 218.264C369.19 218.344 369.256 218.44 369.304 218.552C369.352 218.664 369.376 218.782 369.376 218.906C369.376 219.034 369.352 219.154 369.304 219.266C369.256 219.374 369.19 219.468 369.106 219.548C369.026 219.628 368.93 219.692 368.818 219.74C368.71 219.784 368.592 219.806 368.464 219.806C368.336 219.806 368.216 219.784 368.104 219.74C367.992 219.692 367.896 219.628 367.816 219.548C367.736 219.468 367.672 219.374 367.624 219.266C367.58 219.154 367.558 219.034 367.558 218.906ZM374.288 220.73V217.892C374.288 217.624 374.306 217.328 374.342 217.004L371.648 220.73H374.288ZM376.67 220.73V221.588C376.67 221.668 376.644 221.738 376.592 221.798C376.54 221.854 376.466 221.882 376.37 221.882H375.578V224H374.288V221.882H370.628C370.528 221.882 370.44 221.852 370.364 221.792C370.288 221.728 370.24 221.65 370.22 221.558L370.064 220.808L374.174 215.318H375.578V220.73H376.67ZM382.863 222.62C383.023 222.62 383.149 222.666 383.241 222.758C383.337 222.846 383.385 222.964 383.385 223.112V224H377.433V223.508C377.433 223.408 377.453 223.304 377.493 223.196C377.537 223.084 377.605 222.984 377.697 222.896L380.331 220.256C380.551 220.032 380.747 219.818 380.919 219.614C381.095 219.41 381.241 219.208 381.357 219.008C381.473 218.808 381.561 218.606 381.621 218.402C381.685 218.194 381.717 217.976 381.717 217.748C381.717 217.54 381.687 217.358 381.627 217.202C381.567 217.042 381.481 216.908 381.369 216.8C381.261 216.692 381.129 216.612 380.973 216.56C380.821 216.504 380.649 216.476 380.457 216.476C380.281 216.476 380.117 216.502 379.965 216.554C379.817 216.602 379.685 216.672 379.569 216.764C379.453 216.852 379.355 216.956 379.275 217.076C379.195 217.196 379.135 217.328 379.095 217.472C379.027 217.656 378.939 217.778 378.831 217.838C378.723 217.898 378.567 217.912 378.363 217.88L377.583 217.742C377.643 217.326 377.759 216.962 377.931 216.65C378.103 216.334 378.317 216.072 378.573 215.864C378.833 215.652 379.129 215.494 379.461 215.39C379.797 215.282 380.157 215.228 380.541 215.228C380.941 215.228 381.307 215.288 381.639 215.408C381.971 215.524 382.255 215.69 382.491 215.906C382.727 216.122 382.911 216.382 383.043 216.686C383.175 216.99 383.241 217.328 383.241 217.7C383.241 218.02 383.193 218.316 383.097 218.588C383.005 218.86 382.879 219.12 382.719 219.368C382.563 219.616 382.379 219.856 382.167 220.088C381.955 220.32 381.733 220.556 381.501 220.796L379.545 222.794C379.733 222.738 379.919 222.696 380.103 222.668C380.291 222.636 380.469 222.62 380.637 222.62H382.863Z" fill="#E3E8ED"/>
<path d="M397 214C397 211.791 398.791 210 401 210H413C415.209 210 417 211.791 417 214V226C417 228.209 415.209 230 413 230H401C398.791 230 397 228.209 397 226V214Z" fill="#E3E8ED"/>
<path d="M414.5 212.5H399.5C398.583 212.5 397.833 213.25 397.833 214.167V225.833C397.833 226.75 398.583 227.5 399.5 227.5H414.5C415.416 227.5 416.166 226.75 416.166 225.833V214.167C416.166 213.25 415.416 212.5 414.5 212.5ZM414.5 219.333C414.5 221.542 412.709 223.333 410.5 223.333H403.5C401.291 223.333 399.5 221.542 399.5 219.333V218.167C399.5 215.958 401.291 214.167 403.5 214.167H410.5C412.709 214.167 414.5 215.958 414.5 218.167V219.333Z" fill="#E3E8ED"/>
<path d="M93 225C93 226.105 93.8954 227 95 227C96.1046 227 97 226.105 97 225V215C97 213.895 96.1046 213 95 213C93.8954 213 93 213.895 93 215V225ZM103 213C101.895 213 101 213.895 101 215V225C101 226.105 101.895 227 103 227C104.105 227 105 226.105 105 225V215C105 213.895 104.105 213 103 213Z" fill="#E3E8ED"/>
<path d="M87 212C87 209.791 88.7909 208 91 208H107C109.209 208 111 209.791 111 212V228C111 230.209 109.209 232 107 232H91C88.7909 232 87 230.209 87 228V212Z" fill="#E3E8ED"/>
<rect x="168" y="218" width="172" height="4" rx="2" fill="#E3E8ED"/>
<rect x="168" y="218" width="127" height="4" rx="2" fill="#E3E8ED"/>
<circle cx="294" cy="220" r="5" fill="#E3E8ED"/>
</g>
<defs>
<filter id="filter0_dii" x="0.976908" y="0.897009" width="457.963" height="316.235" filterUnits="userSpaceOnUse" color-interpolation-filters="sRGB">
<feFlood flood-opacity="0" result="BackgroundImageFix"/>
<feColorMatrix in="SourceAlpha" type="matrix" values="0 0 0 0 0 0 0 0 0 0 0 0 0 0 0 0 0 0 127 0"/>
<feOffset dx="-22.0416" dy="23.8785"/>
<feGaussianBlur stdDeviation="24.4907"/>
<feColorMatrix type="matrix" values="0 0 0 0 0 0 0 0 0 0 0 0 0 0 0 0 0 0 0.5 0"/>
<feBlend mode="normal" in2="BackgroundImageFix" result="effect1_dropShadow"/>
<feBlend mode="normal" in="SourceGraphic" in2="effect1_dropShadow" result="shape"/>
<feColorMatrix in="SourceAlpha" type="matrix" values="0 0 0 0 0 0 0 0 0 0 0 0 0 0 0 0 0 0 127 0" result="hardAlpha"/>
<feOffset dx="-6.73495" dy="-19.5926"/>
<feGaussianBlur stdDeviation="12.2454"/>
<feComposite in2="hardAlpha" operator="arithmetic" k2="-1" k3="1"/>
<feColorMatrix type="matrix" values="0 0 0 0 1 0 0 0 0 1 0 0 0 0 1 0 0 0 1 0"/>
<feBlend mode="normal" in2="shape" result="effect2_innerShadow"/>
<feColorMatrix in="SourceAlpha" type="matrix" values="0 0 0 0 0 0 0 0 0 0 0 0 0 0 0 0 0 0 127 0" result="hardAlpha"/>
<feOffset dx="4.89814" dy="-2.44907"/>
<feGaussianBlur stdDeviation="4.28588"/>
<feComposite in2="hardAlpha" operator="arithmetic" k2="-1" k3="1"/>
<feColorMatrix type="matrix" values="0 0 0 0 0.776471 0 0 0 0 0.811765 0 0 0 0 0.854902 0 0 0 1 0"/>
<feBlend mode="normal" in2="effect2_innerShadow" result="effect3_innerShadow"/>
</filter>
</defs>
</svg>
